0
SECTION
2
HEADER
9
$INSUNITS
70
4
9
$ACADVER
1
AC1014
9
$HANDSEED
5
FFFF
0
ENDSEC
0
SECTION
2
TABLES
0
TABLE
2
VPORT
5
8
100
AcDbSymbolTable
0
ENDTAB
0
TABLE
2
LTYPE
5
5
100
AcDbSymbolTable
0
LTYPE
5
14
100
AcDbSymbolTableRecord
100
AcDbLinetypeTableRecord
2
BYBLOCK
70
0
0
LTYPE
5
15
100
AcDbSymbolTableRecord
100
AcDbLinetypeTableRecord
2
BYLAYER
70
0
0
ENDTAB
0
TABLE
2
LAYER
5
2
100
AcDbSymbolTable
70
2
0
LAYER
5
50
100
AcDbSymbolTableRecord
100
AcDbLayerTableRecord
2
0
70
0
6
CONTINUOUS
0
ENDTAB
0
TABLE
2
STYLE
5
3
100
AcDbSymbolTable
70
1
0
STYLE
5
11
100
AcDbSymbolTableRecord
100
AcDbTextStyleTableRecord
2
STANDARD
70
0
0
ENDTAB
0
TABLE
2
VIEW
5
6
100
AcDbSymbolTable
70
0
0
ENDTAB
0
TABLE
2
UCS
5
7
100
AcDbSymbolTable
70
0
0
ENDTAB
0
TABLE
2
APPID
5
9
100
AcDbSymbolTable
70
2
0
APPID
5
12
100
AcDbSymbolTableRecord
100
AcDbRegAppTableRecord
2
ACAD
70
0
0
ENDTAB
0
TABLE
2
DIMSTYLE
5
A
100
AcDbSymbolTable
70
1
0
ENDTAB
0
TABLE
2
BLOCK_RECORD
5
1
100
AcDbSymbolTable
70
1
0
BLOCK_RECORD
5
1F
100
AcDbSymbolTableRecord
100
AcDbBlockTableRecord
2
*MODEL_SPACE
0
BLOCK_RECORD
5
1B
100
AcDbSymbolTableRecord
100
AcDbBlockTableRecord
2
*PAPER_SPACE
0
ENDTAB
0
ENDSEC
0
SECTION
2
BLOCKS
0
BLOCK
5
20
100
AcDbEntity
100
AcDbBlockBegin
2
*MODEL_SPACE
0
ENDBLK
5
21
100
AcDbEntity
100
AcDbBlockEnd
0
BLOCK
5
1C
100
AcDbEntity
100
AcDbBlockBegin
2
*PAPER_SPACE
0
ENDBLK
5
1D
100
AcDbEntity
100
AcDbBlockEnd
0
ENDSEC
0
SECTION
2
ENTITIES
0
LWPOLYLINE
5
100
100
AcDbEntity
8
0
100
AcDbPolyline
90
20
70
1
43
0.0
10
-351.37819999999999
20
263.17526999999995
10
-351.37819999999999
20
264.17435999999998
10
-365.37750000000005
20
264.17435999999998
10
-365.37750000000005
20
263.17526999999995
10
-366.17689999999993
20
263.17526999999995
10
-366.17689999999993
20
260.07470999999998
10
-365.37750000000005
20
260.07470999999998
10
-365.37750000000005
20
254.27319999999997
10
-366.17689999999993
20
254.27319999999997
10
-366.17689999999993
20
251.17529999999999
10
-365.37750000000005
20
251.17529999999999
10
-365.37750000000005
20
250.17489999999998
10
-351.37819999999999
20
250.17489999999998
10
-351.37819999999999
20
251.17529999999999
10
-350.57740000000001
20
251.17529999999999
10
-350.57740000000001
20
254.27319999999997
10
-351.37819999999999
20
254.27319999999997
10
-351.37819999999999
20
260.07470999999998
10
-350.57740000000001
20
260.07470999999998
10
-350.57740000000001
20
263.17526999999995
0
LWPOLYLINE
5
101
100
AcDbEntity
8
0
100
AcDbPolyline
90
20
70
1
43
0.0
10
-489.20299999999997
20
251.17529999999999
10
-489.20299999999997
20
250.17489999999998
10
-475.20299999999997
20
250.17489999999998
10
-475.20299999999997
20
251.17529999999999
10
-474.40199999999999
20
251.17529999999999
10
-474.40199999999999
20
254.27319999999997
10
-475.20299999999997
20
254.27319999999997
10
-475.20299999999997
20
260.07470999999998
10
-474.40199999999999
20
260.07470999999998
10
-474.40199999999999
20
263.17526999999995
10
-475.20299999999997
20
263.17526999999995
10
-475.20299999999997
20
264.17435999999998
10
-489.20299999999997
20
264.17435999999998
10
-489.20299999999997
20
263.17526999999995
10
-490.00200000000001
20
263.17526999999995
10
-490.00200000000001
20
260.07470999999998
10
-489.20299999999997
20
260.07470999999998
10
-489.20299999999997
20
254.27319999999997
10
-490.00200000000001
20
254.27319999999997
10
-490.00200000000001
20
251.17529999999999
0
LWPOLYLINE
5
102
100
AcDbEntity
8
0
100
AcDbPolyline
90
20
70
1
43
0.0
10
-413.00299999999999
20
235.22449999999998
10
-413.80200000000002
20
235.22449999999998
10
-413.80200000000002
20
232.12529999999998
10
-413.00299999999999
20
232.12529999999998
10
-413.00299999999999
20
231.12499999999997
10
-399.00300000000004
20
231.12499999999997
10
-399.00300000000004
20
232.12529999999998
10
-398.202
20
232.12529999999998
10
-398.202
20
235.22449999999998
10
-399.00300000000004
20
235.22449999999998
10
-399.00300000000004
20
241.02469999999997
10
-398.202
20
241.02469999999997
10
-398.202
20
244.12529999999998
10
-399.00300000000004
20
244.12529999999998
10
-399.00300000000004
20
245.12439999999998
10
-413.00299999999999
20
245.12439999999998
10
-413.00299999999999
20
244.12529999999998
10
-413.80200000000002
20
244.12529999999998
10
-413.80200000000002
20
241.02469999999997
10
-413.00299999999999
20
241.02469999999997
0
LWPOLYLINE
5
103
100
AcDbEntity
8
0
100
AcDbPolyline
90
60
70
1
43
0.0
10
-439.19600000000003
20
250.17489999999998
10
-425.197
20
250.17489999999998
10
-425.197
20
251.17529999999999
10
-424.39599999999996
20
251.17529999999999
10
-424.39599999999996
20
254.27319999999997
10
-425.197
20
254.27319999999997
10
-425.197
20
254.87539999999998
10
-423.67199999999997
20
254.87539999999998
10
-423.67199999999997
20
251.64519999999999
10
-421.94600000000003
20
251.64519999999999
10
-421.94600000000003
20
250.72329999999997
10
-418.64699999999999
20
250.72329999999997
10
-418.64699999999999
20
251.64519999999999
10
-416.92200000000003
20
251.64519999999999
10
-416.92200000000003
20
254.87539999999998
10
-416.096
20
254.87539999999998
10
-416.096
20
257.67415999999997
10
-416.92200000000003
20
257.67415999999997
10
-416.92200000000003
20
263.94423
10
-418.64699999999999
20
263.94423
10
-418.64699999999999
20
264.92538999999999
10
-421.94600000000003
20
264.92538999999999
10
-421.94600000000003
20
263.94423
10
-423.67199999999997
20
263.94423
10
-423.67199999999997
20
259.47526999999997
10
-425.197
20
259.47526999999997
10
-425.197
20
260.07470999999998
10
-424.39599999999996
20
260.07470999999998
10
-424.39599999999996
20
263.17526999999995
10
-425.197
20
263.17526999999995
10
-425.197
20
264.17435999999998
10
-439.19600000000003
20
264.17435999999998
10
-439.19600000000003
20
263.17526999999995
10
-439.99700000000007
20
263.17526999999995
10
-439.99700000000007
20
260.07470999999998
10
-439.19600000000003
20
260.07470999999998
10
-439.19600000000003
20
259.47526999999997
10
-440.72200000000004
20
259.47526999999997
10
-440.72200000000004
20
263.94423
10
-442.44599999999997
20
263.94423
10
-442.44599999999997
20
264.92538999999999
10
-445.74600000000004
20
264.92538999999999
10
-445.74600000000004
20
263.94423
10
-447.471
20
263.94423
10
-447.471
20
257.67415999999997
10
-448.29700000000003
20
257.67415999999997
10
-448.29700000000003
20
254.87539999999998
10
-447.471
20
254.87539999999998
10
-447.471
20
251.64519999999999
10
-445.74600000000004
20
251.64519999999999
10
-445.74600000000004
20
250.72329999999997
10
-442.44599999999997
20
250.72329999999997
10
-442.44599999999997
20
251.64519999999999
10
-440.72200000000004
20
251.64519999999999
10
-440.72200000000004
20
254.87539999999998
10
-439.19600000000003
20
254.87539999999998
10
-439.19600000000003
20
254.27319999999997
10
-439.99700000000007
20
254.27319999999997
10
-439.99700000000007
20
251.17529999999999
10
-439.19600000000003
20
251.17529999999999
0
LWPOLYLINE
5
104
100
AcDbEntity
8
0
100
AcDbPolyline
90
60
70
1
43
0.0
10
-402.88399999999996
20
263.94423
10
-404.60899999999992
20
263.94423
10
-404.60899999999992
20
257.67415999999997
10
-405.43299999999999
20
257.67415999999997
10
-405.43299999999999
20
254.87539999999998
10
-404.60899999999992
20
254.87539999999998
10
-404.60899999999992
20
251.64519999999999
10
-402.88399999999996
20
251.64519999999999
10
-402.88399999999996
20
250.72329999999997
10
-399.58300000000003
20
250.72329999999997
10
-399.58300000000003
20
251.64519999999999
10
-397.858
20
251.64519999999999
10
-397.858
20
254.87539999999998
10
-396.334
20
254.87539999999998
10
-396.334
20
254.27319999999997
10
-397.13300000000004
20
254.27319999999997
10
-397.13300000000004
20
251.17529999999999
10
-396.334
20
251.17529999999999
10
-396.334
20
250.17489999999998
10
-382.33310000000006
20
250.17489999999998
10
-382.33310000000006
20
251.17529999999999
10
-381.53370000000001
20
251.17529999999999
10
-381.53370000000001
20
254.27319999999997
10
-382.33310000000006
20
254.27319999999997
10
-382.33310000000006
20
254.87539999999998
10
-380.80910000000006
20
254.87539999999998
10
-380.80910000000006
20
251.64519999999999
10
-379.08360000000005
20
251.64519999999999
10
-379.08360000000005
20
250.72329999999997
10
-375.78300000000002
20
250.72329999999997
10
-375.78300000000002
20
251.64519999999999
10
-374.05799999999999
20
251.64519999999999
10
-374.05799999999999
20
254.87539999999998
10
-373.23390000000006
20
254.87539999999998
10
-373.23390000000006
20
257.67415999999997
10
-374.05799999999999
20
257.67415999999997
10
-374.05799999999999
20
263.94423
10
-375.78300000000002
20
263.94423
10
-375.78300000000002
20
264.92538999999999
10
-379.08360000000005
20
264.92538999999999
10
-379.08360000000005
20
263.94423
10
-380.80910000000006
20
263.94423
10
-380.80910000000006
20
259.47526999999997
10
-382.33310000000006
20
259.47526999999997
10
-382.33310000000006
20
260.07470999999998
10
-381.53370000000001
20
260.07470999999998
10
-381.53370000000001
20
263.17526999999995
10
-382.33310000000006
20
263.17526999999995
10
-382.33310000000006
20
264.17435999999998
10
-396.334
20
264.17435999999998
10
-396.334
20
263.17526999999995
10
-397.13300000000004
20
263.17526999999995
10
-397.13300000000004
20
260.07470999999998
10
-396.334
20
260.07470999999998
10
-396.334
20
259.47526999999997
10
-397.858
20
259.47526999999997
10
-397.858
20
263.94423
10
-399.58300000000003
20
263.94423
10
-399.58300000000003
20
264.92538999999999
10
-402.88399999999996
20
264.92538999999999
0
LWPOLYLINE
5
105
100
AcDbEntity
8
0
100
AcDbPolyline
90
20
70
1
43
0.0
10
-550.60199999999998
20
263.17526999999995
10
-551.40300000000002
20
263.17526999999995
10
-551.40300000000002
20
264.17435999999998
10
-565.40300000000002
20
264.17435999999998
10
-565.40300000000002
20
263.17526999999995
10
-566.202
20
263.17526999999995
10
-566.202
20
260.07470999999998
10
-565.40300000000002
20
260.07470999999998
10
-565.40300000000002
20
254.27319999999997
10
-566.202
20
254.27319999999997
10
-566.202
20
251.17529999999999
10
-565.40300000000002
20
251.17529999999999
10
-565.40300000000002
20
250.17489999999998
10
-551.40300000000002
20
250.17489999999998
10
-551.40300000000002
20
251.17529999999999
10
-550.60199999999998
20
251.17529999999999
10
-550.60199999999998
20
254.27319999999997
10
-551.40300000000002
20
254.27319999999997
10
-551.40300000000002
20
260.07470999999998
10
-550.60199999999998
20
260.07470999999998
0
LWPOLYLINE
5
106
100
AcDbEntity
8
0
100
AcDbPolyline
90
20
70
1
43
0.0
10
-513.303
20
254.27319999999997
10
-513.303
20
260.07470999999998
10
-512.50199999999995
20
260.07470999999998
10
-512.50199999999995
20
263.17526999999995
10
-513.303
20
263.17526999999995
10
-513.303
20
264.17435999999998
10
-527.303
20
264.17435999999998
10
-527.303
20
263.17526999999995
10
-528.10199999999998
20
263.17526999999995
10
-528.10199999999998
20
260.07470999999998
10
-527.303
20
260.07470999999998
10
-527.303
20
254.27319999999997
10
-528.10199999999998
20
254.27319999999997
10
-528.10199999999998
20
251.17529999999999
10
-527.303
20
251.17529999999999
10
-527.303
20
250.17489999999998
10
-513.303
20
250.17489999999998
10
-513.303
20
251.17529999999999
10
-512.50199999999995
20
251.17529999999999
10
-512.50199999999995
20
254.27319999999997
0
LWPOLYLINE
5
107
100
AcDbEntity
8
0
100
AcDbPolyline
90
20
70
1
43
0.0
10
-375.70189999999997
20
232.12529999999998
10
-374.90250000000003
20
232.12529999999998
10
-374.90250000000003
20
231.12499999999997
10
-360.90319999999997
20
231.12499999999997
10
-360.90319999999997
20
232.12529999999998
10
-360.10239999999999
20
232.12529999999998
10
-360.10239999999999
20
235.22449999999998
10
-360.90319999999997
20
235.22449999999998
10
-360.90319999999997
20
241.02469999999997
10
-360.10239999999999
20
241.02469999999997
10
-360.10239999999999
20
244.12529999999998
10
-360.90319999999997
20
244.12529999999998
10
-360.90319999999997
20
245.12439999999998
10
-374.90250000000003
20
245.12439999999998
10
-374.90250000000003
20
244.12529999999998
10
-375.70189999999997
20
244.12529999999998
10
-375.70189999999997
20
241.02469999999997
10
-374.90250000000003
20
241.02469999999997
10
-374.90250000000003
20
235.22449999999998
10
-375.70189999999997
20
235.22449999999998
0
LWPOLYLINE
5
108
100
AcDbEntity
8
0
100
AcDbPolyline
90
20
70
1
43
0.0
10
-493.45200000000006
20
254.27319999999997
10
-494.25300000000004
20
254.27319999999997
10
-494.25300000000004
20
260.07470999999998
10
-493.45200000000006
20
260.07470999999998
10
-493.45200000000006
20
263.17526999999995
10
-494.25300000000004
20
263.17526999999995
10
-494.25300000000004
20
264.17435999999998
10
-508.25299999999999
20
264.17435999999998
10
-508.25299999999999
20
263.17526999999995
10
-509.05200000000002
20
263.17526999999995
10
-509.05200000000002
20
260.07470999999998
10
-508.25299999999999
20
260.07470999999998
10
-508.25299999999999
20
254.27319999999997
10
-509.05200000000002
20
254.27319999999997
10
-509.05200000000002
20
251.17529999999999
10
-508.25299999999999
20
251.17529999999999
10
-508.25299999999999
20
250.17489999999998
10
-494.25300000000004
20
250.17489999999998
10
-494.25300000000004
20
251.17529999999999
10
-493.45200000000006
20
251.17529999999999
0
LWPOLYLINE
5
109
100
AcDbEntity
8
0
100
AcDbPolyline
90
20
70
1
43
0.0
10
-460.62800000000004
20
221.97460000000001
10
-460.62800000000004
20
216.17459999999997
10
-461.42699999999996
20
216.17459999999997
10
-461.42699999999996
20
213.0754
10
-460.62800000000004
20
213.0754
10
-460.62800000000004
20
212.07490000000001
10
-446.62800000000004
20
212.07490000000001
10
-446.62800000000004
20
213.0754
10
-445.827
20
213.0754
10
-445.827
20
216.17459999999997
10
-446.62800000000004
20
216.17459999999997
10
-446.62800000000004
20
221.97460000000001
10
-445.827
20
221.97460000000001
10
-445.827
20
225.0752
10
-446.62800000000004
20
225.0752
10
-446.62800000000004
20
226.07419999999996
10
-460.62800000000004
20
226.07419999999996
10
-460.62800000000004
20
225.0752
10
-461.42699999999996
20
225.0752
10
-461.42699999999996
20
221.97460000000001
0
LWPOLYLINE
5
110
100
AcDbEntity
8
0
100
AcDbPolyline
90
20
70
1
43
0.0
10
-394.75200000000001
20
244.12529999999998
10
-394.75200000000001
20
241.02469999999997
10
-393.95300000000009
20
241.02469999999997
10
-393.95300000000009
20
235.22449999999998
10
-394.75200000000001
20
235.22449999999998
10
-394.75200000000001
20
232.12529999999998
10
-393.95300000000009
20
232.12529999999998
10
-393.95300000000009
20
231.12499999999997
10
-379.95319999999998
20
231.12499999999997
10
-379.95319999999998
20
232.12529999999998
10
-379.15239999999994
20
232.12529999999998
10
-379.15239999999994
20
235.22449999999998
10
-379.95319999999998
20
235.22449999999998
10
-379.95319999999998
20
241.02469999999997
10
-379.15239999999994
20
241.02469999999997
10
-379.15239999999994
20
244.12529999999998
10
-379.95319999999998
20
244.12529999999998
10
-379.95319999999998
20
245.12439999999998
10
-393.95300000000009
20
245.12439999999998
10
-393.95300000000009
20
244.12529999999998
0
LWPOLYLINE
5
111
100
AcDbEntity
8
0
100
AcDbPolyline
90
20
70
1
43
0.0
10
-322.00249999999994
20
232.12529999999998
10
-322.00249999999994
20
235.22449999999998
10
-322.80320000000006
20
235.22449999999998
10
-322.80320000000006
20
241.02469999999997
10
-322.00249999999994
20
241.02469999999997
10
-322.00249999999994
20
244.12529999999998
10
-322.80320000000006
20
244.12529999999998
10
-322.80320000000006
20
245.12439999999998
10
-336.80250000000001
20
245.12439999999998
10
-336.80250000000001
20
244.12529999999998
10
-337.6019
20
244.12529999999998
10
-337.6019
20
241.02469999999997
10
-336.80250000000001
20
241.02469999999997
10
-336.80250000000001
20
235.22449999999998
10
-337.6019
20
235.22449999999998
10
-337.6019
20
232.12529999999998
10
-336.80250000000001
20
232.12529999999998
10
-336.80250000000001
20
231.12499999999997
10
-322.80320000000006
20
231.12499999999997
10
-322.80320000000006
20
232.12529999999998
0
LWPOLYLINE
5
112
100
AcDbEntity
8
0
100
AcDbPolyline
90
20
70
1
43
0.0
10
-518.06600000000003
20
206.02519999999998
10
-518.06600000000003
20
207.02419999999995
10
-532.06500000000005
20
207.02419999999995
10
-532.06500000000005
20
206.02519999999998
10
-532.8660000000001
20
206.02519999999998
10
-532.8660000000001
20
202.9246
10
-532.06500000000005
20
202.9246
10
-532.06500000000005
20
197.12459999999999
10
-532.8660000000001
20
197.12459999999999
10
-532.8660000000001
20
194.02539999999999
10
-532.06500000000005
20
194.02539999999999
10
-532.06500000000005
20
193.0249
10
-518.06600000000003
20
193.0249
10
-518.06600000000003
20
194.02539999999999
10
-517.26499999999999
20
194.02539999999999
10
-517.26499999999999
20
197.12459999999999
10
-518.06600000000003
20
197.12459999999999
10
-518.06600000000003
20
202.9246
10
-517.26499999999999
20
202.9246
10
-517.26499999999999
20
206.02519999999998
0
LWPOLYLINE
5
113
100
AcDbEntity
8
0
100
AcDbPolyline
90
20
70
1
43
0.0
10
-550.60199999999998
20
235.22449999999998
10
-551.40300000000002
20
235.22449999999998
10
-551.40300000000002
20
241.02469999999997
10
-550.60199999999998
20
241.02469999999997
10
-550.60199999999998
20
244.12529999999998
10
-551.40300000000002
20
244.12529999999998
10
-551.40300000000002
20
245.12439999999998
10
-565.40300000000002
20
245.12439999999998
10
-565.40300000000002
20
244.12529999999998
10
-566.202
20
244.12529999999998
10
-566.202
20
241.02469999999997
10
-565.40300000000002
20
241.02469999999997
10
-565.40300000000002
20
235.22449999999998
10
-566.202
20
235.22449999999998
10
-566.202
20
232.12529999999998
10
-565.40300000000002
20
232.12529999999998
10
-565.40300000000002
20
231.12499999999997
10
-551.40300000000002
20
231.12499999999997
10
-551.40300000000002
20
232.12529999999998
10
-550.60199999999998
20
232.12529999999998
0
LWPOLYLINE
5
114
100
AcDbEntity
8
0
100
AcDbPolyline
90
20
70
1
43
0.0
10
-543.45699999999999
20
197.12459999999999
10
-544.25800000000004
20
197.12459999999999
10
-544.25800000000004
20
202.9246
10
-543.45699999999999
20
202.9246
10
-543.45699999999999
20
206.02519999999998
10
-544.25800000000004
20
206.02519999999998
10
-544.25800000000004
20
207.02419999999995
10
-558.25900000000001
20
207.02419999999995
10
-558.25900000000001
20
206.02519999999998
10
-559.05799999999999
20
206.02519999999998
10
-559.05799999999999
20
202.9246
10
-558.25900000000001
20
202.9246
10
-558.25900000000001
20
197.12459999999999
10
-559.05799999999999
20
197.12459999999999
10
-559.05799999999999
20
194.02539999999999
10
-558.25900000000001
20
194.02539999999999
10
-558.25900000000001
20
193.0249
10
-544.25800000000004
20
193.0249
10
-544.25800000000004
20
194.02539999999999
10
-543.45699999999999
20
194.02539999999999
0
LWPOLYLINE
5
115
100
AcDbEntity
8
0
100
AcDbPolyline
90
20
70
1
43
0.0
10
-313.27819999999997
20
264.17435999999998
10
-327.27750000000003
20
264.17435999999998
10
-327.27750000000003
20
263.17526999999995
10
-328.07690000000002
20
263.17526999999995
10
-328.07690000000002
20
260.07470999999998
10
-327.27750000000003
20
260.07470999999998
10
-327.27750000000003
20
254.27319999999997
10
-328.07690000000002
20
254.27319999999997
10
-328.07690000000002
20
251.17529999999999
10
-327.27750000000003
20
251.17529999999999
10
-327.27750000000003
20
250.17489999999998
10
-313.27819999999997
20
250.17489999999998
10
-313.27819999999997
20
251.17529999999999
10
-312.47750000000002
20
251.17529999999999
10
-312.47750000000002
20
254.27319999999997
10
-313.27819999999997
20
254.27319999999997
10
-313.27819999999997
20
260.07470999999998
10
-312.47750000000002
20
260.07470999999998
10
-312.47750000000002
20
263.17526999999995
10
-313.27819999999997
20
263.17526999999995
0
LWPOLYLINE
5
116
100
AcDbEntity
8
0
100
AcDbPolyline
90
20
70
1
43
0.0
10
-426.77700000000004
20
225.0752
10
-427.57800000000003
20
225.0752
10
-427.57800000000003
20
226.07419999999996
10
-441.57800000000003
20
226.07419999999996
10
-441.57800000000003
20
225.0752
10
-442.37700000000007
20
225.0752
10
-442.37700000000007
20
221.97460000000001
10
-441.57800000000003
20
221.97460000000001
10
-441.57800000000003
20
216.17459999999997
10
-442.37700000000007
20
216.17459999999997
10
-442.37700000000007
20
213.0754
10
-441.57800000000003
20
213.0754
10
-441.57800000000003
20
212.07490000000001
10
-427.57800000000003
20
212.07490000000001
10
-427.57800000000003
20
213.0754
10
-426.77700000000004
20
213.0754
10
-426.77700000000004
20
216.17459999999997
10
-427.57800000000003
20
216.17459999999997
10
-427.57800000000003
20
221.97460000000001
10
-426.77700000000004
20
221.97460000000001
0
LWPOLYLINE
5
117
100
AcDbEntity
8
0
100
AcDbPolyline
90
20
70
1
43
0.0
10
-326.76490000000001
20
194.02539999999999
10
-326.76490000000001
20
197.12459999999999
10
-327.56569999999999
20
197.12459999999999
10
-327.56569999999999
20
202.9246
10
-326.76490000000001
20
202.9246
10
-326.76490000000001
20
206.02519999999998
10
-327.56569999999999
20
206.02519999999998
10
-327.56569999999999
20
207.02419999999995
10
-341.565
20
207.02419999999995
10
-341.565
20
206.02519999999998
10
-342.36580000000004
20
206.02519999999998
10
-342.36580000000004
20
202.9246
10
-341.565
20
202.9246
10
-341.565
20
197.12459999999999
10
-342.36580000000004
20
197.12459999999999
10
-342.36580000000004
20
194.02539999999999
10
-341.565
20
194.02539999999999
10
-341.565
20
193.0249
10
-327.56569999999999
20
193.0249
10
-327.56569999999999
20
194.02539999999999
0
LWPOLYLINE
5
118
100
AcDbEntity
8
0
100
AcDbPolyline
90
20
70
1
43
0.0
10
-305.84640000000002
20
226.07419999999996
10
-305.84640000000002
20
225.0752
10
-306.64699999999999
20
225.0752
10
-306.64699999999999
20
221.97460000000001
10
-305.84640000000002
20
221.97460000000001
10
-305.84640000000002
20
216.17459999999997
10
-306.64699999999999
20
216.17459999999997
10
-306.64699999999999
20
213.0754
10
-305.84640000000002
20
213.0754
10
-305.84640000000002
20
212.07490000000001
10
-291.84690999999998
20
212.07490000000001
10
-291.84690999999998
20
213.0754
10
-291.04627999999997
20
213.0754
10
-291.04627999999997
20
216.17459999999997
10
-291.84690999999998
20
216.17459999999997
10
-291.84690999999998
20
221.97460000000001
10
-291.04627999999997
20
221.97460000000001
10
-291.04627999999997
20
225.0752
10
-291.84690999999998
20
225.0752
10
-291.84690999999998
20
226.07419999999996
0
LWPOLYLINE
5
119
100
AcDbEntity
8
0
100
AcDbPolyline
90
20
70
1
43
0.0
10
-328.07690000000002
20
216.17459999999997
10
-328.07690000000002
20
213.0754
10
-327.27750000000003
20
213.0754
10
-327.27750000000003
20
212.07490000000001
10
-313.27819999999997
20
212.07490000000001
10
-313.27819999999997
20
213.0754
10
-312.47750000000002
20
213.0754
10
-312.47750000000002
20
216.17459999999997
10
-313.27819999999997
20
216.17459999999997
10
-313.27819999999997
20
221.97460000000001
10
-312.47750000000002
20
221.97460000000001
10
-312.47750000000002
20
225.0752
10
-313.27819999999997
20
225.0752
10
-313.27819999999997
20
226.07419999999996
10
-327.27750000000003
20
226.07419999999996
10
-327.27750000000003
20
225.0752
10
-328.07690000000002
20
225.0752
10
-328.07690000000002
20
221.97460000000001
10
-327.27750000000003
20
221.97460000000001
10
-327.27750000000003
20
216.17459999999997
0
LWPOLYLINE
5
120
100
AcDbEntity
8
0
100
AcDbPolyline
90
20
70
1
43
0.0
10
-355.85250000000002
20
235.22449999999998
10
-356.65189999999996
20
235.22449999999998
10
-356.65189999999996
20
232.12529999999998
10
-355.85250000000002
20
232.12529999999998
10
-355.85250000000002
20
231.12499999999997
10
-341.85319999999996
20
231.12499999999997
10
-341.85319999999996
20
232.12529999999998
10
-341.05240000000003
20
232.12529999999998
10
-341.05240000000003
20
235.22449999999998
10
-341.85319999999996
20
235.22449999999998
10
-341.85319999999996
20
241.02469999999997
10
-341.05240000000003
20
241.02469999999997
10
-341.05240000000003
20
244.12529999999998
10
-341.85319999999996
20
244.12529999999998
10
-341.85319999999996
20
245.12439999999998
10
-355.85250000000002
20
245.12439999999998
10
-355.85250000000002
20
244.12529999999998
10
-356.65189999999996
20
244.12529999999998
10
-356.65189999999996
20
241.02469999999997
10
-355.85250000000002
20
241.02469999999997
0
LWPOLYLINE
5
121
100
AcDbEntity
8
0
100
AcDbPolyline
90
20
70
1
43
0.0
10
-532.35300000000007
20
245.12439999999998
10
-546.35300000000007
20
245.12439999999998
10
-546.35300000000007
20
244.12529999999998
10
-547.15199999999993
20
244.12529999999998
10
-547.15199999999993
20
241.02469999999997
10
-546.35300000000007
20
241.02469999999997
10
-546.35300000000007
20
235.22449999999998
10
-547.15199999999993
20
235.22449999999998
10
-547.15199999999993
20
232.12529999999998
10
-546.35300000000007
20
232.12529999999998
10
-546.35300000000007
20
231.12499999999997
10
-532.35300000000007
20
231.12499999999997
10
-532.35300000000007
20
232.12529999999998
10
-531.55200000000002
20
232.12529999999998
10
-531.55200000000002
20
235.22449999999998
10
-532.35300000000007
20
235.22449999999998
10
-532.35300000000007
20
241.02469999999997
10
-531.55200000000002
20
241.02469999999997
10
-531.55200000000002
20
244.12529999999998
10
-532.35300000000007
20
244.12529999999998
0
LWPOLYLINE
5
122
100
AcDbEntity
8
0
100
AcDbPolyline
90
20
70
1
43
0.0
10
-422.52800000000002
20
226.07419999999996
10
-422.52800000000002
20
225.0752
10
-423.327
20
225.0752
10
-423.327
20
221.97460000000001
10
-422.52800000000002
20
221.97460000000001
10
-422.52800000000002
20
216.17459999999997
10
-423.327
20
216.17459999999997
10
-423.327
20
213.0754
10
-422.52800000000002
20
213.0754
10
-422.52800000000002
20
212.07490000000001
10
-408.52800000000002
20
212.07490000000001
10
-408.52800000000002
20
213.0754
10
-407.72699999999998
20
213.0754
10
-407.72699999999998
20
216.17459999999997
10
-408.52800000000002
20
216.17459999999997
10
-408.52800000000002
20
221.97460000000001
10
-407.72699999999998
20
221.97460000000001
10
-407.72699999999998
20
225.0752
10
-408.52800000000002
20
225.0752
10
-408.52800000000002
20
226.07419999999996
0
LWPOLYLINE
5
123
100
AcDbEntity
8
0
100
AcDbPolyline
90
20
70
1
43
0.0
10
-305.76940000000002
20
250.17489999999998
10
-291.76990999999998
20
250.17489999999998
10
-291.76990999999998
20
251.17529999999999
10
-290.96927999999997
20
251.17529999999999
10
-290.96927999999997
20
254.27319999999997
10
-291.76990999999998
20
254.27319999999997
10
-291.76990999999998
20
260.07470999999998
10
-290.96927999999997
20
260.07470999999998
10
-290.96927999999997
20
263.17526999999995
10
-291.76990999999998
20
263.17526999999995
10
-291.76990999999998
20
264.17435999999998
10
-305.76940000000002
20
264.17435999999998
10
-305.76940000000002
20
263.17526999999995
10
-306.56999999999999
20
263.17526999999995
10
-306.56999999999999
20
260.07470999999998
10
-305.76940000000002
20
260.07470999999998
10
-305.76940000000002
20
254.27319999999997
10
-306.56999999999999
20
254.27319999999997
10
-306.56999999999999
20
251.17529999999999
10
-305.76940000000002
20
251.17529999999999
0
LWPOLYLINE
5
124
100
AcDbEntity
8
0
100
AcDbPolyline
90
20
70
1
43
0.0
10
-361.41579999999999
20
197.12459999999999
10
-361.41579999999999
20
194.02539999999999
10
-360.61499999999995
20
194.02539999999999
10
-360.61499999999995
20
193.0249
10
-346.61569999999995
20
193.0249
10
-346.61569999999995
20
194.02539999999999
10
-345.81490000000002
20
194.02539999999999
10
-345.81490000000002
20
197.12459999999999
10
-346.61569999999995
20
197.12459999999999
10
-346.61569999999995
20
202.9246
10
-345.81490000000002
20
202.9246
10
-345.81490000000002
20
206.02519999999998
10
-346.61569999999995
20
206.02519999999998
10
-346.61569999999995
20
207.02419999999995
10
-360.61499999999995
20
207.02419999999995
10
-360.61499999999995
20
206.02519999999998
10
-361.41579999999999
20
206.02519999999998
10
-361.41579999999999
20
202.9246
10
-360.61499999999995
20
202.9246
10
-360.61499999999995
20
197.12459999999999
0
LWPOLYLINE
5
125
100
AcDbEntity
8
0
100
AcDbPolyline
90
20
70
1
43
0.0
10
-347.12690000000003
20
263.17526999999995
10
-347.12690000000003
20
260.07470999999998
10
-346.32749999999999
20
260.07470999999998
10
-346.32749999999999
20
254.27319999999997
10
-347.12690000000003
20
254.27319999999997
10
-347.12690000000003
20
251.17529999999999
10
-346.32749999999999
20
251.17529999999999
10
-346.32749999999999
20
250.17489999999998
10
-332.32819999999998
20
250.17489999999998
10
-332.32819999999998
20
251.17529999999999
10
-331.5274
20
251.17529999999999
10
-331.5274
20
254.27319999999997
10
-332.32819999999998
20
254.27319999999997
10
-332.32819999999998
20
260.07470999999998
10
-331.5274
20
260.07470999999998
10
-331.5274
20
263.17526999999995
10
-332.32819999999998
20
263.17526999999995
10
-332.32819999999998
20
264.17435999999998
10
-346.32749999999999
20
264.17435999999998
10
-346.32749999999999
20
263.17526999999995
0
CIRCLE
5
126
100
AcDbEntity
8
0
100
AcDbCircle
10
-473.86875000000003
20
269.08125000000001
30
0
40
1.3499999999999801
210
0
220
-0
230
1
0
CIRCLE
5
127
100
AcDbEntity
8
0
100
AcDbCircle
10
-565.546875
20
269.08125000000001
30
0
40
1.3499999999999801
210
0
220
-0
230
1
0
CIRCLE
5
128
100
AcDbEntity
8
0
100
AcDbCircle
10
-289.32187499999998
20
269.08125000000001
30
0
40
1.3500000000000156
210
0
220
-0
230
1
0
CIRCLE
5
129
100
AcDbEntity
8
0
100
AcDbCircle
10
-289.32187499999998
20
188.11875000000001
30
0
40
1.3500000000000156
210
0
220
-0
230
1
0
CIRCLE
5
130
100
AcDbEntity
8
0
100
AcDbCircle
10
-473.86875000000003
20
188.11875000000001
30
0
40
1.3499999999999801
210
0
220
-0
230
1
0
CIRCLE
5
131
100
AcDbEntity
8
0
100
AcDbCircle
10
-379.80937500000005
20
188.11875000000001
30
0
40
1.3499999999999801
210
0
220
-0
230
1
0
CIRCLE
5
132
100
AcDbEntity
8
0
100
AcDbCircle
10
-565.546875
20
188.11875000000001
30
0
40
1.3499999999999801
210
0
220
-0
230
1
0
CIRCLE
5
133
100
AcDbEntity
8
0
100
AcDbCircle
10
-379.80937500000005
20
269.08125000000001
30
0
40
1.3499999999999801
210
0
220
-0
230
1
0
LWPOLYLINE
5
134
100
AcDbEntity
8
0
100
AcDbPolyline
90
20
70
1
43
0.0
10
-383.91490000000005
20
202.9246
10
-383.91490000000005
20
206.02519999999998
10
-384.71429999999998
20
206.02519999999998
10
-384.71429999999998
20
207.02419999999995
10
-398.71499999999997
20
207.02419999999995
10
-398.71499999999997
20
206.02519999999998
10
-399.51400000000001
20
206.02519999999998
10
-399.51400000000001
20
202.9246
10
-398.71499999999997
20
202.9246
10
-398.71499999999997
20
197.12459999999999
10
-399.51400000000001
20
197.12459999999999
10
-399.51400000000001
20
194.02539999999999
10
-398.71499999999997
20
194.02539999999999
10
-398.71499999999997
20
193.0249
10
-384.71429999999998
20
193.0249
10
-384.71429999999998
20
194.02539999999999
10
-383.91490000000005
20
194.02539999999999
10
-383.91490000000005
20
197.12459999999999
10
-384.71429999999998
20
197.12459999999999
10
-384.71429999999998
20
202.9246
0
CIRCLE
5
135
100
AcDbEntity
8
0
100
AcDbCircle
10
-271.69890104627081
20
256.45506005281129
30
0
40
5.3000000000000007
210
0
220
-0
230
1
0
LWPOLYLINE
5
136
100
AcDbEntity
8
0
100
AcDbPolyline
90
20
70
1
43
0.0
10
-380.46439999999996
20
206.02519999999998
10
-380.46439999999996
20
202.9246
10
-379.66499999999996
20
202.9246
10
-379.66499999999996
20
197.12459999999999
10
-380.46439999999996
20
197.12459999999999
10
-380.46439999999996
20
194.02539999999999
10
-379.66499999999996
20
194.02539999999999
10
-379.66499999999996
20
193.0249
10
-365.66570000000002
20
193.0249
10
-365.66570000000002
20
194.02539999999999
10
-364.86490000000003
20
194.02539999999999
10
-364.86490000000003
20
197.12459999999999
10
-365.66570000000002
20
197.12459999999999
10
-365.66570000000002
20
202.9246
10
-364.86490000000003
20
202.9246
10
-364.86490000000003
20
206.02519999999998
10
-365.66570000000002
20
206.02519999999998
10
-365.66570000000002
20
207.02419999999995
10
-379.66499999999996
20
207.02419999999995
10
-379.66499999999996
20
206.02519999999998
0
LWPOLYLINE
5
137
100
AcDbEntity
8
0
100
AcDbPolyline
90
20
70
1
43
0.0
10
-402.96500000000003
20
194.02539999999999
10
-402.96500000000003
20
197.12459999999999
10
-403.76400000000001
20
197.12459999999999
10
-403.76400000000001
20
202.9246
10
-402.96500000000003
20
202.9246
10
-402.96500000000003
20
206.02519999999998
10
-403.76400000000001
20
206.02519999999998
10
-403.76400000000001
20
207.02419999999995
10
-417.76499999999999
20
207.02419999999995
10
-417.76499999999999
20
206.02519999999998
10
-418.56600000000003
20
206.02519999999998
10
-418.56600000000003
20
202.9246
10
-417.76499999999999
20
202.9246
10
-417.76499999999999
20
197.12459999999999
10
-418.56600000000003
20
197.12459999999999
10
-418.56600000000003
20
194.02539999999999
10
-417.76499999999999
20
194.02539999999999
10
-417.76499999999999
20
193.0249
10
-403.76400000000001
20
193.0249
10
-403.76400000000001
20
194.02539999999999
0
LWPOLYLINE
5
138
100
AcDbEntity
8
0
100
AcDbPolyline
90
20
70
1
43
0.0
10
-422.01499999999999
20
202.9246
10
-422.01499999999999
20
206.02519999999998
10
-422.81599999999997
20
206.02519999999998
10
-422.81599999999997
20
207.02419999999995
10
-436.815
20
207.02419999999995
10
-436.815
20
206.02519999999998
10
-437.61599999999999
20
206.02519999999998
10
-437.61599999999999
20
202.9246
10
-436.815
20
202.9246
10
-436.815
20
197.12459999999999
10
-437.61599999999999
20
197.12459999999999
10
-437.61599999999999
20
194.02539999999999
10
-436.815
20
194.02539999999999
10
-436.815
20
193.0249
10
-422.81599999999997
20
193.0249
10
-422.81599999999997
20
194.02539999999999
10
-422.01499999999999
20
194.02539999999999
10
-422.01499999999999
20
197.12459999999999
10
-422.81599999999997
20
197.12459999999999
10
-422.81599999999997
20
202.9246
0
LWPOLYLINE
5
139
100
AcDbEntity
8
0
100
AcDbPolyline
90
20
70
1
43
0.0
10
-441.06499999999994
20
197.12459999999999
10
-441.86599999999999
20
197.12459999999999
10
-441.86599999999999
20
202.9246
10
-441.06499999999994
20
202.9246
10
-441.06499999999994
20
206.02519999999998
10
-441.86599999999999
20
206.02519999999998
10
-441.86599999999999
20
207.02419999999995
10
-455.86500000000001
20
207.02419999999995
10
-455.86500000000001
20
206.02519999999998
10
-456.66600000000005
20
206.02519999999998
10
-456.66600000000005
20
202.9246
10
-455.86500000000001
20
202.9246
10
-455.86500000000001
20
197.12459999999999
10
-456.66600000000005
20
197.12459999999999
10
-456.66600000000005
20
194.02539999999999
10
-455.86500000000001
20
194.02539999999999
10
-455.86500000000001
20
193.0249
10
-441.86599999999999
20
193.0249
10
-441.86599999999999
20
194.02539999999999
10
-441.06499999999994
20
194.02539999999999
0
LWPOLYLINE
5
140
100
AcDbEntity
8
0
100
AcDbPolyline
90
20
70
1
43
0.0
10
-493.45200000000006
20
232.12529999999998
10
-493.45200000000006
20
235.22449999999998
10
-494.25300000000004
20
235.22449999999998
10
-494.25300000000004
20
241.02469999999997
10
-493.45200000000006
20
241.02469999999997
10
-493.45200000000006
20
244.12529999999998
10
-494.25300000000004
20
244.12529999999998
10
-494.25300000000004
20
245.12439999999998
10
-508.25299999999999
20
245.12439999999998
10
-508.25299999999999
20
244.12529999999998
10
-509.05200000000002
20
244.12529999999998
10
-509.05200000000002
20
241.02469999999997
10
-508.25299999999999
20
241.02469999999997
10
-508.25299999999999
20
235.22449999999998
10
-509.05200000000002
20
235.22449999999998
10
-509.05200000000002
20
232.12529999999998
10
-508.25299999999999
20
232.12529999999998
10
-508.25299999999999
20
231.12499999999997
10
-494.25300000000004
20
231.12499999999997
10
-494.25300000000004
20
232.12529999999998
0
LWPOLYLINE
5
141
100
AcDbEntity
8
0
100
AcDbPolyline
90
20
70
1
43
0.0
10
-475.20299999999997
20
241.02469999999997
10
-474.40199999999999
20
241.02469999999997
10
-474.40199999999999
20
244.12529999999998
10
-475.20299999999997
20
244.12529999999998
10
-475.20299999999997
20
245.12439999999998
10
-489.20299999999997
20
245.12439999999998
10
-489.20299999999997
20
244.12529999999998
10
-490.00200000000001
20
244.12529999999998
10
-490.00200000000001
20
241.02469999999997
10
-489.20299999999997
20
241.02469999999997
10
-489.20299999999997
20
235.22449999999998
10
-490.00200000000001
20
235.22449999999998
10
-490.00200000000001
20
232.12529999999998
10
-489.20299999999997
20
232.12529999999998
10
-489.20299999999997
20
231.12499999999997
10
-475.20299999999997
20
231.12499999999997
10
-475.20299999999997
20
232.12529999999998
10
-474.40199999999999
20
232.12529999999998
10
-474.40199999999999
20
235.22449999999998
10
-475.20299999999997
20
235.22449999999998
0
LWPOLYLINE
5
142
100
AcDbEntity
8
0
100
AcDbPolyline
90
20
70
1
43
0.0
10
-470.952
20
235.22449999999998
10
-470.952
20
232.12529999999998
10
-470.15300000000002
20
232.12529999999998
10
-470.15300000000002
20
231.12499999999997
10
-456.15300000000002
20
231.12499999999997
10
-456.15300000000002
20
232.12529999999998
10
-455.35199999999998
20
232.12529999999998
10
-455.35199999999998
20
235.22449999999998
10
-456.15300000000002
20
235.22449999999998
10
-456.15300000000002
20
241.02469999999997
10
-455.35199999999998
20
241.02469999999997
10
-455.35199999999998
20
244.12529999999998
10
-456.15300000000002
20
244.12529999999998
10
-456.15300000000002
20
245.12439999999998
10
-470.15300000000002
20
245.12439999999998
10
-470.15300000000002
20
244.12529999999998
10
-470.952
20
244.12529999999998
10
-470.952
20
241.02469999999997
10
-470.15300000000002
20
241.02469999999997
10
-470.15300000000002
20
235.22449999999998
0
LWPOLYLINE
5
143
100
AcDbEntity
8
0
100
AcDbPolyline
90
20
70
1
43
0.0
10
-436.30200000000002
20
241.02469999999997
10
-436.30200000000002
20
244.12529999999998
10
-437.10300000000007
20
244.12529999999998
10
-437.10300000000007
20
245.12439999999998
10
-451.10300000000001
20
245.12439999999998
10
-451.10300000000001
20
244.12529999999998
10
-451.90199999999999
20
244.12529999999998
10
-451.90199999999999
20
241.02469999999997
10
-451.10300000000001
20
241.02469999999997
10
-451.10300000000001
20
235.22449999999998
10
-451.90199999999999
20
235.22449999999998
10
-451.90199999999999
20
232.12529999999998
10
-451.10300000000001
20
232.12529999999998
10
-451.10300000000001
20
231.12499999999997
10
-437.10300000000007
20
231.12499999999997
10
-437.10300000000007
20
232.12529999999998
10
-436.30200000000002
20
232.12529999999998
10
-436.30200000000002
20
235.22449999999998
10
-437.10300000000007
20
235.22449999999998
10
-437.10300000000007
20
241.02469999999997
0
LWPOLYLINE
5
144
100
AcDbEntity
8
0
100
AcDbPolyline
90
20
70
1
43
0.0
10
-432.053
20
245.12439999999998
10
-432.053
20
244.12529999999998
10
-432.85200000000003
20
244.12529999999998
10
-432.85200000000003
20
241.02469999999997
10
-432.053
20
241.02469999999997
10
-432.053
20
235.22449999999998
10
-432.85200000000003
20
235.22449999999998
10
-432.85200000000003
20
232.12529999999998
10
-432.053
20
232.12529999999998
10
-432.053
20
231.12499999999997
10
-418.053
20
231.12499999999997
10
-418.053
20
232.12529999999998
10
-417.25200000000001
20
232.12529999999998
10
-417.25200000000001
20
235.22449999999998
10
-418.053
20
235.22449999999998
10
-418.053
20
241.02469999999997
10
-417.25200000000001
20
241.02469999999997
10
-417.25200000000001
20
244.12529999999998
10
-418.053
20
244.12529999999998
10
-418.053
20
245.12439999999998
0
LWPOLYLINE
5
145
100
AcDbEntity
8
0
100
AcDbPolyline
90
20
70
1
43
0.0
10
-296.60802999999999
20
232.12529999999998
10
-295.80877999999996
20
232.12529999999998
10
-295.80877999999996
20
235.22449999999998
10
-296.60802999999999
20
235.22449999999998
10
-296.60802999999999
20
241.02469999999997
10
-295.80877999999996
20
241.02469999999997
10
-295.80877999999996
20
244.12529999999998
10
-296.60802999999999
20
244.12529999999998
10
-296.60802999999999
20
245.12439999999998
10
-310.60890000000001
20
245.12439999999998
10
-310.60890000000001
20
244.12529999999998
10
-311.40819999999997
20
244.12529999999998
10
-311.40819999999997
20
241.02469999999997
10
-310.60890000000001
20
241.02469999999997
10
-310.60890000000001
20
235.22449999999998
10
-311.40819999999997
20
235.22449999999998
10
-311.40819999999997
20
232.12529999999998
10
-310.60890000000001
20
232.12529999999998
10
-310.60890000000001
20
231.12499999999997
10
-296.60802999999999
20
231.12499999999997
0
LWPOLYLINE
5
146
100
AcDbEntity
8
0
100
AcDbPolyline
90
20
70
1
43
0.0
10
-565.40300000000002
20
221.97460000000001
10
-565.40300000000002
20
216.17459999999997
10
-566.202
20
216.17459999999997
10
-566.202
20
213.0754
10
-565.40300000000002
20
213.0754
10
-565.40300000000002
20
212.07490000000001
10
-551.40300000000002
20
212.07490000000001
10
-551.40300000000002
20
213.0754
10
-550.60199999999998
20
213.0754
10
-550.60199999999998
20
216.17459999999997
10
-551.40300000000002
20
216.17459999999997
10
-551.40300000000002
20
221.97460000000001
10
-550.60199999999998
20
221.97460000000001
10
-550.60199999999998
20
225.0752
10
-551.40300000000002
20
225.0752
10
-551.40300000000002
20
226.07419999999996
10
-565.40300000000002
20
226.07419999999996
10
-565.40300000000002
20
225.0752
10
-566.202
20
225.0752
10
-566.202
20
221.97460000000001
0
LWPOLYLINE
5
147
100
AcDbEntity
8
0
100
AcDbPolyline
90
20
70
1
43
0.0
10
-494.76600000000008
20
194.02539999999999
10
-493.96500000000003
20
194.02539999999999
10
-493.96500000000003
20
193.0249
10
-479.96600000000001
20
193.0249
10
-479.96600000000001
20
194.02539999999999
10
-479.16499999999996
20
194.02539999999999
10
-479.16499999999996
20
197.12459999999999
10
-479.96600000000001
20
197.12459999999999
10
-479.96600000000001
20
202.9246
10
-479.16499999999996
20
202.9246
10
-479.16499999999996
20
206.02519999999998
10
-479.96600000000001
20
206.02519999999998
10
-479.96600000000001
20
207.02419999999995
10
-493.96500000000003
20
207.02419999999995
10
-493.96500000000003
20
206.02519999999998
10
-494.76600000000008
20
206.02519999999998
10
-494.76600000000008
20
202.9246
10
-493.96500000000003
20
202.9246
10
-493.96500000000003
20
197.12459999999999
10
-494.76600000000008
20
197.12459999999999
0
LWPOLYLINE
5
148
100
AcDbEntity
8
0
100
AcDbPolyline
90
20
70
1
43
0.0
10
-460.916
20
194.02539999999999
10
-460.11500000000001
20
194.02539999999999
10
-460.11500000000001
20
197.12459999999999
10
-460.916
20
197.12459999999999
10
-460.916
20
202.9246
10
-460.11500000000001
20
202.9246
10
-460.11500000000001
20
206.02519999999998
10
-460.916
20
206.02519999999998
10
-460.916
20
207.02419999999995
10
-474.91500000000002
20
207.02419999999995
10
-474.91500000000002
20
206.02519999999998
10
-475.71600000000001
20
206.02519999999998
10
-475.71600000000001
20
202.9246
10
-474.91500000000002
20
202.9246
10
-474.91500000000002
20
197.12459999999999
10
-475.71600000000001
20
197.12459999999999
10
-475.71600000000001
20
194.02539999999999
10
-474.91500000000002
20
194.02539999999999
10
-474.91500000000002
20
193.0249
10
-460.916
20
193.0249
0
LWPOLYLINE
5
149
100
AcDbEntity
8
0
100
AcDbPolyline
90
20
70
1
43
0.0
10
-513.0150000000001
20
207.02419999999995
10
-513.0150000000001
20
206.02519999999998
10
-513.81600000000003
20
206.02519999999998
10
-513.81600000000003
20
202.9246
10
-513.0150000000001
20
202.9246
10
-513.0150000000001
20
197.12459999999999
10
-513.81600000000003
20
197.12459999999999
10
-513.81600000000003
20
194.02539999999999
10
-513.0150000000001
20
194.02539999999999
10
-513.0150000000001
20
193.0249
10
-499.01600000000002
20
193.0249
10
-499.01600000000002
20
194.02539999999999
10
-498.21500000000003
20
194.02539999999999
10
-498.21500000000003
20
197.12459999999999
10
-499.01600000000002
20
197.12459999999999
10
-499.01600000000002
20
202.9246
10
-498.21500000000003
20
202.9246
10
-498.21500000000003
20
206.02519999999998
10
-499.01600000000002
20
206.02519999999998
10
-499.01600000000002
20
207.02419999999995
0
LWPOLYLINE
5
150
100
AcDbEntity
8
0
100
AcDbPolyline
90
20
70
1
43
0.0
10
-323.31580000000002
20
206.02519999999998
10
-323.31580000000002
20
202.9246
10
-322.51499999999999
20
202.9246
10
-322.51499999999999
20
197.12459999999999
10
-323.31580000000002
20
197.12459999999999
10
-323.31580000000002
20
194.02539999999999
10
-322.51499999999999
20
194.02539999999999
10
-322.51499999999999
20
193.0249
10
-308.51569999999998
20
193.0249
10
-308.51569999999998
20
194.02539999999999
10
-307.71499999999997
20
194.02539999999999
10
-307.71499999999997
20
197.12459999999999
10
-308.51569999999998
20
197.12459999999999
10
-308.51569999999998
20
202.9246
10
-307.71499999999997
20
202.9246
10
-307.71499999999997
20
206.02519999999998
10
-308.51569999999998
20
206.02519999999998
10
-308.51569999999998
20
207.02419999999995
10
-322.51499999999999
20
207.02419999999995
10
-322.51499999999999
20
206.02519999999998
0
LWPOLYLINE
5
151
100
AcDbEntity
8
0
100
AcDbPolyline
90
20
70
1
43
0.0
10
-304.26580000000001
20
197.12459999999999
10
-304.26580000000001
20
194.02539999999999
10
-303.46519999999998
20
194.02539999999999
10
-303.46519999999998
20
193.0249
10
-289.46564999999998
20
193.0249
10
-289.46564999999998
20
194.02539999999999
10
-288.66501
20
194.02539999999999
10
-288.66501
20
197.12459999999999
10
-289.46564999999998
20
197.12459999999999
10
-289.46564999999998
20
202.9246
10
-288.66501
20
202.9246
10
-288.66501
20
206.02519999999998
10
-289.46564999999998
20
206.02519999999998
10
-289.46564999999998
20
207.02419999999995
10
-303.46519999999998
20
207.02419999999995
10
-303.46519999999998
20
206.02519999999998
10
-304.26580000000001
20
206.02519999999998
10
-304.26580000000001
20
202.9246
10
-303.46519999999998
20
202.9246
10
-303.46519999999998
20
197.12459999999999
0
LWPOLYLINE
5
152
100
AcDbEntity
8
0
100
AcDbPolyline
90
20
70
1
43
0.0
10
-483.92700000000002
20
213.0754
10
-483.92700000000002
20
216.17459999999997
10
-484.72800000000007
20
216.17459999999997
10
-484.72800000000007
20
221.97460000000001
10
-483.92700000000002
20
221.97460000000001
10
-483.92700000000002
20
225.0752
10
-484.72800000000007
20
225.0752
10
-484.72800000000007
20
226.07419999999996
10
-498.72799999999995
20
226.07419999999996
10
-498.72799999999995
20
225.0752
10
-499.52699999999999
20
225.0752
10
-499.52699999999999
20
221.97460000000001
10
-498.72799999999995
20
221.97460000000001
10
-498.72799999999995
20
216.17459999999997
10
-499.52699999999999
20
216.17459999999997
10
-499.52699999999999
20
213.0754
10
-498.72799999999995
20
213.0754
10
-498.72799999999995
20
212.07490000000001
10
-484.72800000000007
20
212.07490000000001
10
-484.72800000000007
20
213.0754
0
LWPOLYLINE
5
153
100
AcDbEntity
8
0
100
AcDbPolyline
90
20
70
1
43
0.0
10
-517.77800000000002
20
226.07419999999996
10
-517.77800000000002
20
225.0752
10
-518.577
20
225.0752
10
-518.577
20
221.97460000000001
10
-517.77800000000002
20
221.97460000000001
10
-517.77800000000002
20
216.17459999999997
10
-518.577
20
216.17459999999997
10
-518.577
20
213.0754
10
-517.77800000000002
20
213.0754
10
-517.77800000000002
20
212.07490000000001
10
-503.77800000000008
20
212.07490000000001
10
-503.77800000000008
20
213.0754
10
-502.97699999999998
20
213.0754
10
-502.97699999999998
20
216.17459999999997
10
-503.77800000000008
20
216.17459999999997
10
-503.77800000000008
20
221.97460000000001
10
-502.97699999999998
20
221.97460000000001
10
-502.97699999999998
20
225.0752
10
-503.77800000000008
20
225.0752
10
-503.77800000000008
20
226.07419999999996
0
LWPOLYLINE
5
154
100
AcDbEntity
8
0
100
AcDbPolyline
90
20
70
1
43
0.0
10
-479.678
20
225.0752
10
-480.47699999999998
20
225.0752
10
-480.47699999999998
20
221.97460000000001
10
-479.678
20
221.97460000000001
10
-479.678
20
216.17459999999997
10
-480.47699999999998
20
216.17459999999997
10
-480.47699999999998
20
213.0754
10
-479.678
20
213.0754
10
-479.678
20
212.07490000000001
10
-465.678
20
212.07490000000001
10
-465.678
20
213.0754
10
-464.87699999999995
20
213.0754
10
-464.87699999999995
20
216.17459999999997
10
-465.678
20
216.17459999999997
10
-465.678
20
221.97460000000001
10
-464.87699999999995
20
221.97460000000001
10
-464.87699999999995
20
225.0752
10
-465.678
20
225.0752
10
-465.678
20
226.07419999999996
10
-479.678
20
226.07419999999996
0
LWPOLYLINE
5
155
100
AcDbEntity
8
0
100
AcDbPolyline
90
20
70
1
43
0.0
10
-526.78999999999996
20
221.97460000000001
10
-526.78999999999996
20
225.0752
10
-527.59100000000001
20
225.0752
10
-527.59100000000001
20
226.07419999999996
10
-541.59000000000003
20
226.07419999999996
10
-541.59000000000003
20
225.0752
10
-542.39099999999996
20
225.0752
10
-542.39099999999996
20
221.97460000000001
10
-541.59000000000003
20
221.97460000000001
10
-541.59000000000003
20
216.17459999999997
10
-542.39099999999996
20
216.17459999999997
10
-542.39099999999996
20
213.0754
10
-541.59000000000003
20
213.0754
10
-541.59000000000003
20
212.07490000000001
10
-527.59100000000001
20
212.07490000000001
10
-527.59100000000001
20
213.0754
10
-526.78999999999996
20
213.0754
10
-526.78999999999996
20
216.17459999999997
10
-527.59100000000001
20
216.17459999999997
10
-527.59100000000001
20
221.97460000000001
0
LWPOLYLINE
5
156
100
AcDbEntity
8
0
100
AcDbPolyline
90
20
70
1
43
0.0
10
-528.10199999999998
20
232.12529999999998
10
-527.303
20
232.12529999999998
10
-527.303
20
231.12499999999997
10
-513.303
20
231.12499999999997
10
-513.303
20
232.12529999999998
10
-512.50199999999995
20
232.12529999999998
10
-512.50199999999995
20
235.22449999999998
10
-513.303
20
235.22449999999998
10
-513.303
20
241.02469999999997
10
-512.50199999999995
20
241.02469999999997
10
-512.50199999999995
20
244.12529999999998
10
-513.303
20
244.12529999999998
10
-513.303
20
245.12439999999998
10
-527.303
20
245.12439999999998
10
-527.303
20
244.12529999999998
10
-528.10199999999998
20
244.12529999999998
10
-528.10199999999998
20
241.02469999999997
10
-527.303
20
241.02469999999997
10
-527.303
20
235.22449999999998
10
-528.10199999999998
20
235.22449999999998
0
LWPOLYLINE
5
157
100
AcDbEntity
8
0
100
AcDbPolyline
90
20
70
1
43
0.0
10
-369.62739999999997
20
213.0754
10
-369.62739999999997
20
216.17459999999997
10
-370.4282
20
216.17459999999997
10
-370.4282
20
221.97460000000001
10
-369.62739999999997
20
221.97460000000001
10
-369.62739999999997
20
225.0752
10
-370.4282
20
225.0752
10
-370.4282
20
226.07419999999996
10
-384.42750000000001
20
226.07419999999996
10
-384.42750000000001
20
225.0752
10
-385.2269
20
225.0752
10
-385.2269
20
221.97460000000001
10
-384.42750000000001
20
221.97460000000001
10
-384.42750000000001
20
216.17459999999997
10
-385.2269
20
216.17459999999997
10
-385.2269
20
213.0754
10
-384.42750000000001
20
213.0754
10
-384.42750000000001
20
212.07490000000001
10
-370.4282
20
212.07490000000001
10
-370.4282
20
213.0754
0
LWPOLYLINE
5
158
100
AcDbEntity
8
0
100
AcDbPolyline
90
20
70
1
43
0.0
10
-546.35300000000007
20
260.07470999999998
10
-546.35300000000007
20
254.27319999999997
10
-547.15199999999993
20
254.27319999999997
10
-547.15199999999993
20
251.17529999999999
10
-546.35300000000007
20
251.17529999999999
10
-546.35300000000007
20
250.17489999999998
10
-532.35300000000007
20
250.17489999999998
10
-532.35300000000007
20
251.17529999999999
10
-531.55200000000002
20
251.17529999999999
10
-531.55200000000002
20
254.27319999999997
10
-532.35300000000007
20
254.27319999999997
10
-532.35300000000007
20
260.07470999999998
10
-531.55200000000002
20
260.07470999999998
10
-531.55200000000002
20
263.17526999999995
10
-532.35300000000007
20
263.17526999999995
10
-532.35300000000007
20
264.17435999999998
10
-546.35300000000007
20
264.17435999999998
10
-546.35300000000007
20
263.17526999999995
10
-547.15199999999993
20
263.17526999999995
10
-547.15199999999993
20
260.07470999999998
0
LWPOLYLINE
5
159
100
AcDbEntity
8
0
100
AcDbPolyline
90
20
70
1
43
0.0
10
-347.12690000000003
20
216.17459999999997
10
-347.12690000000003
20
213.0754
10
-346.32749999999999
20
213.0754
10
-346.32749999999999
20
212.07490000000001
10
-332.32819999999998
20
212.07490000000001
10
-332.32819999999998
20
213.0754
10
-331.5274
20
213.0754
10
-331.5274
20
216.17459999999997
10
-332.32819999999998
20
216.17459999999997
10
-332.32819999999998
20
221.97460000000001
10
-331.5274
20
221.97460000000001
10
-331.5274
20
225.0752
10
-332.32819999999998
20
225.0752
10
-332.32819999999998
20
226.07419999999996
10
-346.32749999999999
20
226.07419999999996
10
-346.32749999999999
20
225.0752
10
-347.12690000000003
20
225.0752
10
-347.12690000000003
20
221.97460000000001
10
-346.32749999999999
20
221.97460000000001
10
-346.32749999999999
20
216.17459999999997
0
LWPOLYLINE
5
160
100
AcDbEntity
8
0
100
AcDbPolyline
90
20
70
1
43
0.0
10
-351.37819999999999
20
221.97460000000001
10
-350.57740000000001
20
221.97460000000001
10
-350.57740000000001
20
225.0752
10
-351.37819999999999
20
225.0752
10
-351.37819999999999
20
226.07419999999996
10
-365.37750000000005
20
226.07419999999996
10
-365.37750000000005
20
225.0752
10
-366.17689999999993
20
225.0752
10
-366.17689999999993
20
221.97460000000001
10
-365.37750000000005
20
221.97460000000001
10
-365.37750000000005
20
216.17459999999997
10
-366.17689999999993
20
216.17459999999997
10
-366.17689999999993
20
213.0754
10
-365.37750000000005
20
213.0754
10
-365.37750000000005
20
212.07490000000001
10
-351.37819999999999
20
212.07490000000001
10
-351.37819999999999
20
213.0754
10
-350.57740000000001
20
213.0754
10
-350.57740000000001
20
216.17459999999997
10
-351.37819999999999
20
216.17459999999997
0
LWPOLYLINE
5
161
100
AcDbEntity
8
0
100
AcDbPolyline
90
20
70
1
43
0.0
10
-404.27700000000004
20
216.17459999999997
10
-404.27700000000004
20
213.0754
10
-403.47800000000001
20
213.0754
10
-403.47800000000001
20
212.07490000000001
10
-389.47800000000001
20
212.07490000000001
10
-389.47800000000001
20
213.0754
10
-388.67700000000002
20
213.0754
10
-388.67700000000002
20
216.17459999999997
10
-389.47800000000001
20
216.17459999999997
10
-389.47800000000001
20
221.97460000000001
10
-388.67700000000002
20
221.97460000000001
10
-388.67700000000002
20
225.0752
10
-389.47800000000001
20
225.0752
10
-389.47800000000001
20
226.07419999999996
10
-403.47800000000001
20
226.07419999999996
10
-403.47800000000001
20
225.0752
10
-404.27700000000004
20
225.0752
10
-404.27700000000004
20
221.97460000000001
10
-403.47800000000001
20
221.97460000000001
10
-403.47800000000001
20
216.17459999999997
0
LWPOLYLINE
5
162
100
AcDbEntity
8
0
100
AcDbPolyline
90
20
70
1
43
0.0
10
-470.952
20
263.17526999999995
10
-470.952
20
260.07470999999998
10
-470.15300000000002
20
260.07470999999998
10
-470.15300000000002
20
254.27319999999997
10
-470.952
20
254.27319999999997
10
-470.952
20
251.17529999999999
10
-470.15300000000002
20
251.17529999999999
10
-470.15300000000002
20
250.17489999999998
10
-456.15300000000002
20
250.17489999999998
10
-456.15300000000002
20
251.17529999999999
10
-455.35199999999998
20
251.17529999999999
10
-455.35199999999998
20
254.27319999999997
10
-456.15300000000002
20
254.27319999999997
10
-456.15300000000002
20
260.07470999999998
10
-455.35199999999998
20
260.07470999999998
10
-455.35199999999998
20
263.17526999999995
10
-456.15300000000002
20
263.17526999999995
10
-456.15300000000002
20
264.17435999999998
10
-470.15300000000002
20
264.17435999999998
10
-470.15300000000002
20
263.17526999999995
0
LWPOLYLINE
5
163
100
AcDbEntity
8
0
100
AcDbPolyline
90
13
70
1
43
0.0
10
-259.8900000000001
20
178.53063221241916
10
-259.88999999999999
20
237.58727623391718
42
0.41421356237308815
10
-262.88999999999999
20
240.58727623391718
10
-280.37580431125025
20
240.58727623391718
42
0.41421356237309503
10
-283.37580431125025
20
237.58727623391718
10
-283.37580431125025
20
178.49999999999991
10
-567.92812500000002
20
178.49999999999991
42
-0.41421356237309243
10
-579.92812500000025
20
190.49999999999989
10
-579.92812500000025
20
266.7000000000001
42
-0.41421356237309503
10
-567.92812500000014
20
278.7000000000001
10
-260.74687499999993
20
278.70000000000005
42
-0.41421356237310114
10
-248.74687499999993
20
266.7000000000001
10
-248.7468749999999
20
190.49999999999989
42
-0.39343292097207749
0
ENDSEC
0
SECTION
2
OBJECTS
0
DICTIONARY
5
C
100
AcDbDictionary
3
ACAD_GROUP
350
D
3
ACAD_MLINESTYLE
350
17
0
DICTIONARY
5
D
100
AcDbDictionary
0
DICTIONARY
5
1A
330
C
100
AcDbDictionary
0
DICTIONARY
5
17
100
AcDbDictionary
0
ENDSEC
0
EOF
