G04 #@! TF.GenerationSoftware,KiCad,Pcbnew,(5.1.5)-3*
G04 #@! TF.CreationDate,2021-01-28T08:37:11+08:00*
G04 #@! TF.ProjectId,k54,6b35342e-6b69-4636-9164-5f7063625858,rev?*
G04 #@! TF.SameCoordinates,Original*
G04 #@! TF.FileFunction,Legend,Top*
G04 #@! TF.FilePolarity,Positive*
%FSLAX46Y46*%
G04 Gerber Fmt 4.6, Leading zero omitted, Abs format (unit mm)*
G04 Created by KiCad (PCBNEW (5.1.5)-3) date 2021-01-28 08:37:11*
%MOMM*%
%LPD*%
G04 APERTURE LIST*
%ADD10C,0.127000*%
%ADD11C,0.200000*%
%ADD12C,0.120000*%
%ADD13C,0.150000*%
%ADD14C,0.015000*%
G04 APERTURE END LIST*
D10*
X267615140Y-252940830D02*
X268180830Y-253506510D01*
X268180830Y-252375140D02*
X267615140Y-252940830D01*
X268746510Y-252940830D02*
X268180830Y-252375140D01*
X275110470Y-253209529D02*
G75*
G03X268746510Y-252940830I-3328445J-3334573D01*
G01*
X275110470Y-259870470D02*
G75*
G03X275110470Y-253209530I-3330470J3330470D01*
G01*
X268449530Y-259870470D02*
G75*
G03X275110470Y-259870470I3330470J3330470D01*
G01*
X268180830Y-253506510D02*
G75*
G03X268449530Y-259870470I3603771J-3035494D01*
G01*
D11*
X266600000Y-256540000D02*
G75*
G03X266600000Y-256540000I-100000J0D01*
G01*
D12*
X280610000Y-247590000D02*
X281940000Y-247590000D01*
X280610000Y-248920000D02*
X280610000Y-247590000D01*
X280610000Y-250190000D02*
X283270000Y-250190000D01*
X283270000Y-250190000D02*
X283270000Y-252790000D01*
X280610000Y-250190000D02*
X280610000Y-252790000D01*
X280610000Y-252790000D02*
X283270000Y-252790000D01*
X551418125Y-264160000D02*
X551418125Y-250190000D01*
X565388125Y-264160000D02*
X551418125Y-264160000D01*
X565388125Y-250190000D02*
X565388125Y-264160000D01*
X551418125Y-250190000D02*
X565388125Y-250190000D01*
X551418125Y-245110000D02*
X551418125Y-231140000D01*
X565388125Y-245110000D02*
X551418125Y-245110000D01*
X565388125Y-231140000D02*
X565388125Y-245110000D01*
X551418125Y-231140000D02*
X565388125Y-231140000D01*
X551418125Y-226060000D02*
X551418125Y-212090000D01*
X565388125Y-226060000D02*
X551418125Y-226060000D01*
X565388125Y-212090000D02*
X565388125Y-226060000D01*
X551418125Y-212090000D02*
X565388125Y-212090000D01*
X544274375Y-207010000D02*
X544274375Y-193040000D01*
X558244375Y-207010000D02*
X544274375Y-207010000D01*
X558244375Y-193040000D02*
X558244375Y-207010000D01*
X544274375Y-193040000D02*
X558244375Y-193040000D01*
X532368125Y-264160000D02*
X532368125Y-250190000D01*
X546338125Y-264160000D02*
X532368125Y-264160000D01*
X546338125Y-250190000D02*
X546338125Y-264160000D01*
X532368125Y-250190000D02*
X546338125Y-250190000D01*
X532368125Y-245110000D02*
X532368125Y-231140000D01*
X546338125Y-245110000D02*
X532368125Y-245110000D01*
X546338125Y-231140000D02*
X546338125Y-245110000D01*
X532368125Y-231140000D02*
X546338125Y-231140000D01*
X527605625Y-226060000D02*
X527605625Y-212090000D01*
X541575625Y-226060000D02*
X527605625Y-226060000D01*
X541575625Y-212090000D02*
X541575625Y-226060000D01*
X527605625Y-212090000D02*
X541575625Y-212090000D01*
X518080625Y-207010000D02*
X518080625Y-193040000D01*
X532050625Y-207010000D02*
X518080625Y-207010000D01*
X532050625Y-193040000D02*
X532050625Y-207010000D01*
X518080625Y-193040000D02*
X532050625Y-193040000D01*
X513318125Y-264160000D02*
X513318125Y-250190000D01*
X527288125Y-264160000D02*
X513318125Y-264160000D01*
X527288125Y-250190000D02*
X527288125Y-264160000D01*
X513318125Y-250190000D02*
X527288125Y-250190000D01*
X513318125Y-245110000D02*
X513318125Y-231140000D01*
X527288125Y-245110000D02*
X513318125Y-245110000D01*
X527288125Y-231140000D02*
X527288125Y-245110000D01*
X513318125Y-231140000D02*
X527288125Y-231140000D01*
X503793125Y-226060000D02*
X503793125Y-212090000D01*
X517763125Y-226060000D02*
X503793125Y-226060000D01*
X517763125Y-212090000D02*
X517763125Y-226060000D01*
X503793125Y-212090000D02*
X517763125Y-212090000D01*
X499030625Y-207010000D02*
X499030625Y-193040000D01*
X513000625Y-207010000D02*
X499030625Y-207010000D01*
X513000625Y-193040000D02*
X513000625Y-207010000D01*
X499030625Y-193040000D02*
X513000625Y-193040000D01*
X494268125Y-264160000D02*
X494268125Y-250190000D01*
X508238125Y-264160000D02*
X494268125Y-264160000D01*
X508238125Y-250190000D02*
X508238125Y-264160000D01*
X494268125Y-250190000D02*
X508238125Y-250190000D01*
X494268125Y-245110000D02*
X494268125Y-231140000D01*
X508238125Y-245110000D02*
X494268125Y-245110000D01*
X508238125Y-231140000D02*
X508238125Y-245110000D01*
X494268125Y-231140000D02*
X508238125Y-231140000D01*
X484743125Y-226060000D02*
X484743125Y-212090000D01*
X498713125Y-226060000D02*
X484743125Y-226060000D01*
X498713125Y-212090000D02*
X498713125Y-226060000D01*
X484743125Y-212090000D02*
X498713125Y-212090000D01*
X479980625Y-207010000D02*
X479980625Y-193040000D01*
X493950625Y-207010000D02*
X479980625Y-207010000D01*
X493950625Y-193040000D02*
X493950625Y-207010000D01*
X479980625Y-193040000D02*
X493950625Y-193040000D01*
X475218125Y-264160000D02*
X475218125Y-250190000D01*
X489188125Y-264160000D02*
X475218125Y-264160000D01*
X489188125Y-250190000D02*
X489188125Y-264160000D01*
X475218125Y-250190000D02*
X489188125Y-250190000D01*
X475218125Y-245110000D02*
X475218125Y-231140000D01*
X489188125Y-245110000D02*
X475218125Y-245110000D01*
X489188125Y-231140000D02*
X489188125Y-245110000D01*
X475218125Y-231140000D02*
X489188125Y-231140000D01*
X465693125Y-226060000D02*
X465693125Y-212090000D01*
X479663125Y-226060000D02*
X465693125Y-226060000D01*
X479663125Y-212090000D02*
X479663125Y-226060000D01*
X465693125Y-212090000D02*
X479663125Y-212090000D01*
X460930625Y-207010000D02*
X460930625Y-193040000D01*
X474900625Y-207010000D02*
X460930625Y-207010000D01*
X474900625Y-193040000D02*
X474900625Y-207010000D01*
X460930625Y-193040000D02*
X474900625Y-193040000D01*
X456168125Y-264160000D02*
X456168125Y-250190000D01*
X470138125Y-264160000D02*
X456168125Y-264160000D01*
X470138125Y-250190000D02*
X470138125Y-264160000D01*
X456168125Y-250190000D02*
X470138125Y-250190000D01*
X456168125Y-245110000D02*
X456168125Y-231140000D01*
X470138125Y-245110000D02*
X456168125Y-245110000D01*
X470138125Y-231140000D02*
X470138125Y-245110000D01*
X456168125Y-231140000D02*
X470138125Y-231140000D01*
X446643125Y-226060000D02*
X446643125Y-212090000D01*
X460613125Y-226060000D02*
X446643125Y-226060000D01*
X460613125Y-212090000D02*
X460613125Y-226060000D01*
X446643125Y-212090000D02*
X460613125Y-212090000D01*
X441880625Y-207010000D02*
X441880625Y-193040000D01*
X455850625Y-207010000D02*
X441880625Y-207010000D01*
X455850625Y-193040000D02*
X455850625Y-207010000D01*
X441880625Y-193040000D02*
X455850625Y-193040000D01*
X437118125Y-245110000D02*
X437118125Y-231140000D01*
X451088125Y-245110000D02*
X437118125Y-245110000D01*
X451088125Y-231140000D02*
X451088125Y-245110000D01*
X437118125Y-231140000D02*
X451088125Y-231140000D01*
X427593125Y-226060000D02*
X427593125Y-212090000D01*
X441563125Y-226060000D02*
X427593125Y-226060000D01*
X441563125Y-212090000D02*
X441563125Y-226060000D01*
X427593125Y-212090000D02*
X441563125Y-212090000D01*
X422830625Y-207010000D02*
X422830625Y-193040000D01*
X436800625Y-207010000D02*
X422830625Y-207010000D01*
X436800625Y-193040000D02*
X436800625Y-207010000D01*
X422830625Y-193040000D02*
X436800625Y-193040000D01*
X425211875Y-264160000D02*
X425211875Y-250190000D01*
X439181875Y-264160000D02*
X425211875Y-264160000D01*
X439181875Y-250190000D02*
X439181875Y-264160000D01*
X425211875Y-250190000D02*
X439181875Y-250190000D01*
X418068125Y-245110000D02*
X418068125Y-231140000D01*
X432038125Y-245110000D02*
X418068125Y-245110000D01*
X432038125Y-231140000D02*
X432038125Y-245110000D01*
X418068125Y-231140000D02*
X432038125Y-231140000D01*
X408543125Y-226060000D02*
X408543125Y-212090000D01*
X422513125Y-226060000D02*
X408543125Y-226060000D01*
X422513125Y-212090000D02*
X422513125Y-226060000D01*
X408543125Y-212090000D02*
X422513125Y-212090000D01*
X403780625Y-207010000D02*
X403780625Y-193040000D01*
X417750625Y-207010000D02*
X403780625Y-207010000D01*
X417750625Y-193040000D02*
X417750625Y-207010000D01*
X403780625Y-193040000D02*
X417750625Y-193040000D01*
X399018125Y-245110000D02*
X399018125Y-231140000D01*
X412988125Y-245110000D02*
X399018125Y-245110000D01*
X412988125Y-231140000D02*
X412988125Y-245110000D01*
X399018125Y-231140000D02*
X412988125Y-231140000D01*
X389493125Y-226060000D02*
X389493125Y-212090000D01*
X403463125Y-226060000D02*
X389493125Y-226060000D01*
X403463125Y-212090000D02*
X403463125Y-226060000D01*
X389493125Y-212090000D02*
X403463125Y-212090000D01*
X384730625Y-207010000D02*
X384730625Y-193040000D01*
X398700625Y-207010000D02*
X384730625Y-207010000D01*
X398700625Y-193040000D02*
X398700625Y-207010000D01*
X384730625Y-193040000D02*
X398700625Y-193040000D01*
X382349375Y-264160000D02*
X382349375Y-250190000D01*
X396319375Y-264160000D02*
X382349375Y-264160000D01*
X396319375Y-250190000D02*
X396319375Y-264160000D01*
X382349375Y-250190000D02*
X396319375Y-250190000D01*
X379968125Y-245110000D02*
X379968125Y-231140000D01*
X393938125Y-245110000D02*
X379968125Y-245110000D01*
X393938125Y-231140000D02*
X393938125Y-245110000D01*
X379968125Y-231140000D02*
X393938125Y-231140000D01*
X370443125Y-226060000D02*
X370443125Y-212090000D01*
X384413125Y-226060000D02*
X370443125Y-226060000D01*
X384413125Y-212090000D02*
X384413125Y-226060000D01*
X370443125Y-212090000D02*
X384413125Y-212090000D01*
X365680625Y-207010000D02*
X365680625Y-193040000D01*
X379650625Y-207010000D02*
X365680625Y-207010000D01*
X379650625Y-193040000D02*
X379650625Y-207010000D01*
X365680625Y-193040000D02*
X379650625Y-193040000D01*
X351393125Y-264160000D02*
X351393125Y-250190000D01*
X365363125Y-264160000D02*
X351393125Y-264160000D01*
X365363125Y-250190000D02*
X365363125Y-264160000D01*
X351393125Y-250190000D02*
X365363125Y-250190000D01*
X360918125Y-245110000D02*
X360918125Y-231140000D01*
X374888125Y-245110000D02*
X360918125Y-245110000D01*
X374888125Y-231140000D02*
X374888125Y-245110000D01*
X360918125Y-231140000D02*
X374888125Y-231140000D01*
X351393125Y-226060000D02*
X351393125Y-212090000D01*
X365363125Y-226060000D02*
X351393125Y-226060000D01*
X365363125Y-212090000D02*
X365363125Y-226060000D01*
X351393125Y-212090000D02*
X365363125Y-212090000D01*
X346630625Y-207010000D02*
X346630625Y-193040000D01*
X360600625Y-207010000D02*
X346630625Y-207010000D01*
X360600625Y-193040000D02*
X360600625Y-207010000D01*
X346630625Y-193040000D02*
X360600625Y-193040000D01*
X332343125Y-264160000D02*
X332343125Y-250190000D01*
X346313125Y-264160000D02*
X332343125Y-264160000D01*
X346313125Y-250190000D02*
X346313125Y-264160000D01*
X332343125Y-250190000D02*
X346313125Y-250190000D01*
X341868125Y-245110000D02*
X341868125Y-231140000D01*
X355838125Y-245110000D02*
X341868125Y-245110000D01*
X355838125Y-231140000D02*
X355838125Y-245110000D01*
X341868125Y-231140000D02*
X355838125Y-231140000D01*
X332343125Y-226060000D02*
X332343125Y-212090000D01*
X346313125Y-226060000D02*
X332343125Y-226060000D01*
X346313125Y-212090000D02*
X346313125Y-226060000D01*
X332343125Y-212090000D02*
X346313125Y-212090000D01*
X327580625Y-207010000D02*
X327580625Y-193040000D01*
X341550625Y-207010000D02*
X327580625Y-207010000D01*
X341550625Y-193040000D02*
X341550625Y-207010000D01*
X327580625Y-193040000D02*
X341550625Y-193040000D01*
X313293125Y-264160000D02*
X313293125Y-250190000D01*
X327263125Y-264160000D02*
X313293125Y-264160000D01*
X327263125Y-250190000D02*
X327263125Y-264160000D01*
X313293125Y-250190000D02*
X327263125Y-250190000D01*
X322818125Y-245110000D02*
X322818125Y-231140000D01*
X336788125Y-245110000D02*
X322818125Y-245110000D01*
X336788125Y-231140000D02*
X336788125Y-245110000D01*
X322818125Y-231140000D02*
X336788125Y-231140000D01*
X313293125Y-226060000D02*
X313293125Y-212090000D01*
X327263125Y-226060000D02*
X313293125Y-226060000D01*
X327263125Y-212090000D02*
X327263125Y-226060000D01*
X313293125Y-212090000D02*
X327263125Y-212090000D01*
X308530625Y-207010000D02*
X308530625Y-193040000D01*
X322500625Y-207010000D02*
X308530625Y-207010000D01*
X322500625Y-193040000D02*
X322500625Y-207010000D01*
X308530625Y-193040000D02*
X322500625Y-193040000D01*
X291861875Y-264160000D02*
X291861875Y-250190000D01*
X305831875Y-264160000D02*
X291861875Y-264160000D01*
X305831875Y-250190000D02*
X305831875Y-264160000D01*
X291861875Y-250190000D02*
X305831875Y-250190000D01*
X296624375Y-245110000D02*
X296624375Y-231140000D01*
X310594375Y-245110000D02*
X296624375Y-245110000D01*
X310594375Y-231140000D02*
X310594375Y-245110000D01*
X296624375Y-231140000D02*
X310594375Y-231140000D01*
X291861875Y-226060000D02*
X291861875Y-212090000D01*
X305831875Y-226060000D02*
X291861875Y-226060000D01*
X305831875Y-212090000D02*
X305831875Y-226060000D01*
X291861875Y-212090000D02*
X305831875Y-212090000D01*
X289480625Y-207010000D02*
X289480625Y-193040000D01*
X303450625Y-207010000D02*
X289480625Y-207010000D01*
X303450625Y-193040000D02*
X303450625Y-207010000D01*
X289480625Y-193040000D02*
X303450625Y-193040000D01*
X280607780Y-243938750D02*
X281937780Y-243938750D01*
X280607780Y-245268750D02*
X280607780Y-243938750D01*
X280607780Y-246538750D02*
X283267780Y-246538750D01*
X283267780Y-246538750D02*
X283267780Y-246598750D01*
X280607780Y-246538750D02*
X280607780Y-246598750D01*
X280607780Y-246598750D02*
X283267780Y-246598750D01*
X280610000Y-204410000D02*
X281940000Y-204410000D01*
X280610000Y-205740000D02*
X280610000Y-204410000D01*
X280610000Y-207010000D02*
X283270000Y-207010000D01*
X283270000Y-207010000D02*
X283270000Y-235010000D01*
X280610000Y-207010000D02*
X280610000Y-235010000D01*
X280610000Y-235010000D02*
X283270000Y-235010000D01*
X260290000Y-194091250D02*
X261620000Y-194091250D01*
X260290000Y-195421250D02*
X260290000Y-194091250D01*
X260290000Y-196691250D02*
X262950000Y-196691250D01*
X262950000Y-196691250D02*
X262950000Y-234851250D01*
X260290000Y-196691250D02*
X260290000Y-234851250D01*
X260290000Y-234851250D02*
X262950000Y-234851250D01*
D13*
X261556666Y-234442380D02*
X261223333Y-233966190D01*
X260985238Y-234442380D02*
X260985238Y-233442380D01*
X261366190Y-233442380D01*
X261461428Y-233490000D01*
X261509047Y-233537619D01*
X261556666Y-233632857D01*
X261556666Y-233775714D01*
X261509047Y-233870952D01*
X261461428Y-233918571D01*
X261366190Y-233966190D01*
X260985238Y-233966190D01*
X261985238Y-233918571D02*
X262318571Y-233918571D01*
X262461428Y-234442380D02*
X261985238Y-234442380D01*
X261985238Y-233442380D01*
X262461428Y-233442380D01*
X263223333Y-233918571D02*
X262890000Y-233918571D01*
X262890000Y-234442380D02*
X262890000Y-233442380D01*
X263366190Y-233442380D01*
X263890000Y-233442380D02*
X263890000Y-233680476D01*
X263651904Y-233585238D02*
X263890000Y-233680476D01*
X264128095Y-233585238D01*
X263747142Y-233870952D02*
X263890000Y-233680476D01*
X264032857Y-233870952D01*
X264651904Y-233442380D02*
X264651904Y-233680476D01*
X264413809Y-233585238D02*
X264651904Y-233680476D01*
X264890000Y-233585238D01*
X264509047Y-233870952D02*
X264651904Y-233680476D01*
X264794761Y-233870952D01*
X279336666Y-234442380D02*
X279003333Y-233966190D01*
X278765238Y-234442380D02*
X278765238Y-233442380D01*
X279146190Y-233442380D01*
X279241428Y-233490000D01*
X279289047Y-233537619D01*
X279336666Y-233632857D01*
X279336666Y-233775714D01*
X279289047Y-233870952D01*
X279241428Y-233918571D01*
X279146190Y-233966190D01*
X278765238Y-233966190D01*
X279765238Y-233918571D02*
X280098571Y-233918571D01*
X280241428Y-234442380D02*
X279765238Y-234442380D01*
X279765238Y-233442380D01*
X280241428Y-233442380D01*
X281003333Y-233918571D02*
X280670000Y-233918571D01*
X280670000Y-234442380D02*
X280670000Y-233442380D01*
X281146190Y-233442380D01*
X281670000Y-233442380D02*
X281670000Y-233680476D01*
X281431904Y-233585238D02*
X281670000Y-233680476D01*
X281908095Y-233585238D01*
X281527142Y-233870952D02*
X281670000Y-233680476D01*
X281812857Y-233870952D01*
X282431904Y-233442380D02*
X282431904Y-233680476D01*
X282193809Y-233585238D02*
X282431904Y-233680476D01*
X282670000Y-233585238D01*
X282289047Y-233870952D02*
X282431904Y-233680476D01*
X282574761Y-233870952D01*
X279336666Y-188722380D02*
X279003333Y-188246190D01*
X278765238Y-188722380D02*
X278765238Y-187722380D01*
X279146190Y-187722380D01*
X279241428Y-187770000D01*
X279289047Y-187817619D01*
X279336666Y-187912857D01*
X279336666Y-188055714D01*
X279289047Y-188150952D01*
X279241428Y-188198571D01*
X279146190Y-188246190D01*
X278765238Y-188246190D01*
X279765238Y-188198571D02*
X280098571Y-188198571D01*
X280241428Y-188722380D02*
X279765238Y-188722380D01*
X279765238Y-187722380D01*
X280241428Y-187722380D01*
X281003333Y-188198571D02*
X280670000Y-188198571D01*
X280670000Y-188722380D02*
X280670000Y-187722380D01*
X281146190Y-187722380D01*
X281670000Y-187722380D02*
X281670000Y-187960476D01*
X281431904Y-187865238D02*
X281670000Y-187960476D01*
X281908095Y-187865238D01*
X281527142Y-188150952D02*
X281670000Y-187960476D01*
X281812857Y-188150952D01*
X282431904Y-187722380D02*
X282431904Y-187960476D01*
X282193809Y-187865238D02*
X282431904Y-187960476D01*
X282670000Y-187865238D01*
X282289047Y-188150952D02*
X282431904Y-187960476D01*
X282574761Y-188150952D01*
X261556666Y-188722380D02*
X261223333Y-188246190D01*
X260985238Y-188722380D02*
X260985238Y-187722380D01*
X261366190Y-187722380D01*
X261461428Y-187770000D01*
X261509047Y-187817619D01*
X261556666Y-187912857D01*
X261556666Y-188055714D01*
X261509047Y-188150952D01*
X261461428Y-188198571D01*
X261366190Y-188246190D01*
X260985238Y-188246190D01*
X261985238Y-188198571D02*
X262318571Y-188198571D01*
X262461428Y-188722380D02*
X261985238Y-188722380D01*
X261985238Y-187722380D01*
X262461428Y-187722380D01*
X263223333Y-188198571D02*
X262890000Y-188198571D01*
X262890000Y-188722380D02*
X262890000Y-187722380D01*
X263366190Y-187722380D01*
X263890000Y-187722380D02*
X263890000Y-187960476D01*
X263651904Y-187865238D02*
X263890000Y-187960476D01*
X264128095Y-187865238D01*
X263747142Y-188150952D02*
X263890000Y-187960476D01*
X264032857Y-188150952D01*
X264651904Y-187722380D02*
X264651904Y-187960476D01*
X264413809Y-187865238D02*
X264651904Y-187960476D01*
X264890000Y-187865238D01*
X264509047Y-188150952D02*
X264651904Y-187960476D01*
X264794761Y-188150952D01*
D14*
X271172380Y-250893904D02*
X271172380Y-250093904D01*
X271439047Y-250665333D01*
X271705714Y-250093904D01*
X271705714Y-250893904D01*
X272505714Y-250893904D02*
X272048571Y-250893904D01*
X272277142Y-250893904D02*
X272277142Y-250093904D01*
X272200952Y-250208190D01*
X272124761Y-250284380D01*
X272048571Y-250322476D01*
D13*
X280606666Y-246994761D02*
X280749523Y-247042380D01*
X280987619Y-247042380D01*
X281082857Y-246994761D01*
X281130476Y-246947142D01*
X281178095Y-246851904D01*
X281178095Y-246756666D01*
X281130476Y-246661428D01*
X281082857Y-246613809D01*
X280987619Y-246566190D01*
X280797142Y-246518571D01*
X280701904Y-246470952D01*
X280654285Y-246423333D01*
X280606666Y-246328095D01*
X280606666Y-246232857D01*
X280654285Y-246137619D01*
X280701904Y-246090000D01*
X280797142Y-246042380D01*
X281035238Y-246042380D01*
X281178095Y-246090000D01*
X281511428Y-246042380D02*
X281749523Y-247042380D01*
X281940000Y-246328095D01*
X282130476Y-247042380D01*
X282368571Y-246042380D01*
X283273333Y-247042380D02*
X282701904Y-247042380D01*
X282987619Y-247042380D02*
X282987619Y-246042380D01*
X282892380Y-246185238D01*
X282797142Y-246280476D01*
X282701904Y-246328095D01*
X556617410Y-249753380D02*
X556617410Y-248753380D01*
X556950744Y-249467666D01*
X557284077Y-248753380D01*
X557284077Y-249753380D01*
X557665029Y-248753380D02*
X558331696Y-249753380D01*
X558331696Y-248753380D02*
X557665029Y-249753380D01*
X558712648Y-249753380D02*
X558712648Y-248753380D01*
X558950744Y-248753380D01*
X559093601Y-248801000D01*
X559188839Y-248896238D01*
X559236458Y-248991476D01*
X559284077Y-249181952D01*
X559284077Y-249324809D01*
X559236458Y-249515285D01*
X559188839Y-249610523D01*
X559093601Y-249705761D01*
X558950744Y-249753380D01*
X558712648Y-249753380D01*
X559617410Y-248753380D02*
X560236458Y-248753380D01*
X559903125Y-249134333D01*
X560045982Y-249134333D01*
X560141220Y-249181952D01*
X560188839Y-249229571D01*
X560236458Y-249324809D01*
X560236458Y-249562904D01*
X560188839Y-249658142D01*
X560141220Y-249705761D01*
X560045982Y-249753380D01*
X559760267Y-249753380D01*
X559665029Y-249705761D01*
X559617410Y-249658142D01*
X556617410Y-230703380D02*
X556617410Y-229703380D01*
X556950744Y-230417666D01*
X557284077Y-229703380D01*
X557284077Y-230703380D01*
X557665029Y-229703380D02*
X558331696Y-230703380D01*
X558331696Y-229703380D02*
X557665029Y-230703380D01*
X558712648Y-230703380D02*
X558712648Y-229703380D01*
X558950744Y-229703380D01*
X559093601Y-229751000D01*
X559188839Y-229846238D01*
X559236458Y-229941476D01*
X559284077Y-230131952D01*
X559284077Y-230274809D01*
X559236458Y-230465285D01*
X559188839Y-230560523D01*
X559093601Y-230655761D01*
X558950744Y-230703380D01*
X558712648Y-230703380D01*
X559665029Y-229798619D02*
X559712648Y-229751000D01*
X559807886Y-229703380D01*
X560045982Y-229703380D01*
X560141220Y-229751000D01*
X560188839Y-229798619D01*
X560236458Y-229893857D01*
X560236458Y-229989095D01*
X560188839Y-230131952D01*
X559617410Y-230703380D01*
X560236458Y-230703380D01*
X556617410Y-211653380D02*
X556617410Y-210653380D01*
X556950744Y-211367666D01*
X557284077Y-210653380D01*
X557284077Y-211653380D01*
X557665029Y-210653380D02*
X558331696Y-211653380D01*
X558331696Y-210653380D02*
X557665029Y-211653380D01*
X558712648Y-211653380D02*
X558712648Y-210653380D01*
X558950744Y-210653380D01*
X559093601Y-210701000D01*
X559188839Y-210796238D01*
X559236458Y-210891476D01*
X559284077Y-211081952D01*
X559284077Y-211224809D01*
X559236458Y-211415285D01*
X559188839Y-211510523D01*
X559093601Y-211605761D01*
X558950744Y-211653380D01*
X558712648Y-211653380D01*
X560236458Y-211653380D02*
X559665029Y-211653380D01*
X559950744Y-211653380D02*
X559950744Y-210653380D01*
X559855505Y-210796238D01*
X559760267Y-210891476D01*
X559665029Y-210939095D01*
X549473660Y-192603380D02*
X549473660Y-191603380D01*
X549806994Y-192317666D01*
X550140327Y-191603380D01*
X550140327Y-192603380D01*
X550521279Y-191603380D02*
X551187946Y-192603380D01*
X551187946Y-191603380D02*
X550521279Y-192603380D01*
X551568898Y-192603380D02*
X551568898Y-191603380D01*
X551806994Y-191603380D01*
X551949851Y-191651000D01*
X552045089Y-191746238D01*
X552092708Y-191841476D01*
X552140327Y-192031952D01*
X552140327Y-192174809D01*
X552092708Y-192365285D01*
X552045089Y-192460523D01*
X551949851Y-192555761D01*
X551806994Y-192603380D01*
X551568898Y-192603380D01*
X552759375Y-191603380D02*
X552854613Y-191603380D01*
X552949851Y-191651000D01*
X552997470Y-191698619D01*
X553045089Y-191793857D01*
X553092708Y-191984333D01*
X553092708Y-192222428D01*
X553045089Y-192412904D01*
X552997470Y-192508142D01*
X552949851Y-192555761D01*
X552854613Y-192603380D01*
X552759375Y-192603380D01*
X552664136Y-192555761D01*
X552616517Y-192508142D01*
X552568898Y-192412904D01*
X552521279Y-192222428D01*
X552521279Y-191984333D01*
X552568898Y-191793857D01*
X552616517Y-191698619D01*
X552664136Y-191651000D01*
X552759375Y-191603380D01*
X537567410Y-249753380D02*
X537567410Y-248753380D01*
X537900744Y-249467666D01*
X538234077Y-248753380D01*
X538234077Y-249753380D01*
X538615029Y-248753380D02*
X539281696Y-249753380D01*
X539281696Y-248753380D02*
X538615029Y-249753380D01*
X540234077Y-249658142D02*
X540186458Y-249705761D01*
X540043601Y-249753380D01*
X539948363Y-249753380D01*
X539805505Y-249705761D01*
X539710267Y-249610523D01*
X539662648Y-249515285D01*
X539615029Y-249324809D01*
X539615029Y-249181952D01*
X539662648Y-248991476D01*
X539710267Y-248896238D01*
X539805505Y-248801000D01*
X539948363Y-248753380D01*
X540043601Y-248753380D01*
X540186458Y-248801000D01*
X540234077Y-248848619D01*
X540567410Y-248753380D02*
X541186458Y-248753380D01*
X540853125Y-249134333D01*
X540995982Y-249134333D01*
X541091220Y-249181952D01*
X541138839Y-249229571D01*
X541186458Y-249324809D01*
X541186458Y-249562904D01*
X541138839Y-249658142D01*
X541091220Y-249705761D01*
X540995982Y-249753380D01*
X540710267Y-249753380D01*
X540615029Y-249705761D01*
X540567410Y-249658142D01*
X537567410Y-230703380D02*
X537567410Y-229703380D01*
X537900744Y-230417666D01*
X538234077Y-229703380D01*
X538234077Y-230703380D01*
X538615029Y-229703380D02*
X539281696Y-230703380D01*
X539281696Y-229703380D02*
X538615029Y-230703380D01*
X540234077Y-230608142D02*
X540186458Y-230655761D01*
X540043601Y-230703380D01*
X539948363Y-230703380D01*
X539805505Y-230655761D01*
X539710267Y-230560523D01*
X539662648Y-230465285D01*
X539615029Y-230274809D01*
X539615029Y-230131952D01*
X539662648Y-229941476D01*
X539710267Y-229846238D01*
X539805505Y-229751000D01*
X539948363Y-229703380D01*
X540043601Y-229703380D01*
X540186458Y-229751000D01*
X540234077Y-229798619D01*
X540615029Y-229798619D02*
X540662648Y-229751000D01*
X540757886Y-229703380D01*
X540995982Y-229703380D01*
X541091220Y-229751000D01*
X541138839Y-229798619D01*
X541186458Y-229893857D01*
X541186458Y-229989095D01*
X541138839Y-230131952D01*
X540567410Y-230703380D01*
X541186458Y-230703380D01*
X532804910Y-211653380D02*
X532804910Y-210653380D01*
X533138244Y-211367666D01*
X533471577Y-210653380D01*
X533471577Y-211653380D01*
X533852529Y-210653380D02*
X534519196Y-211653380D01*
X534519196Y-210653380D02*
X533852529Y-211653380D01*
X535471577Y-211558142D02*
X535423958Y-211605761D01*
X535281101Y-211653380D01*
X535185863Y-211653380D01*
X535043005Y-211605761D01*
X534947767Y-211510523D01*
X534900148Y-211415285D01*
X534852529Y-211224809D01*
X534852529Y-211081952D01*
X534900148Y-210891476D01*
X534947767Y-210796238D01*
X535043005Y-210701000D01*
X535185863Y-210653380D01*
X535281101Y-210653380D01*
X535423958Y-210701000D01*
X535471577Y-210748619D01*
X536423958Y-211653380D02*
X535852529Y-211653380D01*
X536138244Y-211653380D02*
X536138244Y-210653380D01*
X536043005Y-210796238D01*
X535947767Y-210891476D01*
X535852529Y-210939095D01*
X523279910Y-192603380D02*
X523279910Y-191603380D01*
X523613244Y-192317666D01*
X523946577Y-191603380D01*
X523946577Y-192603380D01*
X524327529Y-191603380D02*
X524994196Y-192603380D01*
X524994196Y-191603380D02*
X524327529Y-192603380D01*
X525946577Y-192508142D02*
X525898958Y-192555761D01*
X525756101Y-192603380D01*
X525660863Y-192603380D01*
X525518005Y-192555761D01*
X525422767Y-192460523D01*
X525375148Y-192365285D01*
X525327529Y-192174809D01*
X525327529Y-192031952D01*
X525375148Y-191841476D01*
X525422767Y-191746238D01*
X525518005Y-191651000D01*
X525660863Y-191603380D01*
X525756101Y-191603380D01*
X525898958Y-191651000D01*
X525946577Y-191698619D01*
X526565625Y-191603380D02*
X526660863Y-191603380D01*
X526756101Y-191651000D01*
X526803720Y-191698619D01*
X526851339Y-191793857D01*
X526898958Y-191984333D01*
X526898958Y-192222428D01*
X526851339Y-192412904D01*
X526803720Y-192508142D01*
X526756101Y-192555761D01*
X526660863Y-192603380D01*
X526565625Y-192603380D01*
X526470386Y-192555761D01*
X526422767Y-192508142D01*
X526375148Y-192412904D01*
X526327529Y-192222428D01*
X526327529Y-191984333D01*
X526375148Y-191793857D01*
X526422767Y-191698619D01*
X526470386Y-191651000D01*
X526565625Y-191603380D01*
X518517410Y-249753380D02*
X518517410Y-248753380D01*
X518850744Y-249467666D01*
X519184077Y-248753380D01*
X519184077Y-249753380D01*
X519565029Y-248753380D02*
X520231696Y-249753380D01*
X520231696Y-248753380D02*
X519565029Y-249753380D01*
X520945982Y-249229571D02*
X521088839Y-249277190D01*
X521136458Y-249324809D01*
X521184077Y-249420047D01*
X521184077Y-249562904D01*
X521136458Y-249658142D01*
X521088839Y-249705761D01*
X520993601Y-249753380D01*
X520612648Y-249753380D01*
X520612648Y-248753380D01*
X520945982Y-248753380D01*
X521041220Y-248801000D01*
X521088839Y-248848619D01*
X521136458Y-248943857D01*
X521136458Y-249039095D01*
X521088839Y-249134333D01*
X521041220Y-249181952D01*
X520945982Y-249229571D01*
X520612648Y-249229571D01*
X521517410Y-248753380D02*
X522136458Y-248753380D01*
X521803125Y-249134333D01*
X521945982Y-249134333D01*
X522041220Y-249181952D01*
X522088839Y-249229571D01*
X522136458Y-249324809D01*
X522136458Y-249562904D01*
X522088839Y-249658142D01*
X522041220Y-249705761D01*
X521945982Y-249753380D01*
X521660267Y-249753380D01*
X521565029Y-249705761D01*
X521517410Y-249658142D01*
X518517410Y-230703380D02*
X518517410Y-229703380D01*
X518850744Y-230417666D01*
X519184077Y-229703380D01*
X519184077Y-230703380D01*
X519565029Y-229703380D02*
X520231696Y-230703380D01*
X520231696Y-229703380D02*
X519565029Y-230703380D01*
X520945982Y-230179571D02*
X521088839Y-230227190D01*
X521136458Y-230274809D01*
X521184077Y-230370047D01*
X521184077Y-230512904D01*
X521136458Y-230608142D01*
X521088839Y-230655761D01*
X520993601Y-230703380D01*
X520612648Y-230703380D01*
X520612648Y-229703380D01*
X520945982Y-229703380D01*
X521041220Y-229751000D01*
X521088839Y-229798619D01*
X521136458Y-229893857D01*
X521136458Y-229989095D01*
X521088839Y-230084333D01*
X521041220Y-230131952D01*
X520945982Y-230179571D01*
X520612648Y-230179571D01*
X521565029Y-229798619D02*
X521612648Y-229751000D01*
X521707886Y-229703380D01*
X521945982Y-229703380D01*
X522041220Y-229751000D01*
X522088839Y-229798619D01*
X522136458Y-229893857D01*
X522136458Y-229989095D01*
X522088839Y-230131952D01*
X521517410Y-230703380D01*
X522136458Y-230703380D01*
X508992410Y-211653380D02*
X508992410Y-210653380D01*
X509325744Y-211367666D01*
X509659077Y-210653380D01*
X509659077Y-211653380D01*
X510040029Y-210653380D02*
X510706696Y-211653380D01*
X510706696Y-210653380D02*
X510040029Y-211653380D01*
X511420982Y-211129571D02*
X511563839Y-211177190D01*
X511611458Y-211224809D01*
X511659077Y-211320047D01*
X511659077Y-211462904D01*
X511611458Y-211558142D01*
X511563839Y-211605761D01*
X511468601Y-211653380D01*
X511087648Y-211653380D01*
X511087648Y-210653380D01*
X511420982Y-210653380D01*
X511516220Y-210701000D01*
X511563839Y-210748619D01*
X511611458Y-210843857D01*
X511611458Y-210939095D01*
X511563839Y-211034333D01*
X511516220Y-211081952D01*
X511420982Y-211129571D01*
X511087648Y-211129571D01*
X512611458Y-211653380D02*
X512040029Y-211653380D01*
X512325744Y-211653380D02*
X512325744Y-210653380D01*
X512230505Y-210796238D01*
X512135267Y-210891476D01*
X512040029Y-210939095D01*
X504229910Y-192603380D02*
X504229910Y-191603380D01*
X504563244Y-192317666D01*
X504896577Y-191603380D01*
X504896577Y-192603380D01*
X505277529Y-191603380D02*
X505944196Y-192603380D01*
X505944196Y-191603380D02*
X505277529Y-192603380D01*
X506658482Y-192079571D02*
X506801339Y-192127190D01*
X506848958Y-192174809D01*
X506896577Y-192270047D01*
X506896577Y-192412904D01*
X506848958Y-192508142D01*
X506801339Y-192555761D01*
X506706101Y-192603380D01*
X506325148Y-192603380D01*
X506325148Y-191603380D01*
X506658482Y-191603380D01*
X506753720Y-191651000D01*
X506801339Y-191698619D01*
X506848958Y-191793857D01*
X506848958Y-191889095D01*
X506801339Y-191984333D01*
X506753720Y-192031952D01*
X506658482Y-192079571D01*
X506325148Y-192079571D01*
X507515625Y-191603380D02*
X507610863Y-191603380D01*
X507706101Y-191651000D01*
X507753720Y-191698619D01*
X507801339Y-191793857D01*
X507848958Y-191984333D01*
X507848958Y-192222428D01*
X507801339Y-192412904D01*
X507753720Y-192508142D01*
X507706101Y-192555761D01*
X507610863Y-192603380D01*
X507515625Y-192603380D01*
X507420386Y-192555761D01*
X507372767Y-192508142D01*
X507325148Y-192412904D01*
X507277529Y-192222428D01*
X507277529Y-191984333D01*
X507325148Y-191793857D01*
X507372767Y-191698619D01*
X507420386Y-191651000D01*
X507515625Y-191603380D01*
X499538839Y-249753380D02*
X499538839Y-248753380D01*
X499872172Y-249467666D01*
X500205505Y-248753380D01*
X500205505Y-249753380D01*
X500586458Y-248753380D02*
X501253125Y-249753380D01*
X501253125Y-248753380D02*
X500586458Y-249753380D01*
X501586458Y-249467666D02*
X502062648Y-249467666D01*
X501491220Y-249753380D02*
X501824553Y-248753380D01*
X502157886Y-249753380D01*
X502395982Y-248753380D02*
X503015029Y-248753380D01*
X502681696Y-249134333D01*
X502824553Y-249134333D01*
X502919791Y-249181952D01*
X502967410Y-249229571D01*
X503015029Y-249324809D01*
X503015029Y-249562904D01*
X502967410Y-249658142D01*
X502919791Y-249705761D01*
X502824553Y-249753380D01*
X502538839Y-249753380D01*
X502443601Y-249705761D01*
X502395982Y-249658142D01*
X499538839Y-230703380D02*
X499538839Y-229703380D01*
X499872172Y-230417666D01*
X500205505Y-229703380D01*
X500205505Y-230703380D01*
X500586458Y-229703380D02*
X501253125Y-230703380D01*
X501253125Y-229703380D02*
X500586458Y-230703380D01*
X501586458Y-230417666D02*
X502062648Y-230417666D01*
X501491220Y-230703380D02*
X501824553Y-229703380D01*
X502157886Y-230703380D01*
X502443601Y-229798619D02*
X502491220Y-229751000D01*
X502586458Y-229703380D01*
X502824553Y-229703380D01*
X502919791Y-229751000D01*
X502967410Y-229798619D01*
X503015029Y-229893857D01*
X503015029Y-229989095D01*
X502967410Y-230131952D01*
X502395982Y-230703380D01*
X503015029Y-230703380D01*
X490013839Y-211653380D02*
X490013839Y-210653380D01*
X490347172Y-211367666D01*
X490680505Y-210653380D01*
X490680505Y-211653380D01*
X491061458Y-210653380D02*
X491728125Y-211653380D01*
X491728125Y-210653380D02*
X491061458Y-211653380D01*
X492061458Y-211367666D02*
X492537648Y-211367666D01*
X491966220Y-211653380D02*
X492299553Y-210653380D01*
X492632886Y-211653380D01*
X493490029Y-211653380D02*
X492918601Y-211653380D01*
X493204315Y-211653380D02*
X493204315Y-210653380D01*
X493109077Y-210796238D01*
X493013839Y-210891476D01*
X492918601Y-210939095D01*
X485251339Y-192603380D02*
X485251339Y-191603380D01*
X485584672Y-192317666D01*
X485918005Y-191603380D01*
X485918005Y-192603380D01*
X486298958Y-191603380D02*
X486965625Y-192603380D01*
X486965625Y-191603380D02*
X486298958Y-192603380D01*
X487298958Y-192317666D02*
X487775148Y-192317666D01*
X487203720Y-192603380D02*
X487537053Y-191603380D01*
X487870386Y-192603380D01*
X488394196Y-191603380D02*
X488489434Y-191603380D01*
X488584672Y-191651000D01*
X488632291Y-191698619D01*
X488679910Y-191793857D01*
X488727529Y-191984333D01*
X488727529Y-192222428D01*
X488679910Y-192412904D01*
X488632291Y-192508142D01*
X488584672Y-192555761D01*
X488489434Y-192603380D01*
X488394196Y-192603380D01*
X488298958Y-192555761D01*
X488251339Y-192508142D01*
X488203720Y-192412904D01*
X488156101Y-192222428D01*
X488156101Y-191984333D01*
X488203720Y-191793857D01*
X488251339Y-191698619D01*
X488298958Y-191651000D01*
X488394196Y-191603380D01*
X480441220Y-249753380D02*
X480441220Y-248753380D01*
X480774553Y-249467666D01*
X481107886Y-248753380D01*
X481107886Y-249753380D01*
X481488839Y-248753380D02*
X482155505Y-249753380D01*
X482155505Y-248753380D02*
X481488839Y-249753380D01*
X482584077Y-249753380D02*
X482774553Y-249753380D01*
X482869791Y-249705761D01*
X482917410Y-249658142D01*
X483012648Y-249515285D01*
X483060267Y-249324809D01*
X483060267Y-248943857D01*
X483012648Y-248848619D01*
X482965029Y-248801000D01*
X482869791Y-248753380D01*
X482679315Y-248753380D01*
X482584077Y-248801000D01*
X482536458Y-248848619D01*
X482488839Y-248943857D01*
X482488839Y-249181952D01*
X482536458Y-249277190D01*
X482584077Y-249324809D01*
X482679315Y-249372428D01*
X482869791Y-249372428D01*
X482965029Y-249324809D01*
X483012648Y-249277190D01*
X483060267Y-249181952D01*
X483393601Y-248753380D02*
X484012648Y-248753380D01*
X483679315Y-249134333D01*
X483822172Y-249134333D01*
X483917410Y-249181952D01*
X483965029Y-249229571D01*
X484012648Y-249324809D01*
X484012648Y-249562904D01*
X483965029Y-249658142D01*
X483917410Y-249705761D01*
X483822172Y-249753380D01*
X483536458Y-249753380D01*
X483441220Y-249705761D01*
X483393601Y-249658142D01*
X480441220Y-230703380D02*
X480441220Y-229703380D01*
X480774553Y-230417666D01*
X481107886Y-229703380D01*
X481107886Y-230703380D01*
X481488839Y-229703380D02*
X482155505Y-230703380D01*
X482155505Y-229703380D02*
X481488839Y-230703380D01*
X482584077Y-230703380D02*
X482774553Y-230703380D01*
X482869791Y-230655761D01*
X482917410Y-230608142D01*
X483012648Y-230465285D01*
X483060267Y-230274809D01*
X483060267Y-229893857D01*
X483012648Y-229798619D01*
X482965029Y-229751000D01*
X482869791Y-229703380D01*
X482679315Y-229703380D01*
X482584077Y-229751000D01*
X482536458Y-229798619D01*
X482488839Y-229893857D01*
X482488839Y-230131952D01*
X482536458Y-230227190D01*
X482584077Y-230274809D01*
X482679315Y-230322428D01*
X482869791Y-230322428D01*
X482965029Y-230274809D01*
X483012648Y-230227190D01*
X483060267Y-230131952D01*
X483441220Y-229798619D02*
X483488839Y-229751000D01*
X483584077Y-229703380D01*
X483822172Y-229703380D01*
X483917410Y-229751000D01*
X483965029Y-229798619D01*
X484012648Y-229893857D01*
X484012648Y-229989095D01*
X483965029Y-230131952D01*
X483393601Y-230703380D01*
X484012648Y-230703380D01*
X470916220Y-211653380D02*
X470916220Y-210653380D01*
X471249553Y-211367666D01*
X471582886Y-210653380D01*
X471582886Y-211653380D01*
X471963839Y-210653380D02*
X472630505Y-211653380D01*
X472630505Y-210653380D02*
X471963839Y-211653380D01*
X473059077Y-211653380D02*
X473249553Y-211653380D01*
X473344791Y-211605761D01*
X473392410Y-211558142D01*
X473487648Y-211415285D01*
X473535267Y-211224809D01*
X473535267Y-210843857D01*
X473487648Y-210748619D01*
X473440029Y-210701000D01*
X473344791Y-210653380D01*
X473154315Y-210653380D01*
X473059077Y-210701000D01*
X473011458Y-210748619D01*
X472963839Y-210843857D01*
X472963839Y-211081952D01*
X473011458Y-211177190D01*
X473059077Y-211224809D01*
X473154315Y-211272428D01*
X473344791Y-211272428D01*
X473440029Y-211224809D01*
X473487648Y-211177190D01*
X473535267Y-211081952D01*
X474487648Y-211653380D02*
X473916220Y-211653380D01*
X474201934Y-211653380D02*
X474201934Y-210653380D01*
X474106696Y-210796238D01*
X474011458Y-210891476D01*
X473916220Y-210939095D01*
X466153720Y-192603380D02*
X466153720Y-191603380D01*
X466487053Y-192317666D01*
X466820386Y-191603380D01*
X466820386Y-192603380D01*
X467201339Y-191603380D02*
X467868005Y-192603380D01*
X467868005Y-191603380D02*
X467201339Y-192603380D01*
X468296577Y-192603380D02*
X468487053Y-192603380D01*
X468582291Y-192555761D01*
X468629910Y-192508142D01*
X468725148Y-192365285D01*
X468772767Y-192174809D01*
X468772767Y-191793857D01*
X468725148Y-191698619D01*
X468677529Y-191651000D01*
X468582291Y-191603380D01*
X468391815Y-191603380D01*
X468296577Y-191651000D01*
X468248958Y-191698619D01*
X468201339Y-191793857D01*
X468201339Y-192031952D01*
X468248958Y-192127190D01*
X468296577Y-192174809D01*
X468391815Y-192222428D01*
X468582291Y-192222428D01*
X468677529Y-192174809D01*
X468725148Y-192127190D01*
X468772767Y-192031952D01*
X469391815Y-191603380D02*
X469487053Y-191603380D01*
X469582291Y-191651000D01*
X469629910Y-191698619D01*
X469677529Y-191793857D01*
X469725148Y-191984333D01*
X469725148Y-192222428D01*
X469677529Y-192412904D01*
X469629910Y-192508142D01*
X469582291Y-192555761D01*
X469487053Y-192603380D01*
X469391815Y-192603380D01*
X469296577Y-192555761D01*
X469248958Y-192508142D01*
X469201339Y-192412904D01*
X469153720Y-192222428D01*
X469153720Y-191984333D01*
X469201339Y-191793857D01*
X469248958Y-191698619D01*
X469296577Y-191651000D01*
X469391815Y-191603380D01*
X461391220Y-249753380D02*
X461391220Y-248753380D01*
X461724553Y-249467666D01*
X462057886Y-248753380D01*
X462057886Y-249753380D01*
X462438839Y-248753380D02*
X463105505Y-249753380D01*
X463105505Y-248753380D02*
X462438839Y-249753380D01*
X463629315Y-249181952D02*
X463534077Y-249134333D01*
X463486458Y-249086714D01*
X463438839Y-248991476D01*
X463438839Y-248943857D01*
X463486458Y-248848619D01*
X463534077Y-248801000D01*
X463629315Y-248753380D01*
X463819791Y-248753380D01*
X463915029Y-248801000D01*
X463962648Y-248848619D01*
X464010267Y-248943857D01*
X464010267Y-248991476D01*
X463962648Y-249086714D01*
X463915029Y-249134333D01*
X463819791Y-249181952D01*
X463629315Y-249181952D01*
X463534077Y-249229571D01*
X463486458Y-249277190D01*
X463438839Y-249372428D01*
X463438839Y-249562904D01*
X463486458Y-249658142D01*
X463534077Y-249705761D01*
X463629315Y-249753380D01*
X463819791Y-249753380D01*
X463915029Y-249705761D01*
X463962648Y-249658142D01*
X464010267Y-249562904D01*
X464010267Y-249372428D01*
X463962648Y-249277190D01*
X463915029Y-249229571D01*
X463819791Y-249181952D01*
X464343601Y-248753380D02*
X464962648Y-248753380D01*
X464629315Y-249134333D01*
X464772172Y-249134333D01*
X464867410Y-249181952D01*
X464915029Y-249229571D01*
X464962648Y-249324809D01*
X464962648Y-249562904D01*
X464915029Y-249658142D01*
X464867410Y-249705761D01*
X464772172Y-249753380D01*
X464486458Y-249753380D01*
X464391220Y-249705761D01*
X464343601Y-249658142D01*
X461391220Y-230703380D02*
X461391220Y-229703380D01*
X461724553Y-230417666D01*
X462057886Y-229703380D01*
X462057886Y-230703380D01*
X462438839Y-229703380D02*
X463105505Y-230703380D01*
X463105505Y-229703380D02*
X462438839Y-230703380D01*
X463629315Y-230131952D02*
X463534077Y-230084333D01*
X463486458Y-230036714D01*
X463438839Y-229941476D01*
X463438839Y-229893857D01*
X463486458Y-229798619D01*
X463534077Y-229751000D01*
X463629315Y-229703380D01*
X463819791Y-229703380D01*
X463915029Y-229751000D01*
X463962648Y-229798619D01*
X464010267Y-229893857D01*
X464010267Y-229941476D01*
X463962648Y-230036714D01*
X463915029Y-230084333D01*
X463819791Y-230131952D01*
X463629315Y-230131952D01*
X463534077Y-230179571D01*
X463486458Y-230227190D01*
X463438839Y-230322428D01*
X463438839Y-230512904D01*
X463486458Y-230608142D01*
X463534077Y-230655761D01*
X463629315Y-230703380D01*
X463819791Y-230703380D01*
X463915029Y-230655761D01*
X463962648Y-230608142D01*
X464010267Y-230512904D01*
X464010267Y-230322428D01*
X463962648Y-230227190D01*
X463915029Y-230179571D01*
X463819791Y-230131952D01*
X464391220Y-229798619D02*
X464438839Y-229751000D01*
X464534077Y-229703380D01*
X464772172Y-229703380D01*
X464867410Y-229751000D01*
X464915029Y-229798619D01*
X464962648Y-229893857D01*
X464962648Y-229989095D01*
X464915029Y-230131952D01*
X464343601Y-230703380D01*
X464962648Y-230703380D01*
X451866220Y-211653380D02*
X451866220Y-210653380D01*
X452199553Y-211367666D01*
X452532886Y-210653380D01*
X452532886Y-211653380D01*
X452913839Y-210653380D02*
X453580505Y-211653380D01*
X453580505Y-210653380D02*
X452913839Y-211653380D01*
X454104315Y-211081952D02*
X454009077Y-211034333D01*
X453961458Y-210986714D01*
X453913839Y-210891476D01*
X453913839Y-210843857D01*
X453961458Y-210748619D01*
X454009077Y-210701000D01*
X454104315Y-210653380D01*
X454294791Y-210653380D01*
X454390029Y-210701000D01*
X454437648Y-210748619D01*
X454485267Y-210843857D01*
X454485267Y-210891476D01*
X454437648Y-210986714D01*
X454390029Y-211034333D01*
X454294791Y-211081952D01*
X454104315Y-211081952D01*
X454009077Y-211129571D01*
X453961458Y-211177190D01*
X453913839Y-211272428D01*
X453913839Y-211462904D01*
X453961458Y-211558142D01*
X454009077Y-211605761D01*
X454104315Y-211653380D01*
X454294791Y-211653380D01*
X454390029Y-211605761D01*
X454437648Y-211558142D01*
X454485267Y-211462904D01*
X454485267Y-211272428D01*
X454437648Y-211177190D01*
X454390029Y-211129571D01*
X454294791Y-211081952D01*
X455437648Y-211653380D02*
X454866220Y-211653380D01*
X455151934Y-211653380D02*
X455151934Y-210653380D01*
X455056696Y-210796238D01*
X454961458Y-210891476D01*
X454866220Y-210939095D01*
X447103720Y-192603380D02*
X447103720Y-191603380D01*
X447437053Y-192317666D01*
X447770386Y-191603380D01*
X447770386Y-192603380D01*
X448151339Y-191603380D02*
X448818005Y-192603380D01*
X448818005Y-191603380D02*
X448151339Y-192603380D01*
X449341815Y-192031952D02*
X449246577Y-191984333D01*
X449198958Y-191936714D01*
X449151339Y-191841476D01*
X449151339Y-191793857D01*
X449198958Y-191698619D01*
X449246577Y-191651000D01*
X449341815Y-191603380D01*
X449532291Y-191603380D01*
X449627529Y-191651000D01*
X449675148Y-191698619D01*
X449722767Y-191793857D01*
X449722767Y-191841476D01*
X449675148Y-191936714D01*
X449627529Y-191984333D01*
X449532291Y-192031952D01*
X449341815Y-192031952D01*
X449246577Y-192079571D01*
X449198958Y-192127190D01*
X449151339Y-192222428D01*
X449151339Y-192412904D01*
X449198958Y-192508142D01*
X449246577Y-192555761D01*
X449341815Y-192603380D01*
X449532291Y-192603380D01*
X449627529Y-192555761D01*
X449675148Y-192508142D01*
X449722767Y-192412904D01*
X449722767Y-192222428D01*
X449675148Y-192127190D01*
X449627529Y-192079571D01*
X449532291Y-192031952D01*
X450341815Y-191603380D02*
X450437053Y-191603380D01*
X450532291Y-191651000D01*
X450579910Y-191698619D01*
X450627529Y-191793857D01*
X450675148Y-191984333D01*
X450675148Y-192222428D01*
X450627529Y-192412904D01*
X450579910Y-192508142D01*
X450532291Y-192555761D01*
X450437053Y-192603380D01*
X450341815Y-192603380D01*
X450246577Y-192555761D01*
X450198958Y-192508142D01*
X450151339Y-192412904D01*
X450103720Y-192222428D01*
X450103720Y-191984333D01*
X450151339Y-191793857D01*
X450198958Y-191698619D01*
X450246577Y-191651000D01*
X450341815Y-191603380D01*
X442341220Y-230703380D02*
X442341220Y-229703380D01*
X442674553Y-230417666D01*
X443007886Y-229703380D01*
X443007886Y-230703380D01*
X443388839Y-229703380D02*
X444055505Y-230703380D01*
X444055505Y-229703380D02*
X443388839Y-230703380D01*
X444341220Y-229703380D02*
X445007886Y-229703380D01*
X444579315Y-230703380D01*
X445341220Y-229798619D02*
X445388839Y-229751000D01*
X445484077Y-229703380D01*
X445722172Y-229703380D01*
X445817410Y-229751000D01*
X445865029Y-229798619D01*
X445912648Y-229893857D01*
X445912648Y-229989095D01*
X445865029Y-230131952D01*
X445293601Y-230703380D01*
X445912648Y-230703380D01*
X432816220Y-211653380D02*
X432816220Y-210653380D01*
X433149553Y-211367666D01*
X433482886Y-210653380D01*
X433482886Y-211653380D01*
X433863839Y-210653380D02*
X434530505Y-211653380D01*
X434530505Y-210653380D02*
X433863839Y-211653380D01*
X434816220Y-210653380D02*
X435482886Y-210653380D01*
X435054315Y-211653380D01*
X436387648Y-211653380D02*
X435816220Y-211653380D01*
X436101934Y-211653380D02*
X436101934Y-210653380D01*
X436006696Y-210796238D01*
X435911458Y-210891476D01*
X435816220Y-210939095D01*
X428053720Y-192603380D02*
X428053720Y-191603380D01*
X428387053Y-192317666D01*
X428720386Y-191603380D01*
X428720386Y-192603380D01*
X429101339Y-191603380D02*
X429768005Y-192603380D01*
X429768005Y-191603380D02*
X429101339Y-192603380D01*
X430053720Y-191603380D02*
X430720386Y-191603380D01*
X430291815Y-192603380D01*
X431291815Y-191603380D02*
X431387053Y-191603380D01*
X431482291Y-191651000D01*
X431529910Y-191698619D01*
X431577529Y-191793857D01*
X431625148Y-191984333D01*
X431625148Y-192222428D01*
X431577529Y-192412904D01*
X431529910Y-192508142D01*
X431482291Y-192555761D01*
X431387053Y-192603380D01*
X431291815Y-192603380D01*
X431196577Y-192555761D01*
X431148958Y-192508142D01*
X431101339Y-192412904D01*
X431053720Y-192222428D01*
X431053720Y-191984333D01*
X431101339Y-191793857D01*
X431148958Y-191698619D01*
X431196577Y-191651000D01*
X431291815Y-191603380D01*
X430434970Y-249753380D02*
X430434970Y-248753380D01*
X430768303Y-249467666D01*
X431101636Y-248753380D01*
X431101636Y-249753380D01*
X431482589Y-248753380D02*
X432149255Y-249753380D01*
X432149255Y-248753380D02*
X431482589Y-249753380D01*
X432958779Y-248753380D02*
X432768303Y-248753380D01*
X432673065Y-248801000D01*
X432625446Y-248848619D01*
X432530208Y-248991476D01*
X432482589Y-249181952D01*
X432482589Y-249562904D01*
X432530208Y-249658142D01*
X432577827Y-249705761D01*
X432673065Y-249753380D01*
X432863541Y-249753380D01*
X432958779Y-249705761D01*
X433006398Y-249658142D01*
X433054017Y-249562904D01*
X433054017Y-249324809D01*
X433006398Y-249229571D01*
X432958779Y-249181952D01*
X432863541Y-249134333D01*
X432673065Y-249134333D01*
X432577827Y-249181952D01*
X432530208Y-249229571D01*
X432482589Y-249324809D01*
X433387351Y-248753380D02*
X434006398Y-248753380D01*
X433673065Y-249134333D01*
X433815922Y-249134333D01*
X433911160Y-249181952D01*
X433958779Y-249229571D01*
X434006398Y-249324809D01*
X434006398Y-249562904D01*
X433958779Y-249658142D01*
X433911160Y-249705761D01*
X433815922Y-249753380D01*
X433530208Y-249753380D01*
X433434970Y-249705761D01*
X433387351Y-249658142D01*
X423291220Y-230703380D02*
X423291220Y-229703380D01*
X423624553Y-230417666D01*
X423957886Y-229703380D01*
X423957886Y-230703380D01*
X424338839Y-229703380D02*
X425005505Y-230703380D01*
X425005505Y-229703380D02*
X424338839Y-230703380D01*
X425815029Y-229703380D02*
X425624553Y-229703380D01*
X425529315Y-229751000D01*
X425481696Y-229798619D01*
X425386458Y-229941476D01*
X425338839Y-230131952D01*
X425338839Y-230512904D01*
X425386458Y-230608142D01*
X425434077Y-230655761D01*
X425529315Y-230703380D01*
X425719791Y-230703380D01*
X425815029Y-230655761D01*
X425862648Y-230608142D01*
X425910267Y-230512904D01*
X425910267Y-230274809D01*
X425862648Y-230179571D01*
X425815029Y-230131952D01*
X425719791Y-230084333D01*
X425529315Y-230084333D01*
X425434077Y-230131952D01*
X425386458Y-230179571D01*
X425338839Y-230274809D01*
X426291220Y-229798619D02*
X426338839Y-229751000D01*
X426434077Y-229703380D01*
X426672172Y-229703380D01*
X426767410Y-229751000D01*
X426815029Y-229798619D01*
X426862648Y-229893857D01*
X426862648Y-229989095D01*
X426815029Y-230131952D01*
X426243601Y-230703380D01*
X426862648Y-230703380D01*
X413766220Y-211653380D02*
X413766220Y-210653380D01*
X414099553Y-211367666D01*
X414432886Y-210653380D01*
X414432886Y-211653380D01*
X414813839Y-210653380D02*
X415480505Y-211653380D01*
X415480505Y-210653380D02*
X414813839Y-211653380D01*
X416290029Y-210653380D02*
X416099553Y-210653380D01*
X416004315Y-210701000D01*
X415956696Y-210748619D01*
X415861458Y-210891476D01*
X415813839Y-211081952D01*
X415813839Y-211462904D01*
X415861458Y-211558142D01*
X415909077Y-211605761D01*
X416004315Y-211653380D01*
X416194791Y-211653380D01*
X416290029Y-211605761D01*
X416337648Y-211558142D01*
X416385267Y-211462904D01*
X416385267Y-211224809D01*
X416337648Y-211129571D01*
X416290029Y-211081952D01*
X416194791Y-211034333D01*
X416004315Y-211034333D01*
X415909077Y-211081952D01*
X415861458Y-211129571D01*
X415813839Y-211224809D01*
X417337648Y-211653380D02*
X416766220Y-211653380D01*
X417051934Y-211653380D02*
X417051934Y-210653380D01*
X416956696Y-210796238D01*
X416861458Y-210891476D01*
X416766220Y-210939095D01*
X409003720Y-192603380D02*
X409003720Y-191603380D01*
X409337053Y-192317666D01*
X409670386Y-191603380D01*
X409670386Y-192603380D01*
X410051339Y-191603380D02*
X410718005Y-192603380D01*
X410718005Y-191603380D02*
X410051339Y-192603380D01*
X411527529Y-191603380D02*
X411337053Y-191603380D01*
X411241815Y-191651000D01*
X411194196Y-191698619D01*
X411098958Y-191841476D01*
X411051339Y-192031952D01*
X411051339Y-192412904D01*
X411098958Y-192508142D01*
X411146577Y-192555761D01*
X411241815Y-192603380D01*
X411432291Y-192603380D01*
X411527529Y-192555761D01*
X411575148Y-192508142D01*
X411622767Y-192412904D01*
X411622767Y-192174809D01*
X411575148Y-192079571D01*
X411527529Y-192031952D01*
X411432291Y-191984333D01*
X411241815Y-191984333D01*
X411146577Y-192031952D01*
X411098958Y-192079571D01*
X411051339Y-192174809D01*
X412241815Y-191603380D02*
X412337053Y-191603380D01*
X412432291Y-191651000D01*
X412479910Y-191698619D01*
X412527529Y-191793857D01*
X412575148Y-191984333D01*
X412575148Y-192222428D01*
X412527529Y-192412904D01*
X412479910Y-192508142D01*
X412432291Y-192555761D01*
X412337053Y-192603380D01*
X412241815Y-192603380D01*
X412146577Y-192555761D01*
X412098958Y-192508142D01*
X412051339Y-192412904D01*
X412003720Y-192222428D01*
X412003720Y-191984333D01*
X412051339Y-191793857D01*
X412098958Y-191698619D01*
X412146577Y-191651000D01*
X412241815Y-191603380D01*
X404241220Y-230703380D02*
X404241220Y-229703380D01*
X404574553Y-230417666D01*
X404907886Y-229703380D01*
X404907886Y-230703380D01*
X405288839Y-229703380D02*
X405955505Y-230703380D01*
X405955505Y-229703380D02*
X405288839Y-230703380D01*
X406812648Y-229703380D02*
X406336458Y-229703380D01*
X406288839Y-230179571D01*
X406336458Y-230131952D01*
X406431696Y-230084333D01*
X406669791Y-230084333D01*
X406765029Y-230131952D01*
X406812648Y-230179571D01*
X406860267Y-230274809D01*
X406860267Y-230512904D01*
X406812648Y-230608142D01*
X406765029Y-230655761D01*
X406669791Y-230703380D01*
X406431696Y-230703380D01*
X406336458Y-230655761D01*
X406288839Y-230608142D01*
X407241220Y-229798619D02*
X407288839Y-229751000D01*
X407384077Y-229703380D01*
X407622172Y-229703380D01*
X407717410Y-229751000D01*
X407765029Y-229798619D01*
X407812648Y-229893857D01*
X407812648Y-229989095D01*
X407765029Y-230131952D01*
X407193601Y-230703380D01*
X407812648Y-230703380D01*
X394716220Y-211653380D02*
X394716220Y-210653380D01*
X395049553Y-211367666D01*
X395382886Y-210653380D01*
X395382886Y-211653380D01*
X395763839Y-210653380D02*
X396430505Y-211653380D01*
X396430505Y-210653380D02*
X395763839Y-211653380D01*
X397287648Y-210653380D02*
X396811458Y-210653380D01*
X396763839Y-211129571D01*
X396811458Y-211081952D01*
X396906696Y-211034333D01*
X397144791Y-211034333D01*
X397240029Y-211081952D01*
X397287648Y-211129571D01*
X397335267Y-211224809D01*
X397335267Y-211462904D01*
X397287648Y-211558142D01*
X397240029Y-211605761D01*
X397144791Y-211653380D01*
X396906696Y-211653380D01*
X396811458Y-211605761D01*
X396763839Y-211558142D01*
X398287648Y-211653380D02*
X397716220Y-211653380D01*
X398001934Y-211653380D02*
X398001934Y-210653380D01*
X397906696Y-210796238D01*
X397811458Y-210891476D01*
X397716220Y-210939095D01*
X389953720Y-192603380D02*
X389953720Y-191603380D01*
X390287053Y-192317666D01*
X390620386Y-191603380D01*
X390620386Y-192603380D01*
X391001339Y-191603380D02*
X391668005Y-192603380D01*
X391668005Y-191603380D02*
X391001339Y-192603380D01*
X392525148Y-191603380D02*
X392048958Y-191603380D01*
X392001339Y-192079571D01*
X392048958Y-192031952D01*
X392144196Y-191984333D01*
X392382291Y-191984333D01*
X392477529Y-192031952D01*
X392525148Y-192079571D01*
X392572767Y-192174809D01*
X392572767Y-192412904D01*
X392525148Y-192508142D01*
X392477529Y-192555761D01*
X392382291Y-192603380D01*
X392144196Y-192603380D01*
X392048958Y-192555761D01*
X392001339Y-192508142D01*
X393191815Y-191603380D02*
X393287053Y-191603380D01*
X393382291Y-191651000D01*
X393429910Y-191698619D01*
X393477529Y-191793857D01*
X393525148Y-191984333D01*
X393525148Y-192222428D01*
X393477529Y-192412904D01*
X393429910Y-192508142D01*
X393382291Y-192555761D01*
X393287053Y-192603380D01*
X393191815Y-192603380D01*
X393096577Y-192555761D01*
X393048958Y-192508142D01*
X393001339Y-192412904D01*
X392953720Y-192222428D01*
X392953720Y-191984333D01*
X393001339Y-191793857D01*
X393048958Y-191698619D01*
X393096577Y-191651000D01*
X393191815Y-191603380D01*
X387572470Y-249753380D02*
X387572470Y-248753380D01*
X387905803Y-249467666D01*
X388239136Y-248753380D01*
X388239136Y-249753380D01*
X388620089Y-248753380D02*
X389286755Y-249753380D01*
X389286755Y-248753380D02*
X388620089Y-249753380D01*
X390096279Y-249086714D02*
X390096279Y-249753380D01*
X389858184Y-248705761D02*
X389620089Y-249420047D01*
X390239136Y-249420047D01*
X390524851Y-248753380D02*
X391143898Y-248753380D01*
X390810565Y-249134333D01*
X390953422Y-249134333D01*
X391048660Y-249181952D01*
X391096279Y-249229571D01*
X391143898Y-249324809D01*
X391143898Y-249562904D01*
X391096279Y-249658142D01*
X391048660Y-249705761D01*
X390953422Y-249753380D01*
X390667708Y-249753380D01*
X390572470Y-249705761D01*
X390524851Y-249658142D01*
X385191220Y-230703380D02*
X385191220Y-229703380D01*
X385524553Y-230417666D01*
X385857886Y-229703380D01*
X385857886Y-230703380D01*
X386238839Y-229703380D02*
X386905505Y-230703380D01*
X386905505Y-229703380D02*
X386238839Y-230703380D01*
X387715029Y-230036714D02*
X387715029Y-230703380D01*
X387476934Y-229655761D02*
X387238839Y-230370047D01*
X387857886Y-230370047D01*
X388191220Y-229798619D02*
X388238839Y-229751000D01*
X388334077Y-229703380D01*
X388572172Y-229703380D01*
X388667410Y-229751000D01*
X388715029Y-229798619D01*
X388762648Y-229893857D01*
X388762648Y-229989095D01*
X388715029Y-230131952D01*
X388143601Y-230703380D01*
X388762648Y-230703380D01*
X375666220Y-211653380D02*
X375666220Y-210653380D01*
X375999553Y-211367666D01*
X376332886Y-210653380D01*
X376332886Y-211653380D01*
X376713839Y-210653380D02*
X377380505Y-211653380D01*
X377380505Y-210653380D02*
X376713839Y-211653380D01*
X378190029Y-210986714D02*
X378190029Y-211653380D01*
X377951934Y-210605761D02*
X377713839Y-211320047D01*
X378332886Y-211320047D01*
X379237648Y-211653380D02*
X378666220Y-211653380D01*
X378951934Y-211653380D02*
X378951934Y-210653380D01*
X378856696Y-210796238D01*
X378761458Y-210891476D01*
X378666220Y-210939095D01*
X370903720Y-192603380D02*
X370903720Y-191603380D01*
X371237053Y-192317666D01*
X371570386Y-191603380D01*
X371570386Y-192603380D01*
X371951339Y-191603380D02*
X372618005Y-192603380D01*
X372618005Y-191603380D02*
X371951339Y-192603380D01*
X373427529Y-191936714D02*
X373427529Y-192603380D01*
X373189434Y-191555761D02*
X372951339Y-192270047D01*
X373570386Y-192270047D01*
X374141815Y-191603380D02*
X374237053Y-191603380D01*
X374332291Y-191651000D01*
X374379910Y-191698619D01*
X374427529Y-191793857D01*
X374475148Y-191984333D01*
X374475148Y-192222428D01*
X374427529Y-192412904D01*
X374379910Y-192508142D01*
X374332291Y-192555761D01*
X374237053Y-192603380D01*
X374141815Y-192603380D01*
X374046577Y-192555761D01*
X373998958Y-192508142D01*
X373951339Y-192412904D01*
X373903720Y-192222428D01*
X373903720Y-191984333D01*
X373951339Y-191793857D01*
X373998958Y-191698619D01*
X374046577Y-191651000D01*
X374141815Y-191603380D01*
X356616220Y-249753380D02*
X356616220Y-248753380D01*
X356949553Y-249467666D01*
X357282886Y-248753380D01*
X357282886Y-249753380D01*
X357663839Y-248753380D02*
X358330505Y-249753380D01*
X358330505Y-248753380D02*
X357663839Y-249753380D01*
X358616220Y-248753380D02*
X359235267Y-248753380D01*
X358901934Y-249134333D01*
X359044791Y-249134333D01*
X359140029Y-249181952D01*
X359187648Y-249229571D01*
X359235267Y-249324809D01*
X359235267Y-249562904D01*
X359187648Y-249658142D01*
X359140029Y-249705761D01*
X359044791Y-249753380D01*
X358759077Y-249753380D01*
X358663839Y-249705761D01*
X358616220Y-249658142D01*
X359568601Y-248753380D02*
X360187648Y-248753380D01*
X359854315Y-249134333D01*
X359997172Y-249134333D01*
X360092410Y-249181952D01*
X360140029Y-249229571D01*
X360187648Y-249324809D01*
X360187648Y-249562904D01*
X360140029Y-249658142D01*
X360092410Y-249705761D01*
X359997172Y-249753380D01*
X359711458Y-249753380D01*
X359616220Y-249705761D01*
X359568601Y-249658142D01*
X366141220Y-230703380D02*
X366141220Y-229703380D01*
X366474553Y-230417666D01*
X366807886Y-229703380D01*
X366807886Y-230703380D01*
X367188839Y-229703380D02*
X367855505Y-230703380D01*
X367855505Y-229703380D02*
X367188839Y-230703380D01*
X368141220Y-229703380D02*
X368760267Y-229703380D01*
X368426934Y-230084333D01*
X368569791Y-230084333D01*
X368665029Y-230131952D01*
X368712648Y-230179571D01*
X368760267Y-230274809D01*
X368760267Y-230512904D01*
X368712648Y-230608142D01*
X368665029Y-230655761D01*
X368569791Y-230703380D01*
X368284077Y-230703380D01*
X368188839Y-230655761D01*
X368141220Y-230608142D01*
X369141220Y-229798619D02*
X369188839Y-229751000D01*
X369284077Y-229703380D01*
X369522172Y-229703380D01*
X369617410Y-229751000D01*
X369665029Y-229798619D01*
X369712648Y-229893857D01*
X369712648Y-229989095D01*
X369665029Y-230131952D01*
X369093601Y-230703380D01*
X369712648Y-230703380D01*
X356616220Y-211653380D02*
X356616220Y-210653380D01*
X356949553Y-211367666D01*
X357282886Y-210653380D01*
X357282886Y-211653380D01*
X357663839Y-210653380D02*
X358330505Y-211653380D01*
X358330505Y-210653380D02*
X357663839Y-211653380D01*
X358616220Y-210653380D02*
X359235267Y-210653380D01*
X358901934Y-211034333D01*
X359044791Y-211034333D01*
X359140029Y-211081952D01*
X359187648Y-211129571D01*
X359235267Y-211224809D01*
X359235267Y-211462904D01*
X359187648Y-211558142D01*
X359140029Y-211605761D01*
X359044791Y-211653380D01*
X358759077Y-211653380D01*
X358663839Y-211605761D01*
X358616220Y-211558142D01*
X360187648Y-211653380D02*
X359616220Y-211653380D01*
X359901934Y-211653380D02*
X359901934Y-210653380D01*
X359806696Y-210796238D01*
X359711458Y-210891476D01*
X359616220Y-210939095D01*
X351853720Y-192603380D02*
X351853720Y-191603380D01*
X352187053Y-192317666D01*
X352520386Y-191603380D01*
X352520386Y-192603380D01*
X352901339Y-191603380D02*
X353568005Y-192603380D01*
X353568005Y-191603380D02*
X352901339Y-192603380D01*
X353853720Y-191603380D02*
X354472767Y-191603380D01*
X354139434Y-191984333D01*
X354282291Y-191984333D01*
X354377529Y-192031952D01*
X354425148Y-192079571D01*
X354472767Y-192174809D01*
X354472767Y-192412904D01*
X354425148Y-192508142D01*
X354377529Y-192555761D01*
X354282291Y-192603380D01*
X353996577Y-192603380D01*
X353901339Y-192555761D01*
X353853720Y-192508142D01*
X355091815Y-191603380D02*
X355187053Y-191603380D01*
X355282291Y-191651000D01*
X355329910Y-191698619D01*
X355377529Y-191793857D01*
X355425148Y-191984333D01*
X355425148Y-192222428D01*
X355377529Y-192412904D01*
X355329910Y-192508142D01*
X355282291Y-192555761D01*
X355187053Y-192603380D01*
X355091815Y-192603380D01*
X354996577Y-192555761D01*
X354948958Y-192508142D01*
X354901339Y-192412904D01*
X354853720Y-192222428D01*
X354853720Y-191984333D01*
X354901339Y-191793857D01*
X354948958Y-191698619D01*
X354996577Y-191651000D01*
X355091815Y-191603380D01*
X337566220Y-249753380D02*
X337566220Y-248753380D01*
X337899553Y-249467666D01*
X338232886Y-248753380D01*
X338232886Y-249753380D01*
X338613839Y-248753380D02*
X339280505Y-249753380D01*
X339280505Y-248753380D02*
X338613839Y-249753380D01*
X339613839Y-248848619D02*
X339661458Y-248801000D01*
X339756696Y-248753380D01*
X339994791Y-248753380D01*
X340090029Y-248801000D01*
X340137648Y-248848619D01*
X340185267Y-248943857D01*
X340185267Y-249039095D01*
X340137648Y-249181952D01*
X339566220Y-249753380D01*
X340185267Y-249753380D01*
X340518601Y-248753380D02*
X341137648Y-248753380D01*
X340804315Y-249134333D01*
X340947172Y-249134333D01*
X341042410Y-249181952D01*
X341090029Y-249229571D01*
X341137648Y-249324809D01*
X341137648Y-249562904D01*
X341090029Y-249658142D01*
X341042410Y-249705761D01*
X340947172Y-249753380D01*
X340661458Y-249753380D01*
X340566220Y-249705761D01*
X340518601Y-249658142D01*
X347091220Y-230703380D02*
X347091220Y-229703380D01*
X347424553Y-230417666D01*
X347757886Y-229703380D01*
X347757886Y-230703380D01*
X348138839Y-229703380D02*
X348805505Y-230703380D01*
X348805505Y-229703380D02*
X348138839Y-230703380D01*
X349138839Y-229798619D02*
X349186458Y-229751000D01*
X349281696Y-229703380D01*
X349519791Y-229703380D01*
X349615029Y-229751000D01*
X349662648Y-229798619D01*
X349710267Y-229893857D01*
X349710267Y-229989095D01*
X349662648Y-230131952D01*
X349091220Y-230703380D01*
X349710267Y-230703380D01*
X350091220Y-229798619D02*
X350138839Y-229751000D01*
X350234077Y-229703380D01*
X350472172Y-229703380D01*
X350567410Y-229751000D01*
X350615029Y-229798619D01*
X350662648Y-229893857D01*
X350662648Y-229989095D01*
X350615029Y-230131952D01*
X350043601Y-230703380D01*
X350662648Y-230703380D01*
X337566220Y-211653380D02*
X337566220Y-210653380D01*
X337899553Y-211367666D01*
X338232886Y-210653380D01*
X338232886Y-211653380D01*
X338613839Y-210653380D02*
X339280505Y-211653380D01*
X339280505Y-210653380D02*
X338613839Y-211653380D01*
X339613839Y-210748619D02*
X339661458Y-210701000D01*
X339756696Y-210653380D01*
X339994791Y-210653380D01*
X340090029Y-210701000D01*
X340137648Y-210748619D01*
X340185267Y-210843857D01*
X340185267Y-210939095D01*
X340137648Y-211081952D01*
X339566220Y-211653380D01*
X340185267Y-211653380D01*
X341137648Y-211653380D02*
X340566220Y-211653380D01*
X340851934Y-211653380D02*
X340851934Y-210653380D01*
X340756696Y-210796238D01*
X340661458Y-210891476D01*
X340566220Y-210939095D01*
X332803720Y-192603380D02*
X332803720Y-191603380D01*
X333137053Y-192317666D01*
X333470386Y-191603380D01*
X333470386Y-192603380D01*
X333851339Y-191603380D02*
X334518005Y-192603380D01*
X334518005Y-191603380D02*
X333851339Y-192603380D01*
X334851339Y-191698619D02*
X334898958Y-191651000D01*
X334994196Y-191603380D01*
X335232291Y-191603380D01*
X335327529Y-191651000D01*
X335375148Y-191698619D01*
X335422767Y-191793857D01*
X335422767Y-191889095D01*
X335375148Y-192031952D01*
X334803720Y-192603380D01*
X335422767Y-192603380D01*
X336041815Y-191603380D02*
X336137053Y-191603380D01*
X336232291Y-191651000D01*
X336279910Y-191698619D01*
X336327529Y-191793857D01*
X336375148Y-191984333D01*
X336375148Y-192222428D01*
X336327529Y-192412904D01*
X336279910Y-192508142D01*
X336232291Y-192555761D01*
X336137053Y-192603380D01*
X336041815Y-192603380D01*
X335946577Y-192555761D01*
X335898958Y-192508142D01*
X335851339Y-192412904D01*
X335803720Y-192222428D01*
X335803720Y-191984333D01*
X335851339Y-191793857D01*
X335898958Y-191698619D01*
X335946577Y-191651000D01*
X336041815Y-191603380D01*
X318516220Y-249753380D02*
X318516220Y-248753380D01*
X318849553Y-249467666D01*
X319182886Y-248753380D01*
X319182886Y-249753380D01*
X319563839Y-248753380D02*
X320230505Y-249753380D01*
X320230505Y-248753380D02*
X319563839Y-249753380D01*
X321135267Y-249753380D02*
X320563839Y-249753380D01*
X320849553Y-249753380D02*
X320849553Y-248753380D01*
X320754315Y-248896238D01*
X320659077Y-248991476D01*
X320563839Y-249039095D01*
X321468601Y-248753380D02*
X322087648Y-248753380D01*
X321754315Y-249134333D01*
X321897172Y-249134333D01*
X321992410Y-249181952D01*
X322040029Y-249229571D01*
X322087648Y-249324809D01*
X322087648Y-249562904D01*
X322040029Y-249658142D01*
X321992410Y-249705761D01*
X321897172Y-249753380D01*
X321611458Y-249753380D01*
X321516220Y-249705761D01*
X321468601Y-249658142D01*
X328041220Y-230703380D02*
X328041220Y-229703380D01*
X328374553Y-230417666D01*
X328707886Y-229703380D01*
X328707886Y-230703380D01*
X329088839Y-229703380D02*
X329755505Y-230703380D01*
X329755505Y-229703380D02*
X329088839Y-230703380D01*
X330660267Y-230703380D02*
X330088839Y-230703380D01*
X330374553Y-230703380D02*
X330374553Y-229703380D01*
X330279315Y-229846238D01*
X330184077Y-229941476D01*
X330088839Y-229989095D01*
X331041220Y-229798619D02*
X331088839Y-229751000D01*
X331184077Y-229703380D01*
X331422172Y-229703380D01*
X331517410Y-229751000D01*
X331565029Y-229798619D01*
X331612648Y-229893857D01*
X331612648Y-229989095D01*
X331565029Y-230131952D01*
X330993601Y-230703380D01*
X331612648Y-230703380D01*
X318516220Y-211653380D02*
X318516220Y-210653380D01*
X318849553Y-211367666D01*
X319182886Y-210653380D01*
X319182886Y-211653380D01*
X319563839Y-210653380D02*
X320230505Y-211653380D01*
X320230505Y-210653380D02*
X319563839Y-211653380D01*
X321135267Y-211653380D02*
X320563839Y-211653380D01*
X320849553Y-211653380D02*
X320849553Y-210653380D01*
X320754315Y-210796238D01*
X320659077Y-210891476D01*
X320563839Y-210939095D01*
X322087648Y-211653380D02*
X321516220Y-211653380D01*
X321801934Y-211653380D02*
X321801934Y-210653380D01*
X321706696Y-210796238D01*
X321611458Y-210891476D01*
X321516220Y-210939095D01*
X313753720Y-192603380D02*
X313753720Y-191603380D01*
X314087053Y-192317666D01*
X314420386Y-191603380D01*
X314420386Y-192603380D01*
X314801339Y-191603380D02*
X315468005Y-192603380D01*
X315468005Y-191603380D02*
X314801339Y-192603380D01*
X316372767Y-192603380D02*
X315801339Y-192603380D01*
X316087053Y-192603380D02*
X316087053Y-191603380D01*
X315991815Y-191746238D01*
X315896577Y-191841476D01*
X315801339Y-191889095D01*
X316991815Y-191603380D02*
X317087053Y-191603380D01*
X317182291Y-191651000D01*
X317229910Y-191698619D01*
X317277529Y-191793857D01*
X317325148Y-191984333D01*
X317325148Y-192222428D01*
X317277529Y-192412904D01*
X317229910Y-192508142D01*
X317182291Y-192555761D01*
X317087053Y-192603380D01*
X316991815Y-192603380D01*
X316896577Y-192555761D01*
X316848958Y-192508142D01*
X316801339Y-192412904D01*
X316753720Y-192222428D01*
X316753720Y-191984333D01*
X316801339Y-191793857D01*
X316848958Y-191698619D01*
X316896577Y-191651000D01*
X316991815Y-191603380D01*
X297084970Y-249753380D02*
X297084970Y-248753380D01*
X297418303Y-249467666D01*
X297751636Y-248753380D01*
X297751636Y-249753380D01*
X298132589Y-248753380D02*
X298799255Y-249753380D01*
X298799255Y-248753380D02*
X298132589Y-249753380D01*
X299370684Y-248753380D02*
X299465922Y-248753380D01*
X299561160Y-248801000D01*
X299608779Y-248848619D01*
X299656398Y-248943857D01*
X299704017Y-249134333D01*
X299704017Y-249372428D01*
X299656398Y-249562904D01*
X299608779Y-249658142D01*
X299561160Y-249705761D01*
X299465922Y-249753380D01*
X299370684Y-249753380D01*
X299275446Y-249705761D01*
X299227827Y-249658142D01*
X299180208Y-249562904D01*
X299132589Y-249372428D01*
X299132589Y-249134333D01*
X299180208Y-248943857D01*
X299227827Y-248848619D01*
X299275446Y-248801000D01*
X299370684Y-248753380D01*
X300037351Y-248753380D02*
X300656398Y-248753380D01*
X300323065Y-249134333D01*
X300465922Y-249134333D01*
X300561160Y-249181952D01*
X300608779Y-249229571D01*
X300656398Y-249324809D01*
X300656398Y-249562904D01*
X300608779Y-249658142D01*
X300561160Y-249705761D01*
X300465922Y-249753380D01*
X300180208Y-249753380D01*
X300084970Y-249705761D01*
X300037351Y-249658142D01*
X301847470Y-230703380D02*
X301847470Y-229703380D01*
X302180803Y-230417666D01*
X302514136Y-229703380D01*
X302514136Y-230703380D01*
X302895089Y-229703380D02*
X303561755Y-230703380D01*
X303561755Y-229703380D02*
X302895089Y-230703380D01*
X304133184Y-229703380D02*
X304228422Y-229703380D01*
X304323660Y-229751000D01*
X304371279Y-229798619D01*
X304418898Y-229893857D01*
X304466517Y-230084333D01*
X304466517Y-230322428D01*
X304418898Y-230512904D01*
X304371279Y-230608142D01*
X304323660Y-230655761D01*
X304228422Y-230703380D01*
X304133184Y-230703380D01*
X304037946Y-230655761D01*
X303990327Y-230608142D01*
X303942708Y-230512904D01*
X303895089Y-230322428D01*
X303895089Y-230084333D01*
X303942708Y-229893857D01*
X303990327Y-229798619D01*
X304037946Y-229751000D01*
X304133184Y-229703380D01*
X304847470Y-229798619D02*
X304895089Y-229751000D01*
X304990327Y-229703380D01*
X305228422Y-229703380D01*
X305323660Y-229751000D01*
X305371279Y-229798619D01*
X305418898Y-229893857D01*
X305418898Y-229989095D01*
X305371279Y-230131952D01*
X304799851Y-230703380D01*
X305418898Y-230703380D01*
X297084970Y-211653380D02*
X297084970Y-210653380D01*
X297418303Y-211367666D01*
X297751636Y-210653380D01*
X297751636Y-211653380D01*
X298132589Y-210653380D02*
X298799255Y-211653380D01*
X298799255Y-210653380D02*
X298132589Y-211653380D01*
X299370684Y-210653380D02*
X299465922Y-210653380D01*
X299561160Y-210701000D01*
X299608779Y-210748619D01*
X299656398Y-210843857D01*
X299704017Y-211034333D01*
X299704017Y-211272428D01*
X299656398Y-211462904D01*
X299608779Y-211558142D01*
X299561160Y-211605761D01*
X299465922Y-211653380D01*
X299370684Y-211653380D01*
X299275446Y-211605761D01*
X299227827Y-211558142D01*
X299180208Y-211462904D01*
X299132589Y-211272428D01*
X299132589Y-211034333D01*
X299180208Y-210843857D01*
X299227827Y-210748619D01*
X299275446Y-210701000D01*
X299370684Y-210653380D01*
X300656398Y-211653380D02*
X300084970Y-211653380D01*
X300370684Y-211653380D02*
X300370684Y-210653380D01*
X300275446Y-210796238D01*
X300180208Y-210891476D01*
X300084970Y-210939095D01*
X294703720Y-192603380D02*
X294703720Y-191603380D01*
X295037053Y-192317666D01*
X295370386Y-191603380D01*
X295370386Y-192603380D01*
X295751339Y-191603380D02*
X296418005Y-192603380D01*
X296418005Y-191603380D02*
X295751339Y-192603380D01*
X296989434Y-191603380D02*
X297084672Y-191603380D01*
X297179910Y-191651000D01*
X297227529Y-191698619D01*
X297275148Y-191793857D01*
X297322767Y-191984333D01*
X297322767Y-192222428D01*
X297275148Y-192412904D01*
X297227529Y-192508142D01*
X297179910Y-192555761D01*
X297084672Y-192603380D01*
X296989434Y-192603380D01*
X296894196Y-192555761D01*
X296846577Y-192508142D01*
X296798958Y-192412904D01*
X296751339Y-192222428D01*
X296751339Y-191984333D01*
X296798958Y-191793857D01*
X296846577Y-191698619D01*
X296894196Y-191651000D01*
X296989434Y-191603380D01*
X297941815Y-191603380D02*
X298037053Y-191603380D01*
X298132291Y-191651000D01*
X298179910Y-191698619D01*
X298227529Y-191793857D01*
X298275148Y-191984333D01*
X298275148Y-192222428D01*
X298227529Y-192412904D01*
X298179910Y-192508142D01*
X298132291Y-192555761D01*
X298037053Y-192603380D01*
X297941815Y-192603380D01*
X297846577Y-192555761D01*
X297798958Y-192508142D01*
X297751339Y-192412904D01*
X297703720Y-192222428D01*
X297703720Y-191984333D01*
X297751339Y-191793857D01*
X297798958Y-191698619D01*
X297846577Y-191651000D01*
X297941815Y-191603380D01*
X281604446Y-242391130D02*
X281604446Y-243105416D01*
X281556827Y-243248273D01*
X281461589Y-243343511D01*
X281318732Y-243391130D01*
X281223494Y-243391130D01*
X282033018Y-242486369D02*
X282080637Y-242438750D01*
X282175875Y-242391130D01*
X282413970Y-242391130D01*
X282509208Y-242438750D01*
X282556827Y-242486369D01*
X282604446Y-242581607D01*
X282604446Y-242676845D01*
X282556827Y-242819702D01*
X281985399Y-243391130D01*
X282604446Y-243391130D01*
X281606666Y-202862380D02*
X281606666Y-203576666D01*
X281559047Y-203719523D01*
X281463809Y-203814761D01*
X281320952Y-203862380D01*
X281225714Y-203862380D01*
X282606666Y-203862380D02*
X282035238Y-203862380D01*
X282320952Y-203862380D02*
X282320952Y-202862380D01*
X282225714Y-203005238D01*
X282130476Y-203100476D01*
X282035238Y-203148095D01*
X261286666Y-192543630D02*
X261286666Y-193257916D01*
X261239047Y-193400773D01*
X261143809Y-193496011D01*
X261000952Y-193543630D01*
X260905714Y-193543630D01*
X261953333Y-192543630D02*
X262048571Y-192543630D01*
X262143809Y-192591250D01*
X262191428Y-192638869D01*
X262239047Y-192734107D01*
X262286666Y-192924583D01*
X262286666Y-193162678D01*
X262239047Y-193353154D01*
X262191428Y-193448392D01*
X262143809Y-193496011D01*
X262048571Y-193543630D01*
X261953333Y-193543630D01*
X261858095Y-193496011D01*
X261810476Y-193448392D01*
X261762857Y-193353154D01*
X261715238Y-193162678D01*
X261715238Y-192924583D01*
X261762857Y-192734107D01*
X261810476Y-192638869D01*
X261858095Y-192591250D01*
X261953333Y-192543630D01*
X564784970Y-185321130D02*
X564784970Y-184321130D01*
X564784970Y-184797321D02*
X565356398Y-184797321D01*
X565356398Y-185321130D02*
X565356398Y-184321130D01*
X565737351Y-184321130D02*
X566404017Y-184321130D01*
X565975446Y-185321130D01*
X473106845Y-266283630D02*
X473106845Y-265283630D01*
X473106845Y-265759821D02*
X473678273Y-265759821D01*
X473678273Y-266283630D02*
X473678273Y-265283630D01*
X474583035Y-265283630D02*
X474392559Y-265283630D01*
X474297321Y-265331250D01*
X474249702Y-265378869D01*
X474154464Y-265521726D01*
X474106845Y-265712202D01*
X474106845Y-266093154D01*
X474154464Y-266188392D01*
X474202083Y-266236011D01*
X474297321Y-266283630D01*
X474487797Y-266283630D01*
X474583035Y-266236011D01*
X474630654Y-266188392D01*
X474678273Y-266093154D01*
X474678273Y-265855059D01*
X474630654Y-265759821D01*
X474583035Y-265712202D01*
X474487797Y-265664583D01*
X474297321Y-265664583D01*
X474202083Y-265712202D01*
X474154464Y-265759821D01*
X474106845Y-265855059D01*
X564784970Y-266283630D02*
X564784970Y-265283630D01*
X564784970Y-265759821D02*
X565356398Y-265759821D01*
X565356398Y-266283630D02*
X565356398Y-265283630D01*
X566308779Y-265283630D02*
X565832589Y-265283630D01*
X565784970Y-265759821D01*
X565832589Y-265712202D01*
X565927827Y-265664583D01*
X566165922Y-265664583D01*
X566261160Y-265712202D01*
X566308779Y-265759821D01*
X566356398Y-265855059D01*
X566356398Y-266093154D01*
X566308779Y-266188392D01*
X566261160Y-266236011D01*
X566165922Y-266283630D01*
X565927827Y-266283630D01*
X565832589Y-266236011D01*
X565784970Y-266188392D01*
X473106845Y-185321130D02*
X473106845Y-184321130D01*
X473106845Y-184797321D02*
X473678273Y-184797321D01*
X473678273Y-185321130D02*
X473678273Y-184321130D01*
X474583035Y-184654464D02*
X474583035Y-185321130D01*
X474344940Y-184273511D02*
X474106845Y-184987797D01*
X474725892Y-184987797D01*
X379047470Y-185321130D02*
X379047470Y-184321130D01*
X379047470Y-184797321D02*
X379618898Y-184797321D01*
X379618898Y-185321130D02*
X379618898Y-184321130D01*
X379999851Y-184321130D02*
X380618898Y-184321130D01*
X380285565Y-184702083D01*
X380428422Y-184702083D01*
X380523660Y-184749702D01*
X380571279Y-184797321D01*
X380618898Y-184892559D01*
X380618898Y-185130654D01*
X380571279Y-185225892D01*
X380523660Y-185273511D01*
X380428422Y-185321130D01*
X380142708Y-185321130D01*
X380047470Y-185273511D01*
X379999851Y-185225892D01*
X379047470Y-266283630D02*
X379047470Y-265283630D01*
X379047470Y-265759821D02*
X379618898Y-265759821D01*
X379618898Y-266283630D02*
X379618898Y-265283630D01*
X380047470Y-265378869D02*
X380095089Y-265331250D01*
X380190327Y-265283630D01*
X380428422Y-265283630D01*
X380523660Y-265331250D01*
X380571279Y-265378869D01*
X380618898Y-265474107D01*
X380618898Y-265569345D01*
X380571279Y-265712202D01*
X379999851Y-266283630D01*
X380618898Y-266283630D01*
X288559970Y-266283630D02*
X288559970Y-265283630D01*
X288559970Y-265759821D02*
X289131398Y-265759821D01*
X289131398Y-266283630D02*
X289131398Y-265283630D01*
X290131398Y-266283630D02*
X289559970Y-266283630D01*
X289845684Y-266283630D02*
X289845684Y-265283630D01*
X289750446Y-265426488D01*
X289655208Y-265521726D01*
X289559970Y-265569345D01*
X288559970Y-185321130D02*
X288559970Y-184321130D01*
X288559970Y-184797321D02*
X289131398Y-184797321D01*
X289131398Y-185321130D02*
X289131398Y-184321130D01*
X289798065Y-184321130D02*
X289893303Y-184321130D01*
X289988541Y-184368750D01*
X290036160Y-184416369D01*
X290083779Y-184511607D01*
X290131398Y-184702083D01*
X290131398Y-184940178D01*
X290083779Y-185130654D01*
X290036160Y-185225892D01*
X289988541Y-185273511D01*
X289893303Y-185321130D01*
X289798065Y-185321130D01*
X289702827Y-185273511D01*
X289655208Y-185225892D01*
X289607589Y-185130654D01*
X289559970Y-184940178D01*
X289559970Y-184702083D01*
X289607589Y-184511607D01*
X289655208Y-184416369D01*
X289702827Y-184368750D01*
X289798065Y-184321130D01*
M02*
