G04 #@! TF.GenerationSoftware,KiCad,Pcbnew,(5.1.5)-3*
G04 #@! TF.CreationDate,2021-01-28T08:37:11+08:00*
G04 #@! TF.ProjectId,k54,6b35342e-6b69-4636-9164-5f7063625858,rev?*
G04 #@! TF.SameCoordinates,Original*
G04 #@! TF.FileFunction,Copper,L2,Bot*
G04 #@! TF.FilePolarity,Positive*
%FSLAX46Y46*%
G04 Gerber Fmt 4.6, Leading zero omitted, Abs format (unit mm)*
G04 Created by KiCad (PCBNEW (5.1.5)-3) date 2021-01-28 08:37:11*
%MOMM*%
%LPD*%
G04 APERTURE LIST*
%ADD10C,0.100000*%
%ADD11C,1.198000*%
%ADD12R,1.198000X1.198000*%
%ADD13O,1.700000X1.700000*%
%ADD14R,1.700000X1.700000*%
%ADD15C,2.200000*%
%ADD16R,1.000000X1.500000*%
%ADD17R,1.500000X1.000000*%
%ADD18C,4.500000*%
%ADD19R,0.900000X0.800000*%
%ADD20C,0.800000*%
%ADD21C,0.250000*%
G04 APERTURE END LIST*
D10*
G36*
X285380000Y-228300000D02*
G01*
X284880000Y-228300000D01*
X284880000Y-228900000D01*
X285380000Y-228900000D01*
X285380000Y-228300000D01*
G37*
G04 #@! TA.AperFunction,SMDPad,CuDef*
G36*
X264509505Y-202501204D02*
G01*
X264533773Y-202504804D01*
X264557572Y-202510765D01*
X264580671Y-202519030D01*
X264602850Y-202529520D01*
X264623893Y-202542132D01*
X264643599Y-202556747D01*
X264661777Y-202573223D01*
X264678253Y-202591401D01*
X264692868Y-202611107D01*
X264705480Y-202632150D01*
X264715970Y-202654329D01*
X264724235Y-202677428D01*
X264730196Y-202701227D01*
X264733796Y-202725495D01*
X264735000Y-202749999D01*
X264735000Y-203650001D01*
X264733796Y-203674505D01*
X264730196Y-203698773D01*
X264724235Y-203722572D01*
X264715970Y-203745671D01*
X264705480Y-203767850D01*
X264692868Y-203788893D01*
X264678253Y-203808599D01*
X264661777Y-203826777D01*
X264643599Y-203843253D01*
X264623893Y-203857868D01*
X264602850Y-203870480D01*
X264580671Y-203880970D01*
X264557572Y-203889235D01*
X264533773Y-203895196D01*
X264509505Y-203898796D01*
X264485001Y-203900000D01*
X263834999Y-203900000D01*
X263810495Y-203898796D01*
X263786227Y-203895196D01*
X263762428Y-203889235D01*
X263739329Y-203880970D01*
X263717150Y-203870480D01*
X263696107Y-203857868D01*
X263676401Y-203843253D01*
X263658223Y-203826777D01*
X263641747Y-203808599D01*
X263627132Y-203788893D01*
X263614520Y-203767850D01*
X263604030Y-203745671D01*
X263595765Y-203722572D01*
X263589804Y-203698773D01*
X263586204Y-203674505D01*
X263585000Y-203650001D01*
X263585000Y-202749999D01*
X263586204Y-202725495D01*
X263589804Y-202701227D01*
X263595765Y-202677428D01*
X263604030Y-202654329D01*
X263614520Y-202632150D01*
X263627132Y-202611107D01*
X263641747Y-202591401D01*
X263658223Y-202573223D01*
X263676401Y-202556747D01*
X263696107Y-202542132D01*
X263717150Y-202529520D01*
X263739329Y-202519030D01*
X263762428Y-202510765D01*
X263786227Y-202504804D01*
X263810495Y-202501204D01*
X263834999Y-202500000D01*
X264485001Y-202500000D01*
X264509505Y-202501204D01*
G37*
G04 #@! TD.AperFunction*
G04 #@! TA.AperFunction,SMDPad,CuDef*
G36*
X266559505Y-202501204D02*
G01*
X266583773Y-202504804D01*
X266607572Y-202510765D01*
X266630671Y-202519030D01*
X266652850Y-202529520D01*
X266673893Y-202542132D01*
X266693599Y-202556747D01*
X266711777Y-202573223D01*
X266728253Y-202591401D01*
X266742868Y-202611107D01*
X266755480Y-202632150D01*
X266765970Y-202654329D01*
X266774235Y-202677428D01*
X266780196Y-202701227D01*
X266783796Y-202725495D01*
X266785000Y-202749999D01*
X266785000Y-203650001D01*
X266783796Y-203674505D01*
X266780196Y-203698773D01*
X266774235Y-203722572D01*
X266765970Y-203745671D01*
X266755480Y-203767850D01*
X266742868Y-203788893D01*
X266728253Y-203808599D01*
X266711777Y-203826777D01*
X266693599Y-203843253D01*
X266673893Y-203857868D01*
X266652850Y-203870480D01*
X266630671Y-203880970D01*
X266607572Y-203889235D01*
X266583773Y-203895196D01*
X266559505Y-203898796D01*
X266535001Y-203900000D01*
X265884999Y-203900000D01*
X265860495Y-203898796D01*
X265836227Y-203895196D01*
X265812428Y-203889235D01*
X265789329Y-203880970D01*
X265767150Y-203870480D01*
X265746107Y-203857868D01*
X265726401Y-203843253D01*
X265708223Y-203826777D01*
X265691747Y-203808599D01*
X265677132Y-203788893D01*
X265664520Y-203767850D01*
X265654030Y-203745671D01*
X265645765Y-203722572D01*
X265639804Y-203698773D01*
X265636204Y-203674505D01*
X265635000Y-203650001D01*
X265635000Y-202749999D01*
X265636204Y-202725495D01*
X265639804Y-202701227D01*
X265645765Y-202677428D01*
X265654030Y-202654329D01*
X265664520Y-202632150D01*
X265677132Y-202611107D01*
X265691747Y-202591401D01*
X265708223Y-202573223D01*
X265726401Y-202556747D01*
X265746107Y-202542132D01*
X265767150Y-202529520D01*
X265789329Y-202519030D01*
X265812428Y-202510765D01*
X265836227Y-202504804D01*
X265860495Y-202501204D01*
X265884999Y-202500000D01*
X266535001Y-202500000D01*
X266559505Y-202501204D01*
G37*
G04 #@! TD.AperFunction*
D11*
X271780000Y-259080000D03*
X271780000Y-254000000D03*
X274320000Y-256540000D03*
D12*
X269240000Y-256540000D03*
D13*
X281940000Y-251460000D03*
D14*
X281940000Y-248920000D03*
D15*
X554593125Y-254635000D03*
X560943125Y-252095000D03*
X554593125Y-235585000D03*
X560943125Y-233045000D03*
X554593125Y-216535000D03*
X560943125Y-213995000D03*
X547449375Y-197485000D03*
X553799375Y-194945000D03*
X535543125Y-254635000D03*
X541893125Y-252095000D03*
X535543125Y-235585000D03*
X541893125Y-233045000D03*
X530780625Y-216535000D03*
X537130625Y-213995000D03*
X521255625Y-197485000D03*
X527605625Y-194945000D03*
X516493125Y-254635000D03*
X522843125Y-252095000D03*
X516493125Y-235585000D03*
X522843125Y-233045000D03*
X506968125Y-216535000D03*
X513318125Y-213995000D03*
X502205625Y-197485000D03*
X508555625Y-194945000D03*
X497443125Y-254635000D03*
X503793125Y-252095000D03*
X497443125Y-235585000D03*
X503793125Y-233045000D03*
X487918125Y-216535000D03*
X494268125Y-213995000D03*
X483155625Y-197485000D03*
X489505625Y-194945000D03*
X478393125Y-254635000D03*
X484743125Y-252095000D03*
X478393125Y-235585000D03*
X484743125Y-233045000D03*
X468868125Y-216535000D03*
X475218125Y-213995000D03*
X464105625Y-197485000D03*
X470455625Y-194945000D03*
X459343125Y-254635000D03*
X465693125Y-252095000D03*
X459343125Y-235585000D03*
X465693125Y-233045000D03*
X449818125Y-216535000D03*
X456168125Y-213995000D03*
X445055625Y-197485000D03*
X451405625Y-194945000D03*
X440293125Y-235585000D03*
X446643125Y-233045000D03*
X430768125Y-216535000D03*
X437118125Y-213995000D03*
X426005625Y-197485000D03*
X432355625Y-194945000D03*
X428386875Y-254635000D03*
X434736875Y-252095000D03*
X421243125Y-235585000D03*
X427593125Y-233045000D03*
X411718125Y-216535000D03*
X418068125Y-213995000D03*
X406955625Y-197485000D03*
X413305625Y-194945000D03*
X402193125Y-235585000D03*
X408543125Y-233045000D03*
X392668125Y-216535000D03*
X399018125Y-213995000D03*
X387905625Y-197485000D03*
X394255625Y-194945000D03*
X385524375Y-254635000D03*
X391874375Y-252095000D03*
X383143125Y-235585000D03*
X389493125Y-233045000D03*
X373618125Y-216535000D03*
X379968125Y-213995000D03*
X368855625Y-197485000D03*
X375205625Y-194945000D03*
X354568125Y-254635000D03*
X360918125Y-252095000D03*
X364093125Y-235585000D03*
X370443125Y-233045000D03*
X354568125Y-216535000D03*
X360918125Y-213995000D03*
X349805625Y-197485000D03*
X356155625Y-194945000D03*
X335518125Y-254635000D03*
X341868125Y-252095000D03*
X345043125Y-235585000D03*
X351393125Y-233045000D03*
X335518125Y-216535000D03*
X341868125Y-213995000D03*
X330755625Y-197485000D03*
X337105625Y-194945000D03*
X316468125Y-254635000D03*
X322818125Y-252095000D03*
X325993125Y-235585000D03*
X332343125Y-233045000D03*
X316468125Y-216535000D03*
X322818125Y-213995000D03*
X311705625Y-197485000D03*
X318055625Y-194945000D03*
X295036875Y-254635000D03*
X301386875Y-252095000D03*
X299799375Y-235585000D03*
X306149375Y-233045000D03*
X295036875Y-216535000D03*
X301386875Y-213995000D03*
X292655625Y-197485000D03*
X299005625Y-194945000D03*
D16*
X284480000Y-228600000D03*
X285780000Y-228600000D03*
D17*
X285750000Y-214962500D03*
X285750000Y-213662500D03*
D14*
X281937780Y-245268750D03*
D13*
X281940000Y-233680000D03*
X281940000Y-231140000D03*
X281940000Y-228600000D03*
X281940000Y-226060000D03*
X281940000Y-223520000D03*
X281940000Y-220980000D03*
X281940000Y-218440000D03*
X281940000Y-215900000D03*
X281940000Y-213360000D03*
X281940000Y-210820000D03*
X281940000Y-208280000D03*
D14*
X281940000Y-205740000D03*
D13*
X261620000Y-233521250D03*
X261620000Y-230981250D03*
X261620000Y-228441250D03*
X261620000Y-225901250D03*
X261620000Y-223361250D03*
X261620000Y-220821250D03*
X261620000Y-218281250D03*
X261620000Y-215741250D03*
X261620000Y-213201250D03*
X261620000Y-210661250D03*
X261620000Y-208121250D03*
X261620000Y-205581250D03*
X261620000Y-203041250D03*
X261620000Y-200501250D03*
X261620000Y-197961250D03*
D14*
X261620000Y-195421250D03*
D18*
X565546875Y-188118750D03*
X473868750Y-269081250D03*
X565546875Y-269081250D03*
X473868750Y-188118750D03*
X379809375Y-188118750D03*
X379809375Y-269081250D03*
X289321875Y-269081250D03*
X289321875Y-188118750D03*
D19*
X564546875Y-250031250D03*
X566546875Y-250981250D03*
X566546875Y-249081250D03*
X564737500Y-231221875D03*
X566737500Y-232171875D03*
X566737500Y-230271875D03*
X564737500Y-212171875D03*
X566737500Y-213121875D03*
X566737500Y-211221875D03*
X557593750Y-193121875D03*
X559593750Y-194071875D03*
X559593750Y-192171875D03*
X545496875Y-250031250D03*
X547496875Y-250981250D03*
X547496875Y-249081250D03*
X545687500Y-231221875D03*
X547687500Y-232171875D03*
X547687500Y-230271875D03*
X540925000Y-212171875D03*
X542925000Y-213121875D03*
X542925000Y-211221875D03*
X531400000Y-193121875D03*
X533400000Y-194071875D03*
X533400000Y-192171875D03*
X528637500Y-249321875D03*
X528637500Y-251221875D03*
X526637500Y-250271875D03*
X526637500Y-231221875D03*
X528637500Y-232171875D03*
X528637500Y-230271875D03*
X517112500Y-212171875D03*
X519112500Y-213121875D03*
X519112500Y-211221875D03*
X512350000Y-193121875D03*
X514350000Y-194071875D03*
X514350000Y-192171875D03*
X507587500Y-250271875D03*
X509587500Y-251221875D03*
X509587500Y-249321875D03*
X507396875Y-230981250D03*
X509396875Y-231931250D03*
X509396875Y-230031250D03*
X497871875Y-211931250D03*
X499871875Y-212881250D03*
X499871875Y-210981250D03*
X493300000Y-193121875D03*
X495300000Y-194071875D03*
X495300000Y-192171875D03*
X488537500Y-250271875D03*
X490537500Y-251221875D03*
X490537500Y-249321875D03*
X488537500Y-231221875D03*
X490537500Y-232171875D03*
X490537500Y-230271875D03*
X478821875Y-211931250D03*
X480821875Y-212881250D03*
X480821875Y-210981250D03*
X474250000Y-193121875D03*
X476250000Y-194071875D03*
X476250000Y-192171875D03*
X469487500Y-250271875D03*
X471487500Y-251221875D03*
X471487500Y-249321875D03*
X469487500Y-231221875D03*
X471487500Y-232171875D03*
X471487500Y-230271875D03*
X459962500Y-212171875D03*
X461962500Y-213121875D03*
X461962500Y-211221875D03*
X455200000Y-193121875D03*
X457200000Y-194071875D03*
X457200000Y-192171875D03*
X450246875Y-230981250D03*
X452246875Y-231931250D03*
X452246875Y-230031250D03*
X440912500Y-212171875D03*
X442912500Y-213121875D03*
X442912500Y-211221875D03*
X435959375Y-192881250D03*
X437959375Y-193831250D03*
X437959375Y-191931250D03*
X438531250Y-250271875D03*
X440531250Y-251221875D03*
X440531250Y-249321875D03*
X431387500Y-231221875D03*
X433387500Y-232171875D03*
X433387500Y-230271875D03*
X421671875Y-211931250D03*
X423671875Y-212881250D03*
X423671875Y-210981250D03*
X417100000Y-193121875D03*
X419100000Y-194071875D03*
X419100000Y-192171875D03*
X412146875Y-230981250D03*
X414146875Y-231931250D03*
X414146875Y-230031250D03*
X402812500Y-212171875D03*
X404812500Y-213121875D03*
X404812500Y-211221875D03*
X398050000Y-193121875D03*
X400050000Y-194071875D03*
X400050000Y-192171875D03*
X395668750Y-250271875D03*
X397668750Y-251221875D03*
X397668750Y-249321875D03*
X393287500Y-231221875D03*
X395287500Y-232171875D03*
X395287500Y-230271875D03*
X383762500Y-212171875D03*
X385762500Y-213121875D03*
X385762500Y-211221875D03*
X378809375Y-192881250D03*
X380809375Y-193831250D03*
X380809375Y-191931250D03*
X364712500Y-250271875D03*
X366712500Y-251221875D03*
X366712500Y-249321875D03*
X374046875Y-230981250D03*
X376046875Y-231931250D03*
X376046875Y-230031250D03*
X364712500Y-212171875D03*
X366712500Y-213121875D03*
X366712500Y-211221875D03*
X359950000Y-193121875D03*
X361950000Y-194071875D03*
X361950000Y-192171875D03*
X345662500Y-250271875D03*
X347662500Y-251221875D03*
X347662500Y-249321875D03*
X355187500Y-231221875D03*
X357187500Y-232171875D03*
X357187500Y-230271875D03*
X345471875Y-211931250D03*
X347471875Y-212881250D03*
X347471875Y-210981250D03*
X340709375Y-192881250D03*
X342709375Y-193831250D03*
X342709375Y-191931250D03*
X326421875Y-250031250D03*
X328421875Y-250981250D03*
X328421875Y-249081250D03*
X336137500Y-231221875D03*
X338137500Y-232171875D03*
X338137500Y-230271875D03*
X326421875Y-211931250D03*
X328421875Y-212881250D03*
X328421875Y-210981250D03*
X321468750Y-192881250D03*
X323468750Y-193831250D03*
X323468750Y-191931250D03*
X304800000Y-250031250D03*
X306800000Y-250981250D03*
X306800000Y-249081250D03*
X309943750Y-231221875D03*
X311943750Y-232171875D03*
X311943750Y-230271875D03*
X304800000Y-211931250D03*
X306800000Y-212881250D03*
X306800000Y-210981250D03*
X301418750Y-192881250D03*
X303418750Y-193831250D03*
X303418750Y-191931250D03*
G04 #@! TA.AperFunction,SMDPad,CuDef*
D10*
G36*
X264634505Y-200086204D02*
G01*
X264658773Y-200089804D01*
X264682572Y-200095765D01*
X264705671Y-200104030D01*
X264727850Y-200114520D01*
X264748893Y-200127132D01*
X264768599Y-200141747D01*
X264786777Y-200158223D01*
X264803253Y-200176401D01*
X264817868Y-200196107D01*
X264830480Y-200217150D01*
X264840970Y-200239329D01*
X264849235Y-200262428D01*
X264855196Y-200286227D01*
X264858796Y-200310495D01*
X264860000Y-200334999D01*
X264860000Y-200985001D01*
X264858796Y-201009505D01*
X264855196Y-201033773D01*
X264849235Y-201057572D01*
X264840970Y-201080671D01*
X264830480Y-201102850D01*
X264817868Y-201123893D01*
X264803253Y-201143599D01*
X264786777Y-201161777D01*
X264768599Y-201178253D01*
X264748893Y-201192868D01*
X264727850Y-201205480D01*
X264705671Y-201215970D01*
X264682572Y-201224235D01*
X264658773Y-201230196D01*
X264634505Y-201233796D01*
X264610001Y-201235000D01*
X263709999Y-201235000D01*
X263685495Y-201233796D01*
X263661227Y-201230196D01*
X263637428Y-201224235D01*
X263614329Y-201215970D01*
X263592150Y-201205480D01*
X263571107Y-201192868D01*
X263551401Y-201178253D01*
X263533223Y-201161777D01*
X263516747Y-201143599D01*
X263502132Y-201123893D01*
X263489520Y-201102850D01*
X263479030Y-201080671D01*
X263470765Y-201057572D01*
X263464804Y-201033773D01*
X263461204Y-201009505D01*
X263460000Y-200985001D01*
X263460000Y-200334999D01*
X263461204Y-200310495D01*
X263464804Y-200286227D01*
X263470765Y-200262428D01*
X263479030Y-200239329D01*
X263489520Y-200217150D01*
X263502132Y-200196107D01*
X263516747Y-200176401D01*
X263533223Y-200158223D01*
X263551401Y-200141747D01*
X263571107Y-200127132D01*
X263592150Y-200114520D01*
X263614329Y-200104030D01*
X263637428Y-200095765D01*
X263661227Y-200089804D01*
X263685495Y-200086204D01*
X263709999Y-200085000D01*
X264610001Y-200085000D01*
X264634505Y-200086204D01*
G37*
G04 #@! TD.AperFunction*
G04 #@! TA.AperFunction,SMDPad,CuDef*
G36*
X264634505Y-198036204D02*
G01*
X264658773Y-198039804D01*
X264682572Y-198045765D01*
X264705671Y-198054030D01*
X264727850Y-198064520D01*
X264748893Y-198077132D01*
X264768599Y-198091747D01*
X264786777Y-198108223D01*
X264803253Y-198126401D01*
X264817868Y-198146107D01*
X264830480Y-198167150D01*
X264840970Y-198189329D01*
X264849235Y-198212428D01*
X264855196Y-198236227D01*
X264858796Y-198260495D01*
X264860000Y-198284999D01*
X264860000Y-198935001D01*
X264858796Y-198959505D01*
X264855196Y-198983773D01*
X264849235Y-199007572D01*
X264840970Y-199030671D01*
X264830480Y-199052850D01*
X264817868Y-199073893D01*
X264803253Y-199093599D01*
X264786777Y-199111777D01*
X264768599Y-199128253D01*
X264748893Y-199142868D01*
X264727850Y-199155480D01*
X264705671Y-199165970D01*
X264682572Y-199174235D01*
X264658773Y-199180196D01*
X264634505Y-199183796D01*
X264610001Y-199185000D01*
X263709999Y-199185000D01*
X263685495Y-199183796D01*
X263661227Y-199180196D01*
X263637428Y-199174235D01*
X263614329Y-199165970D01*
X263592150Y-199155480D01*
X263571107Y-199142868D01*
X263551401Y-199128253D01*
X263533223Y-199111777D01*
X263516747Y-199093599D01*
X263502132Y-199073893D01*
X263489520Y-199052850D01*
X263479030Y-199030671D01*
X263470765Y-199007572D01*
X263464804Y-198983773D01*
X263461204Y-198959505D01*
X263460000Y-198935001D01*
X263460000Y-198284999D01*
X263461204Y-198260495D01*
X263464804Y-198236227D01*
X263470765Y-198212428D01*
X263479030Y-198189329D01*
X263489520Y-198167150D01*
X263502132Y-198146107D01*
X263516747Y-198126401D01*
X263533223Y-198108223D01*
X263551401Y-198091747D01*
X263571107Y-198077132D01*
X263592150Y-198064520D01*
X263614329Y-198054030D01*
X263637428Y-198045765D01*
X263661227Y-198039804D01*
X263685495Y-198036204D01*
X263709999Y-198035000D01*
X264610001Y-198035000D01*
X264634505Y-198036204D01*
G37*
G04 #@! TD.AperFunction*
G04 #@! TA.AperFunction,SMDPad,CuDef*
G36*
X277890130Y-250648079D02*
G01*
X277914398Y-250651679D01*
X277938197Y-250657640D01*
X277961296Y-250665905D01*
X277983475Y-250676395D01*
X278004518Y-250689007D01*
X278024224Y-250703622D01*
X278042402Y-250720098D01*
X278058878Y-250738276D01*
X278073493Y-250757982D01*
X278086105Y-250779025D01*
X278096595Y-250801204D01*
X278104860Y-250824303D01*
X278110821Y-250848102D01*
X278114421Y-250872370D01*
X278115625Y-250896874D01*
X278115625Y-251546876D01*
X278114421Y-251571380D01*
X278110821Y-251595648D01*
X278104860Y-251619447D01*
X278096595Y-251642546D01*
X278086105Y-251664725D01*
X278073493Y-251685768D01*
X278058878Y-251705474D01*
X278042402Y-251723652D01*
X278024224Y-251740128D01*
X278004518Y-251754743D01*
X277983475Y-251767355D01*
X277961296Y-251777845D01*
X277938197Y-251786110D01*
X277914398Y-251792071D01*
X277890130Y-251795671D01*
X277865626Y-251796875D01*
X276965624Y-251796875D01*
X276941120Y-251795671D01*
X276916852Y-251792071D01*
X276893053Y-251786110D01*
X276869954Y-251777845D01*
X276847775Y-251767355D01*
X276826732Y-251754743D01*
X276807026Y-251740128D01*
X276788848Y-251723652D01*
X276772372Y-251705474D01*
X276757757Y-251685768D01*
X276745145Y-251664725D01*
X276734655Y-251642546D01*
X276726390Y-251619447D01*
X276720429Y-251595648D01*
X276716829Y-251571380D01*
X276715625Y-251546876D01*
X276715625Y-250896874D01*
X276716829Y-250872370D01*
X276720429Y-250848102D01*
X276726390Y-250824303D01*
X276734655Y-250801204D01*
X276745145Y-250779025D01*
X276757757Y-250757982D01*
X276772372Y-250738276D01*
X276788848Y-250720098D01*
X276807026Y-250703622D01*
X276826732Y-250689007D01*
X276847775Y-250676395D01*
X276869954Y-250665905D01*
X276893053Y-250657640D01*
X276916852Y-250651679D01*
X276941120Y-250648079D01*
X276965624Y-250646875D01*
X277865626Y-250646875D01*
X277890130Y-250648079D01*
G37*
G04 #@! TD.AperFunction*
G04 #@! TA.AperFunction,SMDPad,CuDef*
G36*
X277890130Y-252698079D02*
G01*
X277914398Y-252701679D01*
X277938197Y-252707640D01*
X277961296Y-252715905D01*
X277983475Y-252726395D01*
X278004518Y-252739007D01*
X278024224Y-252753622D01*
X278042402Y-252770098D01*
X278058878Y-252788276D01*
X278073493Y-252807982D01*
X278086105Y-252829025D01*
X278096595Y-252851204D01*
X278104860Y-252874303D01*
X278110821Y-252898102D01*
X278114421Y-252922370D01*
X278115625Y-252946874D01*
X278115625Y-253596876D01*
X278114421Y-253621380D01*
X278110821Y-253645648D01*
X278104860Y-253669447D01*
X278096595Y-253692546D01*
X278086105Y-253714725D01*
X278073493Y-253735768D01*
X278058878Y-253755474D01*
X278042402Y-253773652D01*
X278024224Y-253790128D01*
X278004518Y-253804743D01*
X277983475Y-253817355D01*
X277961296Y-253827845D01*
X277938197Y-253836110D01*
X277914398Y-253842071D01*
X277890130Y-253845671D01*
X277865626Y-253846875D01*
X276965624Y-253846875D01*
X276941120Y-253845671D01*
X276916852Y-253842071D01*
X276893053Y-253836110D01*
X276869954Y-253827845D01*
X276847775Y-253817355D01*
X276826732Y-253804743D01*
X276807026Y-253790128D01*
X276788848Y-253773652D01*
X276772372Y-253755474D01*
X276757757Y-253735768D01*
X276745145Y-253714725D01*
X276734655Y-253692546D01*
X276726390Y-253669447D01*
X276720429Y-253645648D01*
X276716829Y-253621380D01*
X276715625Y-253596876D01*
X276715625Y-252946874D01*
X276716829Y-252922370D01*
X276720429Y-252898102D01*
X276726390Y-252874303D01*
X276734655Y-252851204D01*
X276745145Y-252829025D01*
X276757757Y-252807982D01*
X276772372Y-252788276D01*
X276788848Y-252770098D01*
X276807026Y-252753622D01*
X276826732Y-252739007D01*
X276847775Y-252726395D01*
X276869954Y-252715905D01*
X276893053Y-252707640D01*
X276916852Y-252701679D01*
X276941120Y-252698079D01*
X276965624Y-252696875D01*
X277865626Y-252696875D01*
X277890130Y-252698079D01*
G37*
G04 #@! TD.AperFunction*
G04 #@! TA.AperFunction,SMDPad,CuDef*
G36*
X548037005Y-218376204D02*
G01*
X548061273Y-218379804D01*
X548085072Y-218385765D01*
X548108171Y-218394030D01*
X548130350Y-218404520D01*
X548151393Y-218417132D01*
X548171099Y-218431747D01*
X548189277Y-218448223D01*
X548205753Y-218466401D01*
X548220368Y-218486107D01*
X548232980Y-218507150D01*
X548243470Y-218529329D01*
X548251735Y-218552428D01*
X548257696Y-218576227D01*
X548261296Y-218600495D01*
X548262500Y-218624999D01*
X548262500Y-219525001D01*
X548261296Y-219549505D01*
X548257696Y-219573773D01*
X548251735Y-219597572D01*
X548243470Y-219620671D01*
X548232980Y-219642850D01*
X548220368Y-219663893D01*
X548205753Y-219683599D01*
X548189277Y-219701777D01*
X548171099Y-219718253D01*
X548151393Y-219732868D01*
X548130350Y-219745480D01*
X548108171Y-219755970D01*
X548085072Y-219764235D01*
X548061273Y-219770196D01*
X548037005Y-219773796D01*
X548012501Y-219775000D01*
X547362499Y-219775000D01*
X547337995Y-219773796D01*
X547313727Y-219770196D01*
X547289928Y-219764235D01*
X547266829Y-219755970D01*
X547244650Y-219745480D01*
X547223607Y-219732868D01*
X547203901Y-219718253D01*
X547185723Y-219701777D01*
X547169247Y-219683599D01*
X547154632Y-219663893D01*
X547142020Y-219642850D01*
X547131530Y-219620671D01*
X547123265Y-219597572D01*
X547117304Y-219573773D01*
X547113704Y-219549505D01*
X547112500Y-219525001D01*
X547112500Y-218624999D01*
X547113704Y-218600495D01*
X547117304Y-218576227D01*
X547123265Y-218552428D01*
X547131530Y-218529329D01*
X547142020Y-218507150D01*
X547154632Y-218486107D01*
X547169247Y-218466401D01*
X547185723Y-218448223D01*
X547203901Y-218431747D01*
X547223607Y-218417132D01*
X547244650Y-218404520D01*
X547266829Y-218394030D01*
X547289928Y-218385765D01*
X547313727Y-218379804D01*
X547337995Y-218376204D01*
X547362499Y-218375000D01*
X548012501Y-218375000D01*
X548037005Y-218376204D01*
G37*
G04 #@! TD.AperFunction*
G04 #@! TA.AperFunction,SMDPad,CuDef*
G36*
X545987005Y-218376204D02*
G01*
X546011273Y-218379804D01*
X546035072Y-218385765D01*
X546058171Y-218394030D01*
X546080350Y-218404520D01*
X546101393Y-218417132D01*
X546121099Y-218431747D01*
X546139277Y-218448223D01*
X546155753Y-218466401D01*
X546170368Y-218486107D01*
X546182980Y-218507150D01*
X546193470Y-218529329D01*
X546201735Y-218552428D01*
X546207696Y-218576227D01*
X546211296Y-218600495D01*
X546212500Y-218624999D01*
X546212500Y-219525001D01*
X546211296Y-219549505D01*
X546207696Y-219573773D01*
X546201735Y-219597572D01*
X546193470Y-219620671D01*
X546182980Y-219642850D01*
X546170368Y-219663893D01*
X546155753Y-219683599D01*
X546139277Y-219701777D01*
X546121099Y-219718253D01*
X546101393Y-219732868D01*
X546080350Y-219745480D01*
X546058171Y-219755970D01*
X546035072Y-219764235D01*
X546011273Y-219770196D01*
X545987005Y-219773796D01*
X545962501Y-219775000D01*
X545312499Y-219775000D01*
X545287995Y-219773796D01*
X545263727Y-219770196D01*
X545239928Y-219764235D01*
X545216829Y-219755970D01*
X545194650Y-219745480D01*
X545173607Y-219732868D01*
X545153901Y-219718253D01*
X545135723Y-219701777D01*
X545119247Y-219683599D01*
X545104632Y-219663893D01*
X545092020Y-219642850D01*
X545081530Y-219620671D01*
X545073265Y-219597572D01*
X545067304Y-219573773D01*
X545063704Y-219549505D01*
X545062500Y-219525001D01*
X545062500Y-218624999D01*
X545063704Y-218600495D01*
X545067304Y-218576227D01*
X545073265Y-218552428D01*
X545081530Y-218529329D01*
X545092020Y-218507150D01*
X545104632Y-218486107D01*
X545119247Y-218466401D01*
X545135723Y-218448223D01*
X545153901Y-218431747D01*
X545173607Y-218417132D01*
X545194650Y-218404520D01*
X545216829Y-218394030D01*
X545239928Y-218385765D01*
X545263727Y-218379804D01*
X545287995Y-218376204D01*
X545312499Y-218375000D01*
X545962501Y-218375000D01*
X545987005Y-218376204D01*
G37*
G04 #@! TD.AperFunction*
G04 #@! TA.AperFunction,SMDPad,CuDef*
G36*
X275508880Y-250648079D02*
G01*
X275533148Y-250651679D01*
X275556947Y-250657640D01*
X275580046Y-250665905D01*
X275602225Y-250676395D01*
X275623268Y-250689007D01*
X275642974Y-250703622D01*
X275661152Y-250720098D01*
X275677628Y-250738276D01*
X275692243Y-250757982D01*
X275704855Y-250779025D01*
X275715345Y-250801204D01*
X275723610Y-250824303D01*
X275729571Y-250848102D01*
X275733171Y-250872370D01*
X275734375Y-250896874D01*
X275734375Y-251546876D01*
X275733171Y-251571380D01*
X275729571Y-251595648D01*
X275723610Y-251619447D01*
X275715345Y-251642546D01*
X275704855Y-251664725D01*
X275692243Y-251685768D01*
X275677628Y-251705474D01*
X275661152Y-251723652D01*
X275642974Y-251740128D01*
X275623268Y-251754743D01*
X275602225Y-251767355D01*
X275580046Y-251777845D01*
X275556947Y-251786110D01*
X275533148Y-251792071D01*
X275508880Y-251795671D01*
X275484376Y-251796875D01*
X274584374Y-251796875D01*
X274559870Y-251795671D01*
X274535602Y-251792071D01*
X274511803Y-251786110D01*
X274488704Y-251777845D01*
X274466525Y-251767355D01*
X274445482Y-251754743D01*
X274425776Y-251740128D01*
X274407598Y-251723652D01*
X274391122Y-251705474D01*
X274376507Y-251685768D01*
X274363895Y-251664725D01*
X274353405Y-251642546D01*
X274345140Y-251619447D01*
X274339179Y-251595648D01*
X274335579Y-251571380D01*
X274334375Y-251546876D01*
X274334375Y-250896874D01*
X274335579Y-250872370D01*
X274339179Y-250848102D01*
X274345140Y-250824303D01*
X274353405Y-250801204D01*
X274363895Y-250779025D01*
X274376507Y-250757982D01*
X274391122Y-250738276D01*
X274407598Y-250720098D01*
X274425776Y-250703622D01*
X274445482Y-250689007D01*
X274466525Y-250676395D01*
X274488704Y-250665905D01*
X274511803Y-250657640D01*
X274535602Y-250651679D01*
X274559870Y-250648079D01*
X274584374Y-250646875D01*
X275484376Y-250646875D01*
X275508880Y-250648079D01*
G37*
G04 #@! TD.AperFunction*
G04 #@! TA.AperFunction,SMDPad,CuDef*
G36*
X275508880Y-252698079D02*
G01*
X275533148Y-252701679D01*
X275556947Y-252707640D01*
X275580046Y-252715905D01*
X275602225Y-252726395D01*
X275623268Y-252739007D01*
X275642974Y-252753622D01*
X275661152Y-252770098D01*
X275677628Y-252788276D01*
X275692243Y-252807982D01*
X275704855Y-252829025D01*
X275715345Y-252851204D01*
X275723610Y-252874303D01*
X275729571Y-252898102D01*
X275733171Y-252922370D01*
X275734375Y-252946874D01*
X275734375Y-253596876D01*
X275733171Y-253621380D01*
X275729571Y-253645648D01*
X275723610Y-253669447D01*
X275715345Y-253692546D01*
X275704855Y-253714725D01*
X275692243Y-253735768D01*
X275677628Y-253755474D01*
X275661152Y-253773652D01*
X275642974Y-253790128D01*
X275623268Y-253804743D01*
X275602225Y-253817355D01*
X275580046Y-253827845D01*
X275556947Y-253836110D01*
X275533148Y-253842071D01*
X275508880Y-253845671D01*
X275484376Y-253846875D01*
X274584374Y-253846875D01*
X274559870Y-253845671D01*
X274535602Y-253842071D01*
X274511803Y-253836110D01*
X274488704Y-253827845D01*
X274466525Y-253817355D01*
X274445482Y-253804743D01*
X274425776Y-253790128D01*
X274407598Y-253773652D01*
X274391122Y-253755474D01*
X274376507Y-253735768D01*
X274363895Y-253714725D01*
X274353405Y-253692546D01*
X274345140Y-253669447D01*
X274339179Y-253645648D01*
X274335579Y-253621380D01*
X274334375Y-253596876D01*
X274334375Y-252946874D01*
X274335579Y-252922370D01*
X274339179Y-252898102D01*
X274345140Y-252874303D01*
X274353405Y-252851204D01*
X274363895Y-252829025D01*
X274376507Y-252807982D01*
X274391122Y-252788276D01*
X274407598Y-252770098D01*
X274425776Y-252753622D01*
X274445482Y-252739007D01*
X274466525Y-252726395D01*
X274488704Y-252715905D01*
X274511803Y-252707640D01*
X274535602Y-252701679D01*
X274559870Y-252698079D01*
X274584374Y-252696875D01*
X275484376Y-252696875D01*
X275508880Y-252698079D01*
G37*
G04 #@! TD.AperFunction*
D20*
X547052500Y-263048750D03*
X281305000Y-256381250D03*
X536098750Y-191770000D03*
X265112500Y-196373750D03*
X284559375Y-201215625D03*
X288131250Y-216693750D03*
X310753125Y-221456250D03*
X313134375Y-221456250D03*
X288131250Y-219075000D03*
X310753125Y-222646875D03*
X313134375Y-222646875D03*
X332184375Y-222646875D03*
X335756250Y-222646875D03*
X288131250Y-221456250D03*
X310753125Y-223837500D03*
X313134375Y-223837500D03*
X333375000Y-223837500D03*
X336946875Y-223837500D03*
X348853125Y-223837500D03*
X351234375Y-223837500D03*
X288131250Y-223837500D03*
X310753125Y-225028125D03*
X313134375Y-225028125D03*
X334565625Y-225028125D03*
X338137500Y-225028125D03*
X350043750Y-225028125D03*
X352425000Y-225028125D03*
X373856250Y-225028125D03*
X377428125Y-225028125D03*
X288131250Y-227409375D03*
X310753125Y-226218750D03*
X313134375Y-226218750D03*
X335756250Y-226218750D03*
X339328125Y-226218750D03*
X351234375Y-226218750D03*
X353615625Y-226218750D03*
X373856250Y-226218750D03*
X377428125Y-226218750D03*
X394096875Y-226218750D03*
X396478125Y-226218750D03*
X288131250Y-229790625D03*
X310753125Y-227409375D03*
X313134375Y-227409375D03*
X336946875Y-227409375D03*
X340518750Y-227409375D03*
X352425000Y-227409375D03*
X354806250Y-227409375D03*
X373856250Y-227409375D03*
X377428125Y-227409375D03*
X394096875Y-227409375D03*
X396478125Y-227409375D03*
X413146875Y-227409375D03*
X415528125Y-227409375D03*
X278606250Y-232171875D03*
X310753125Y-228600000D03*
X313134375Y-228600000D03*
X336946875Y-228600000D03*
X340518750Y-228600000D03*
X353615625Y-228600000D03*
X355996875Y-228600000D03*
X373856250Y-228600000D03*
X377428125Y-228600000D03*
X394096875Y-228600000D03*
X396478125Y-228600000D03*
X413146875Y-228600000D03*
X415528125Y-228600000D03*
X431006250Y-228600000D03*
X433389215Y-228598285D03*
X285750000Y-227249998D03*
X304800000Y-196453125D03*
X511968750Y-191690625D03*
X286940625Y-217989999D03*
X289321875Y-208359375D03*
X294084375Y-203596875D03*
X532624999Y-201621874D03*
X305990625Y-195262500D03*
X307181250Y-192881250D03*
X564356250Y-198834375D03*
X566737500Y-202406250D03*
X288131250Y-213121875D03*
X288131250Y-228600000D03*
X266700000Y-198834375D03*
X269081250Y-202406250D03*
D21*
X264160000Y-200660000D02*
X264160000Y-203200000D01*
X261778750Y-203200000D02*
X261620000Y-203041250D01*
X264160000Y-203200000D02*
X261778750Y-203200000D01*
X274558125Y-251221875D02*
X275034375Y-251221875D01*
X271780000Y-254000000D02*
X274558125Y-251221875D01*
X277415625Y-251221875D02*
X275034375Y-251221875D01*
X281701875Y-251221875D02*
X281940000Y-251460000D01*
X277415625Y-251221875D02*
X281701875Y-251221875D01*
X264160000Y-203900000D02*
X264318750Y-204058750D01*
X264318750Y-204058750D02*
X264318750Y-236587748D01*
X264318750Y-236587748D02*
X275034375Y-247303373D01*
X264160000Y-203200000D02*
X264160000Y-203900000D01*
X275034375Y-247303373D02*
X275034375Y-251221875D01*
X548262500Y-219075000D02*
X549592500Y-220405000D01*
X547687500Y-219075000D02*
X548262500Y-219075000D01*
X549592500Y-220405000D02*
X549592500Y-262731250D01*
X549592500Y-262731250D02*
X549275000Y-263048750D01*
X549275000Y-263048750D02*
X547052500Y-263048750D01*
X281305000Y-252095000D02*
X281940000Y-251460000D01*
X281305000Y-256381250D02*
X281305000Y-252095000D01*
X264160000Y-198035000D02*
X264160000Y-198610000D01*
X264086250Y-197961250D02*
X264160000Y-198035000D01*
X261620000Y-197961250D02*
X264086250Y-197961250D01*
X273472887Y-256540000D02*
X274320000Y-256540000D01*
X272952478Y-256540000D02*
X273472887Y-256540000D01*
X260444999Y-244032521D02*
X272952478Y-256540000D01*
X260444999Y-199937249D02*
X260444999Y-244032521D01*
X261772248Y-198610000D02*
X260444999Y-199937249D01*
X264160000Y-198610000D02*
X261772248Y-198610000D01*
X275034375Y-255825625D02*
X274320000Y-256540000D01*
X275034375Y-253271875D02*
X275034375Y-255825625D01*
X275034375Y-253271875D02*
X277415625Y-253271875D01*
X545637500Y-219075000D02*
X545637500Y-201308750D01*
X545637500Y-201308750D02*
X536098750Y-191770000D01*
X264160000Y-197326250D02*
X264160000Y-198610000D01*
X265112500Y-196373750D02*
X264160000Y-197326250D01*
X301418750Y-193531250D02*
X300005000Y-194945000D01*
X300005000Y-194945000D02*
X299005625Y-194945000D01*
X301418750Y-192881250D02*
X301418750Y-193531250D01*
X306800000Y-210331250D02*
X306800000Y-210981250D01*
X306800000Y-194612500D02*
X306800000Y-210331250D01*
X304118750Y-191931250D02*
X306800000Y-194612500D01*
X303418750Y-191931250D02*
X304118750Y-191931250D01*
X311943750Y-229621875D02*
X311943750Y-230271875D01*
X311943750Y-215425000D02*
X311943750Y-229621875D01*
X307500000Y-210981250D02*
X311943750Y-215425000D01*
X306800000Y-210981250D02*
X307500000Y-210981250D01*
X310718751Y-245862499D02*
X307500000Y-249081250D01*
X310718751Y-230796874D02*
X310718751Y-245862499D01*
X307500000Y-249081250D02*
X306800000Y-249081250D01*
X311243750Y-230271875D02*
X310718751Y-230796874D01*
X311943750Y-230271875D02*
X311243750Y-230271875D01*
X284559375Y-201215625D02*
X284559375Y-200025000D01*
X292653125Y-191931250D02*
X303418750Y-191931250D01*
X284559375Y-200025000D02*
X292653125Y-191931250D01*
X303450625Y-211931250D02*
X301386875Y-213995000D01*
X304800000Y-211931250D02*
X303450625Y-211931250D01*
X307972500Y-231221875D02*
X306149375Y-233045000D01*
X309943750Y-231221875D02*
X307972500Y-231221875D01*
X303450625Y-250031250D02*
X301386875Y-252095000D01*
X304800000Y-250031250D02*
X303450625Y-250031250D01*
X320119375Y-192881250D02*
X318055625Y-194945000D01*
X321468750Y-192881250D02*
X320119375Y-192881250D01*
X288131250Y-216693750D02*
X292893750Y-221456250D01*
X292893750Y-221456250D02*
X310753125Y-221456250D01*
X329121875Y-210981250D02*
X328421875Y-210981250D01*
X329196876Y-216975251D02*
X329196876Y-211056251D01*
X329196876Y-211056251D02*
X329121875Y-210981250D01*
X313134375Y-221456250D02*
X324715877Y-221456250D01*
X328421875Y-210331250D02*
X328421875Y-210981250D01*
X328310624Y-210219999D02*
X328421875Y-210331250D01*
X328310624Y-196073124D02*
X328310624Y-210219999D01*
X324168750Y-191931250D02*
X328310624Y-196073124D01*
X323468750Y-191931250D02*
X324168750Y-191931250D01*
X338137500Y-226218750D02*
X338137500Y-230271875D01*
X329045438Y-217126688D02*
X338137500Y-226218750D01*
X329045438Y-217126688D02*
X329196876Y-216975251D01*
X324715877Y-221456250D02*
X329045438Y-217126688D01*
X329121875Y-249081250D02*
X328421875Y-249081250D01*
X337362499Y-231511874D02*
X337362499Y-240840626D01*
X337362499Y-240840626D02*
X329121875Y-249081250D01*
X338602498Y-230271875D02*
X337362499Y-231511874D01*
X338137500Y-230271875D02*
X338602498Y-230271875D01*
X324373759Y-213995000D02*
X322818125Y-213995000D01*
X325008125Y-213995000D02*
X324373759Y-213995000D01*
X326421875Y-212581250D02*
X325008125Y-213995000D01*
X326421875Y-211931250D02*
X326421875Y-212581250D01*
X333898759Y-233045000D02*
X332343125Y-233045000D01*
X334964375Y-233045000D02*
X333898759Y-233045000D01*
X336137500Y-231871875D02*
X334964375Y-233045000D01*
X336137500Y-231221875D02*
X336137500Y-231871875D01*
X324373759Y-252095000D02*
X322818125Y-252095000D01*
X325008125Y-252095000D02*
X324373759Y-252095000D01*
X326421875Y-250681250D02*
X325008125Y-252095000D01*
X326421875Y-250031250D02*
X326421875Y-250681250D01*
X338661259Y-194945000D02*
X337105625Y-194945000D01*
X339295625Y-194945000D02*
X338661259Y-194945000D01*
X340709375Y-193531250D02*
X339295625Y-194945000D01*
X340709375Y-192881250D02*
X340709375Y-193531250D01*
X288131250Y-219075000D02*
X291703125Y-222646875D01*
X291703125Y-222646875D02*
X310753125Y-222646875D01*
X313134375Y-222646875D02*
X332184375Y-222646875D01*
X348171875Y-210981250D02*
X347471875Y-210981250D01*
X348246876Y-213497247D02*
X348246876Y-211056251D01*
X348246876Y-211056251D02*
X348171875Y-210981250D01*
X339097248Y-222646875D02*
X348246876Y-213497247D01*
X335756250Y-222646875D02*
X339097248Y-222646875D01*
X343484376Y-192006251D02*
X343409375Y-191931250D01*
X343484376Y-207043751D02*
X343484376Y-192006251D01*
X343409375Y-191931250D02*
X342709375Y-191931250D01*
X347421875Y-210981250D02*
X343484376Y-207043751D01*
X347471875Y-210981250D02*
X347421875Y-210981250D01*
X356487500Y-230271875D02*
X357187500Y-230271875D01*
X348246876Y-222031251D02*
X356487500Y-230271875D01*
X348246876Y-213497247D02*
X348246876Y-222031251D01*
X351178126Y-246506249D02*
X348362500Y-249321875D01*
X351178126Y-236666251D02*
X351178126Y-246506249D01*
X356487500Y-231356877D02*
X351178126Y-236666251D01*
X356487500Y-230921875D02*
X356487500Y-231356877D01*
X357137500Y-230271875D02*
X356487500Y-230921875D01*
X348362500Y-249321875D02*
X347662500Y-249321875D01*
X357187500Y-230271875D02*
X357137500Y-230271875D01*
X343423759Y-213995000D02*
X341868125Y-213995000D01*
X345471875Y-212581250D02*
X344058125Y-213995000D01*
X344058125Y-213995000D02*
X343423759Y-213995000D01*
X345471875Y-211931250D02*
X345471875Y-212581250D01*
X353216250Y-231221875D02*
X351393125Y-233045000D01*
X355187500Y-231221875D02*
X353216250Y-231221875D01*
X344489375Y-252095000D02*
X343423759Y-252095000D01*
X343423759Y-252095000D02*
X341868125Y-252095000D01*
X345662500Y-250921875D02*
X344489375Y-252095000D01*
X345662500Y-250271875D02*
X345662500Y-250921875D01*
X357711259Y-194945000D02*
X356155625Y-194945000D01*
X358776875Y-194945000D02*
X357711259Y-194945000D01*
X359950000Y-193771875D02*
X358776875Y-194945000D01*
X359950000Y-193121875D02*
X359950000Y-193771875D01*
X288131250Y-221456250D02*
X290512500Y-223837500D01*
X290512500Y-223837500D02*
X310753125Y-223837500D01*
X313134375Y-223837500D02*
X333375000Y-223837500D01*
X336946875Y-223837500D02*
X348853125Y-223837500D01*
X367412500Y-211221875D02*
X366712500Y-211221875D01*
X367487501Y-211296876D02*
X367412500Y-211221875D01*
X360434627Y-223837500D02*
X367487501Y-216784626D01*
X367487501Y-216784626D02*
X367487501Y-211296876D01*
X351234375Y-223837500D02*
X360434627Y-223837500D01*
X362650000Y-192171875D02*
X361950000Y-192171875D01*
X362725001Y-192246876D02*
X362650000Y-192171875D01*
X366012500Y-211221875D02*
X362725001Y-207934376D01*
X362725001Y-207934376D02*
X362725001Y-192246876D01*
X366712500Y-211221875D02*
X366012500Y-211221875D01*
X376046875Y-225344000D02*
X376046875Y-230031250D01*
X367487501Y-216784626D02*
X376046875Y-225344000D01*
X367412500Y-249321875D02*
X366712500Y-249321875D01*
X374821876Y-241912499D02*
X367412500Y-249321875D01*
X374821876Y-230556249D02*
X374821876Y-241912499D01*
X375346875Y-230031250D02*
X374821876Y-230556249D01*
X376046875Y-230031250D02*
X375346875Y-230031250D01*
X363539375Y-213995000D02*
X362473759Y-213995000D01*
X362473759Y-213995000D02*
X360918125Y-213995000D01*
X364712500Y-212821875D02*
X363539375Y-213995000D01*
X364712500Y-212171875D02*
X364712500Y-212821875D01*
X372506875Y-230981250D02*
X374046875Y-230981250D01*
X370443125Y-233045000D02*
X372506875Y-230981250D01*
X362473759Y-252095000D02*
X360918125Y-252095000D01*
X363539375Y-252095000D02*
X362473759Y-252095000D01*
X364712500Y-250921875D02*
X363539375Y-252095000D01*
X364712500Y-250271875D02*
X364712500Y-250921875D01*
X376761259Y-194945000D02*
X375205625Y-194945000D01*
X377395625Y-194945000D02*
X376761259Y-194945000D01*
X378809375Y-193531250D02*
X377395625Y-194945000D01*
X378809375Y-192881250D02*
X378809375Y-193531250D01*
X288131250Y-223837500D02*
X289321875Y-225028125D01*
X289321875Y-225028125D02*
X310753125Y-225028125D01*
X313134375Y-225028125D02*
X334565625Y-225028125D01*
X338137500Y-225028125D02*
X350043750Y-225028125D01*
X352425000Y-225028125D02*
X373856250Y-225028125D01*
X386537501Y-211296876D02*
X386462500Y-211221875D01*
X386537501Y-216784626D02*
X386537501Y-211296876D01*
X378294002Y-225028125D02*
X386537501Y-216784626D01*
X386462500Y-211221875D02*
X385762500Y-211221875D01*
X377428125Y-225028125D02*
X378294002Y-225028125D01*
X381584376Y-207743751D02*
X381584376Y-192006251D01*
X381584376Y-192006251D02*
X381509375Y-191931250D01*
X385062500Y-211221875D02*
X381584376Y-207743751D01*
X381509375Y-191931250D02*
X380809375Y-191931250D01*
X385762500Y-211221875D02*
X385062500Y-211221875D01*
X395287500Y-225534625D02*
X395287500Y-230271875D01*
X386537501Y-216784626D02*
X395287500Y-225534625D01*
X397668750Y-248671875D02*
X397668750Y-249321875D01*
X397668750Y-231953125D02*
X397668750Y-248671875D01*
X395987500Y-230271875D02*
X397668750Y-231953125D01*
X395287500Y-230271875D02*
X395987500Y-230271875D01*
X381523759Y-213995000D02*
X379968125Y-213995000D01*
X382589375Y-213995000D02*
X381523759Y-213995000D01*
X383762500Y-212821875D02*
X382589375Y-213995000D01*
X383762500Y-212171875D02*
X383762500Y-212821875D01*
X392114375Y-233045000D02*
X391048759Y-233045000D01*
X393287500Y-231871875D02*
X392114375Y-233045000D01*
X391048759Y-233045000D02*
X389493125Y-233045000D01*
X393287500Y-231221875D02*
X393287500Y-231871875D01*
X394495625Y-252095000D02*
X393430009Y-252095000D01*
X393430009Y-252095000D02*
X391874375Y-252095000D01*
X395668750Y-250921875D02*
X394495625Y-252095000D01*
X395668750Y-250271875D02*
X395668750Y-250921875D01*
X395811259Y-194945000D02*
X394255625Y-194945000D01*
X396876875Y-194945000D02*
X395811259Y-194945000D01*
X398050000Y-193771875D02*
X396876875Y-194945000D01*
X398050000Y-193121875D02*
X398050000Y-193771875D01*
X404862500Y-211221875D02*
X404812500Y-211221875D01*
X405512500Y-212386873D02*
X405512500Y-211871875D01*
X405512500Y-211871875D02*
X404862500Y-211221875D01*
X414146875Y-221021248D02*
X405512500Y-212386873D01*
X400750000Y-192171875D02*
X400050000Y-192171875D01*
X400825001Y-192246876D02*
X400750000Y-192171875D01*
X400825001Y-207934376D02*
X400825001Y-192246876D01*
X404112500Y-211221875D02*
X400825001Y-207934376D01*
X404812500Y-211221875D02*
X404112500Y-211221875D01*
X288131250Y-227409375D02*
X289321875Y-226218750D01*
X289321875Y-226218750D02*
X310753125Y-226218750D01*
X313134375Y-226218750D02*
X335756250Y-226218750D01*
X339328125Y-226218750D02*
X351234375Y-226218750D01*
X353615625Y-226218750D02*
X373856250Y-226218750D01*
X377428125Y-226218750D02*
X394096875Y-226218750D01*
X414146875Y-230031250D02*
X414337500Y-226218750D01*
X396478125Y-226218750D02*
X414337500Y-226218750D01*
X414337500Y-226218750D02*
X414146875Y-221021248D01*
X400573759Y-213995000D02*
X399018125Y-213995000D01*
X401639375Y-213995000D02*
X400573759Y-213995000D01*
X402812500Y-212821875D02*
X401639375Y-213995000D01*
X402812500Y-212171875D02*
X402812500Y-212821875D01*
X410733125Y-233045000D02*
X410098759Y-233045000D01*
X412146875Y-231631250D02*
X410733125Y-233045000D01*
X410098759Y-233045000D02*
X408543125Y-233045000D01*
X412146875Y-230981250D02*
X412146875Y-231631250D01*
X414861259Y-194945000D02*
X413305625Y-194945000D01*
X415926875Y-194945000D02*
X414861259Y-194945000D01*
X417100000Y-193771875D02*
X415926875Y-194945000D01*
X417100000Y-193121875D02*
X417100000Y-193771875D01*
X288131250Y-229790625D02*
X290512500Y-227409375D01*
X290512500Y-227409375D02*
X310753125Y-227409375D01*
X313134375Y-227409375D02*
X336946875Y-227409375D01*
X340518750Y-227409375D02*
X352425000Y-227409375D01*
X354806250Y-227409375D02*
X373856250Y-227409375D01*
X377428125Y-227409375D02*
X394096875Y-227409375D01*
X396478125Y-227409375D02*
X413146875Y-227409375D01*
X433387500Y-229621875D02*
X433387500Y-230271875D01*
X431175000Y-227409375D02*
X433387500Y-229621875D01*
X415528125Y-227409375D02*
X431175000Y-227409375D01*
X424371875Y-210981250D02*
X423671875Y-210981250D01*
X424446876Y-211056251D02*
X424371875Y-210981250D01*
X424446876Y-220681251D02*
X424446876Y-211056251D01*
X431175000Y-227409375D02*
X424446876Y-220681251D01*
X419800000Y-192171875D02*
X419100000Y-192171875D01*
X419875001Y-207884376D02*
X419875001Y-192246876D01*
X422971875Y-210981250D02*
X419875001Y-207884376D01*
X419875001Y-192246876D02*
X419800000Y-192171875D01*
X423671875Y-210981250D02*
X422971875Y-210981250D01*
X434087500Y-230271875D02*
X433387500Y-230271875D01*
X434162501Y-243653126D02*
X434162501Y-230346876D01*
X434162501Y-230346876D02*
X434087500Y-230271875D01*
X439831250Y-249321875D02*
X434162501Y-243653126D01*
X440531250Y-249321875D02*
X439831250Y-249321875D01*
X419623759Y-213995000D02*
X418068125Y-213995000D01*
X420258125Y-213995000D02*
X419623759Y-213995000D01*
X421671875Y-212581250D02*
X420258125Y-213995000D01*
X421671875Y-211931250D02*
X421671875Y-212581250D01*
X429148759Y-233045000D02*
X427593125Y-233045000D01*
X430214375Y-233045000D02*
X429148759Y-233045000D01*
X431387500Y-231871875D02*
X430214375Y-233045000D01*
X431387500Y-231221875D02*
X431387500Y-231871875D01*
X436560000Y-250271875D02*
X437831250Y-250271875D01*
X437831250Y-250271875D02*
X438531250Y-250271875D01*
X434736875Y-252095000D02*
X436560000Y-250271875D01*
X434545625Y-194945000D02*
X433911259Y-194945000D01*
X433911259Y-194945000D02*
X432355625Y-194945000D01*
X435959375Y-193531250D02*
X434545625Y-194945000D01*
X435959375Y-192881250D02*
X435959375Y-193531250D01*
X279505059Y-232504999D02*
X287798126Y-232504999D01*
X278606250Y-232171875D02*
X279171935Y-232171875D01*
X279171935Y-232171875D02*
X279505059Y-232504999D01*
X287798126Y-232504999D02*
X291703125Y-228600000D01*
X291703125Y-228600000D02*
X310753125Y-228600000D01*
X313134375Y-228600000D02*
X336946875Y-228600000D01*
X340518750Y-228600000D02*
X353615625Y-228600000D01*
X355996875Y-228600000D02*
X373856250Y-228600000D01*
X377428125Y-228600000D02*
X394096875Y-228600000D01*
X396478125Y-228600000D02*
X413146875Y-228600000D01*
X415528125Y-228600000D02*
X431006250Y-228600000D01*
X433389215Y-228598285D02*
X450054535Y-228598285D01*
X451487500Y-230031250D02*
X452246875Y-230031250D01*
X450054535Y-228598285D02*
X451487500Y-230031250D01*
X447373124Y-225916874D02*
X450054535Y-228598285D01*
X447373124Y-214982499D02*
X447373124Y-225916874D01*
X443612500Y-211221875D02*
X447373124Y-214982499D01*
X442912500Y-211221875D02*
X443612500Y-211221875D01*
X438659375Y-191931250D02*
X437959375Y-191931250D01*
X442212500Y-195484375D02*
X438659375Y-191931250D01*
X442212500Y-210571875D02*
X442212500Y-195484375D01*
X442862500Y-211221875D02*
X442212500Y-210571875D01*
X442912500Y-211221875D02*
X442862500Y-211221875D01*
X438673759Y-213995000D02*
X437118125Y-213995000D01*
X439739375Y-213995000D02*
X438673759Y-213995000D01*
X440912500Y-212821875D02*
X439739375Y-213995000D01*
X440912500Y-212171875D02*
X440912500Y-212821875D01*
X448198759Y-233045000D02*
X446643125Y-233045000D01*
X448833125Y-233045000D02*
X448198759Y-233045000D01*
X450246875Y-231631250D02*
X448833125Y-233045000D01*
X450246875Y-230981250D02*
X450246875Y-231631250D01*
X453228750Y-193121875D02*
X451405625Y-194945000D01*
X455200000Y-193121875D02*
X453228750Y-193121875D01*
X284830002Y-227249998D02*
X285750000Y-227249998D01*
X284480000Y-228600000D02*
X284480000Y-227600000D01*
X284480000Y-227600000D02*
X284830002Y-227249998D01*
X285750000Y-227249998D02*
X277733752Y-227249998D01*
X277733752Y-227249998D02*
X276701250Y-228282500D01*
X276701250Y-228282500D02*
X276701250Y-243046250D01*
X276701250Y-243046250D02*
X280352500Y-246697500D01*
X282638912Y-246697500D02*
X284702662Y-248761250D01*
X280352500Y-246697500D02*
X282638912Y-246697500D01*
X284702662Y-257873912D02*
X289018729Y-262189979D01*
X284702662Y-248761250D02*
X284702662Y-257873912D01*
X289018729Y-262189979D02*
X469330021Y-262189979D01*
X472187500Y-249321875D02*
X471487500Y-249321875D01*
X472262501Y-258656622D02*
X472262501Y-249396876D01*
X469330021Y-261589102D02*
X472262501Y-258656622D01*
X472262501Y-249396876D02*
X472187500Y-249321875D01*
X469330021Y-262189979D02*
X469330021Y-261589102D01*
X472187500Y-230271875D02*
X471487500Y-230271875D01*
X472262501Y-230346876D02*
X472187500Y-230271875D01*
X471487500Y-248671875D02*
X472262501Y-247896874D01*
X472262501Y-247896874D02*
X472262501Y-230346876D01*
X471487500Y-249321875D02*
X471487500Y-248671875D01*
X471487500Y-230271875D02*
X471487500Y-228758750D01*
X471487500Y-228758750D02*
X463708750Y-220980000D01*
X462662500Y-211221875D02*
X461962500Y-211221875D01*
X463708750Y-212268125D02*
X462662500Y-211221875D01*
X463708750Y-220980000D02*
X463708750Y-212268125D01*
X461962500Y-210571875D02*
X459422500Y-208031875D01*
X461962500Y-211221875D02*
X461962500Y-210571875D01*
X457900000Y-192171875D02*
X457200000Y-192171875D01*
X459422500Y-193694375D02*
X457900000Y-192171875D01*
X459422500Y-208031875D02*
X459422500Y-193694375D01*
X457723759Y-213995000D02*
X456168125Y-213995000D01*
X459962500Y-212821875D02*
X458789375Y-213995000D01*
X458789375Y-213995000D02*
X457723759Y-213995000D01*
X459962500Y-212171875D02*
X459962500Y-212821875D01*
X467516250Y-231221875D02*
X465693125Y-233045000D01*
X469487500Y-231221875D02*
X467516250Y-231221875D01*
X467516250Y-250271875D02*
X465693125Y-252095000D01*
X469487500Y-250271875D02*
X467516250Y-250271875D01*
X472278750Y-193121875D02*
X470455625Y-194945000D01*
X474250000Y-193121875D02*
X472278750Y-193121875D01*
X281940000Y-226060000D02*
X276383750Y-226060000D01*
X276383750Y-226060000D02*
X275113750Y-227330000D01*
X275113750Y-227330000D02*
X275113750Y-243998750D01*
X275113750Y-243998750D02*
X278447500Y-247332500D01*
X282637502Y-247332500D02*
X284003750Y-248698748D01*
X278447500Y-247332500D02*
X282637502Y-247332500D01*
X284003750Y-257968750D02*
X288674989Y-262639989D01*
X284003750Y-248698748D02*
X284003750Y-257968750D01*
X288674989Y-262639989D02*
X487453761Y-262639989D01*
X489837500Y-249321875D02*
X490537500Y-249321875D01*
X489762499Y-249396876D02*
X489837500Y-249321875D01*
X489762499Y-260331251D02*
X489762499Y-249396876D01*
X487453761Y-262639989D02*
X489762499Y-260331251D01*
X491312501Y-230346876D02*
X491237500Y-230271875D01*
X491312501Y-249246874D02*
X491312501Y-230346876D01*
X491237500Y-230271875D02*
X490537500Y-230271875D01*
X491237500Y-249321875D02*
X491312501Y-249246874D01*
X490537500Y-249321875D02*
X491237500Y-249321875D01*
X489837500Y-230271875D02*
X482282500Y-222716875D01*
X490537500Y-230271875D02*
X489837500Y-230271875D01*
X482282500Y-211741875D02*
X481521875Y-210981250D01*
X481521875Y-210981250D02*
X480821875Y-210981250D01*
X482282500Y-222716875D02*
X482282500Y-211741875D01*
X476950000Y-192171875D02*
X476250000Y-192171875D01*
X480121875Y-195343750D02*
X476950000Y-192171875D01*
X480121875Y-210331250D02*
X480121875Y-195343750D01*
X480771875Y-210981250D02*
X480121875Y-210331250D01*
X480821875Y-210981250D02*
X480771875Y-210981250D01*
X477281875Y-211931250D02*
X475218125Y-213995000D01*
X478821875Y-211931250D02*
X477281875Y-211931250D01*
X486566250Y-231221875D02*
X484743125Y-233045000D01*
X488537500Y-231221875D02*
X486566250Y-231221875D01*
X486566250Y-250271875D02*
X484743125Y-252095000D01*
X488537500Y-250271875D02*
X486566250Y-250271875D01*
X491061259Y-194945000D02*
X489505625Y-194945000D01*
X492126875Y-194945000D02*
X491061259Y-194945000D01*
X493300000Y-193771875D02*
X492126875Y-194945000D01*
X493300000Y-193121875D02*
X493300000Y-193771875D01*
X508887500Y-249321875D02*
X509587500Y-249321875D01*
X508362501Y-249846874D02*
X508887500Y-249321875D01*
X279018749Y-250284999D02*
X282504001Y-250284999D01*
X273685000Y-225901250D02*
X273685000Y-244951250D01*
X273685000Y-244951250D02*
X279018749Y-250284999D01*
X281940000Y-223520000D02*
X276066250Y-223520000D01*
X283115001Y-250895999D02*
X283115001Y-257873751D01*
X282504001Y-250284999D02*
X283115001Y-250895999D01*
X276066250Y-223520000D02*
X273685000Y-225901250D01*
X288331249Y-263089999D02*
X505736251Y-263089999D01*
X505736251Y-263089999D02*
X508362501Y-260463749D01*
X283115001Y-257873751D02*
X288331249Y-263089999D01*
X508362501Y-260463749D02*
X508362501Y-249846874D01*
X510171876Y-230106251D02*
X510096875Y-230031250D01*
X510171876Y-248087499D02*
X510171876Y-230106251D01*
X509587500Y-248671875D02*
X510171876Y-248087499D01*
X510096875Y-230031250D02*
X509396875Y-230031250D01*
X509587500Y-249321875D02*
X509587500Y-248671875D01*
X508696875Y-230031250D02*
X502443750Y-223778125D01*
X509396875Y-230031250D02*
X508696875Y-230031250D01*
X500571875Y-210981250D02*
X499871875Y-210981250D01*
X502443750Y-212853125D02*
X500571875Y-210981250D01*
X502443750Y-223778125D02*
X502443750Y-212853125D01*
X496075001Y-206534376D02*
X496075001Y-192246876D01*
X496000000Y-192171875D02*
X495300000Y-192171875D01*
X499871875Y-210331250D02*
X496075001Y-206534376D01*
X496075001Y-192246876D02*
X496000000Y-192171875D01*
X499871875Y-210981250D02*
X499871875Y-210331250D01*
X496331875Y-211931250D02*
X494268125Y-213995000D01*
X497871875Y-211931250D02*
X496331875Y-211931250D01*
X505348759Y-233045000D02*
X503793125Y-233045000D01*
X505983125Y-233045000D02*
X505348759Y-233045000D01*
X507396875Y-231631250D02*
X505983125Y-233045000D01*
X507396875Y-230981250D02*
X507396875Y-231631250D01*
X505616250Y-250271875D02*
X503793125Y-252095000D01*
X507587500Y-250271875D02*
X505616250Y-250271875D01*
X511176875Y-194945000D02*
X510111259Y-194945000D01*
X510111259Y-194945000D02*
X508555625Y-194945000D01*
X512350000Y-193771875D02*
X511176875Y-194945000D01*
X512350000Y-193121875D02*
X512350000Y-193771875D01*
X280764999Y-219804999D02*
X280764999Y-212795999D01*
X281940000Y-220980000D02*
X280764999Y-219804999D01*
X303378498Y-196453125D02*
X304800000Y-196453125D01*
X280764999Y-212795999D02*
X281375999Y-212184999D01*
X287646624Y-212184999D02*
X303378498Y-196453125D01*
X281375999Y-212184999D02*
X287646624Y-212184999D01*
X513868750Y-191690625D02*
X514350000Y-192171875D01*
X511968750Y-191690625D02*
X513868750Y-191690625D01*
X518810624Y-210269999D02*
X519112500Y-210571875D01*
X519112500Y-210571875D02*
X519112500Y-211221875D01*
X518810624Y-195932499D02*
X518810624Y-210269999D01*
X515050000Y-192171875D02*
X518810624Y-195932499D01*
X514350000Y-192171875D02*
X515050000Y-192171875D01*
X528637500Y-229621875D02*
X528637500Y-230271875D01*
X528637500Y-220046875D02*
X528637500Y-229621875D01*
X519812500Y-211221875D02*
X528637500Y-220046875D01*
X519112500Y-211221875D02*
X519812500Y-211221875D01*
X529337500Y-230271875D02*
X529828125Y-230762500D01*
X528637500Y-230271875D02*
X529337500Y-230271875D01*
X529337500Y-249321875D02*
X528637500Y-249321875D01*
X529828125Y-248831250D02*
X529337500Y-249321875D01*
X529828125Y-230762500D02*
X529828125Y-248831250D01*
X515939375Y-213995000D02*
X514873759Y-213995000D01*
X517112500Y-212821875D02*
X515939375Y-213995000D01*
X514873759Y-213995000D02*
X513318125Y-213995000D01*
X517112500Y-212171875D02*
X517112500Y-212821875D01*
X524398759Y-233045000D02*
X522843125Y-233045000D01*
X525464375Y-233045000D02*
X524398759Y-233045000D01*
X526637500Y-231871875D02*
X525464375Y-233045000D01*
X526637500Y-231221875D02*
X526637500Y-231871875D01*
X524666250Y-250271875D02*
X522843125Y-252095000D01*
X526637500Y-250271875D02*
X524666250Y-250271875D01*
X529428750Y-193121875D02*
X527605625Y-194945000D01*
X531400000Y-193121875D02*
X529428750Y-193121875D01*
X281940000Y-218440000D02*
X286490624Y-218440000D01*
X286490624Y-218440000D02*
X286940625Y-217989999D01*
X289321875Y-208359375D02*
X294084375Y-203596875D01*
X546796875Y-230462500D02*
X546987500Y-230271875D01*
X546796875Y-248431250D02*
X546796875Y-230462500D01*
X547446875Y-249081250D02*
X546796875Y-248431250D01*
X547496875Y-249081250D02*
X547446875Y-249081250D01*
X542149999Y-225434374D02*
X542149999Y-211296876D01*
X546987500Y-230271875D02*
X542149999Y-225434374D01*
X542149999Y-211296876D02*
X542225000Y-211221875D01*
X547687500Y-230271875D02*
X546987500Y-230271875D01*
X532624999Y-192246876D02*
X532700000Y-192171875D01*
X532624999Y-201621874D02*
X532624999Y-192246876D01*
X542225000Y-211221875D02*
X532624999Y-201621874D01*
X532700000Y-192171875D02*
X533400000Y-192171875D01*
X542925000Y-211221875D02*
X542225000Y-211221875D01*
X538953750Y-212171875D02*
X537130625Y-213995000D01*
X540925000Y-212171875D02*
X538953750Y-212171875D01*
X544987500Y-231221875D02*
X543164375Y-233045000D01*
X545687500Y-231221875D02*
X544987500Y-231221875D01*
X543164375Y-233045000D02*
X541893125Y-233045000D01*
X543956875Y-250031250D02*
X541893125Y-252095000D01*
X545496875Y-250031250D02*
X543956875Y-250031250D01*
X555622500Y-193121875D02*
X557593750Y-193121875D01*
X553799375Y-194945000D02*
X555622500Y-193121875D01*
X281940000Y-215900000D02*
X286543750Y-215900000D01*
X305990625Y-197319002D02*
X305990625Y-195262500D01*
X286543750Y-215900000D02*
X287409627Y-215900000D01*
X287409627Y-215900000D02*
X305990625Y-197319002D01*
X559593750Y-191521875D02*
X559593750Y-192171875D01*
X558765626Y-190693751D02*
X559593750Y-191521875D01*
X309368749Y-190693751D02*
X558765626Y-190693751D01*
X307181250Y-192881250D02*
X309368749Y-190693751D01*
X564356250Y-196234375D02*
X564356250Y-198834375D01*
X559593750Y-192171875D02*
X560293750Y-192171875D01*
X560293750Y-192171875D02*
X564356250Y-196234375D01*
X566737500Y-202406250D02*
X566737500Y-211221875D01*
X567512501Y-230196874D02*
X567437500Y-230271875D01*
X567512501Y-211296876D02*
X567512501Y-230196874D01*
X567437500Y-211221875D02*
X567512501Y-211296876D01*
X566737500Y-211221875D02*
X567437500Y-211221875D01*
X567512501Y-248815624D02*
X567246875Y-249081250D01*
X567512501Y-230346876D02*
X567512501Y-248815624D01*
X567437500Y-230271875D02*
X567512501Y-230346876D01*
X567246875Y-249081250D02*
X566546875Y-249081250D01*
X566737500Y-230271875D02*
X567437500Y-230271875D01*
X564737500Y-212821875D02*
X563564375Y-213995000D01*
X562498759Y-213995000D02*
X560943125Y-213995000D01*
X563564375Y-213995000D02*
X562498759Y-213995000D01*
X564737500Y-212171875D02*
X564737500Y-212821875D01*
X562498759Y-233045000D02*
X560943125Y-233045000D01*
X563564375Y-233045000D02*
X562498759Y-233045000D01*
X564737500Y-231871875D02*
X563564375Y-233045000D01*
X564737500Y-231221875D02*
X564737500Y-231871875D01*
X562498759Y-252095000D02*
X560943125Y-252095000D01*
X563133125Y-252095000D02*
X562498759Y-252095000D01*
X564546875Y-250681250D02*
X563133125Y-252095000D01*
X564546875Y-250031250D02*
X564546875Y-250681250D01*
X274240625Y-203200000D02*
X289321875Y-188118750D01*
X266210000Y-203200000D02*
X274240625Y-203200000D01*
X289321875Y-269081250D02*
X379809375Y-269081250D01*
X379809375Y-269081250D02*
X473868750Y-269081250D01*
X473868750Y-269081250D02*
X565546875Y-269081250D01*
X565546875Y-269081250D02*
X565546875Y-188118750D01*
X565546875Y-188118750D02*
X473868750Y-188118750D01*
X473868750Y-188118750D02*
X379809375Y-188118750D01*
X379809375Y-188118750D02*
X289321875Y-188118750D01*
X285750000Y-213662500D02*
X287590625Y-213662500D01*
X287590625Y-213662500D02*
X288131250Y-213121875D01*
X288131250Y-228600000D02*
X285780000Y-228600000D01*
X282789999Y-229449999D02*
X281940000Y-228600000D01*
X283015001Y-229675001D02*
X282789999Y-229449999D01*
X285704999Y-229675001D02*
X283015001Y-229675001D01*
X285780000Y-229600000D02*
X285704999Y-229675001D01*
X285780000Y-228600000D02*
X285780000Y-229600000D01*
X266700000Y-198834375D02*
X266700000Y-200025000D01*
X266700000Y-200025000D02*
X269081250Y-202406250D01*
X283542500Y-214962500D02*
X281940000Y-213360000D01*
X285750000Y-214962500D02*
X283542500Y-214962500D01*
M02*
