M48
; DRILL file {KiCad (5.1.5)-3} date 01/28/21 08:37:07
; FORMAT={-:-/ absolute / inch / decimal}
; #@! TF.CreationDate,2021-01-28T08:37:07+08:00
; #@! TF.GenerationSoftware,Kicad,Pcbnew,(5.1.5)-3
FMAT,2
INCH
T1C0.0157
T2C0.0272
T3C0.0394
T4C0.0591
T5C0.1063
T6C0.0669
T7C0.0984
T8C0.1201
T9C0.1575
%
G90
G05
T1
X10.4375Y-7.7313
X10.5Y-7.8281
X10.5938Y-7.9688
X10.9688Y-9.1406
X11.075Y-10.0938
X11.2031Y-7.9219
X11.25Y-8.9469
X11.2969Y-8.5823
X11.3438Y-8.3906
X11.3438Y-8.5312
X11.3438Y-8.625
X11.3438Y-8.7188
X11.3438Y-8.8125
X11.3438Y-8.9531
X11.3438Y-9.0
X11.3438Y-9.0469
X11.3906Y-8.2031
X11.5781Y-8.0156
X12.0Y-7.7344
X12.0469Y-7.6875
X12.0938Y-7.5938
X12.2344Y-8.7188
X12.2344Y-8.7656
X12.2344Y-8.8125
X12.2344Y-8.8594
X12.2344Y-8.9062
X12.2344Y-8.9531
X12.2344Y-9.0
X12.3281Y-8.7188
X12.3281Y-8.7656
X12.3281Y-8.8125
X12.3281Y-8.8594
X12.3281Y-8.9062
X12.3281Y-8.9531
X12.3281Y-9.0
X13.0781Y-8.7656
X13.125Y-8.8125
X13.1719Y-8.8594
X13.2188Y-8.7656
X13.2188Y-8.9062
X13.2656Y-8.8125
X13.2656Y-8.9531
X13.2656Y-9.0
X13.3125Y-8.8594
X13.3594Y-8.9062
X13.4062Y-8.9531
X13.4062Y-9.0
X13.7344Y-8.8125
X13.7812Y-8.8594
X13.8281Y-8.8125
X13.8281Y-8.9062
X13.875Y-8.8594
X13.875Y-8.9531
X13.9219Y-8.9062
X13.9219Y-9.0
X13.9688Y-8.9531
X14.0156Y-9.0
X14.7188Y-8.8594
X14.7188Y-8.9062
X14.7188Y-8.9531
X14.7188Y-9.0
X14.8594Y-8.8594
X14.8594Y-8.9062
X14.8594Y-8.9531
X14.8594Y-9.0
X15.5156Y-8.9062
X15.5156Y-8.9531
X15.5156Y-9.0
X15.6094Y-8.9062
X15.6094Y-8.9531
X15.6094Y-9.0
X16.2656Y-8.9531
X16.2656Y-9.0
X16.3594Y-8.9531
X16.3594Y-9.0
X16.9688Y-9.0
X17.0626Y-8.9999
X20.1562Y-7.5469
X20.9695Y-7.9379
X21.1062Y-7.55
X21.5375Y-10.3562
X22.2188Y-7.8281
X22.3125Y-7.9688
T2
X10.6Y-10.1
X10.7Y-10.0
X10.7Y-10.2
X10.8Y-10.1
T3
X11.0999Y-9.6562
X10.3Y-7.6937
X10.3Y-7.7938
X10.3Y-7.8937
X10.3Y-7.9937
X10.3Y-8.0938
X10.3Y-8.1937
X10.3Y-8.2937
X10.3Y-8.3937
X10.3Y-8.4938
X10.3Y-8.5938
X10.3Y-8.6937
X10.3Y-8.7937
X10.3Y-8.8937
X10.3Y-8.9938
X10.3Y-9.0938
X10.3Y-9.1937
X11.1Y-9.8
X11.1Y-9.9
X11.1Y-8.1
X11.1Y-8.2
X11.1Y-8.3
X11.1Y-8.4
X11.1Y-8.5
X11.1Y-8.6
X11.1Y-8.7
X11.1Y-8.8
X11.1Y-8.9
X11.1Y-9.0
X11.1Y-9.1
X11.1Y-9.2
T4
X16.9594Y-8.525
X17.2094Y-8.425
X15.2719Y-7.775
X15.5219Y-7.675
X13.0219Y-7.775
X13.2719Y-7.675
X13.5844Y-9.275
X13.8344Y-9.175
X18.0844Y-10.025
X18.3344Y-9.925
X18.0844Y-9.275
X18.3344Y-9.175
X15.4594Y-8.525
X15.7094Y-8.425
X16.0219Y-7.775
X16.2719Y-7.675
X12.8344Y-9.275
X13.0844Y-9.175
X17.5219Y-7.775
X17.7719Y-7.675
X11.5219Y-7.775
X11.7719Y-7.675
X20.5219Y-7.775
X20.7719Y-7.675
X19.5844Y-9.275
X19.8344Y-9.175
X21.5531Y-7.775
X21.8031Y-7.675
X14.3344Y-9.275
X14.5844Y-9.175
X16.2094Y-8.525
X16.4594Y-8.425
X12.4594Y-10.025
X12.7094Y-9.925
X13.2094Y-8.525
X13.4594Y-8.425
X19.9594Y-8.525
X20.2094Y-8.425
X19.7719Y-7.775
X20.0219Y-7.675
X18.4594Y-8.525
X18.7094Y-8.425
X16.8656Y-10.025
X17.1156Y-9.925
X14.7094Y-8.525
X14.9594Y-8.425
X21.0844Y-10.025
X21.3344Y-9.925
X16.7719Y-7.775
X17.0219Y-7.675
X12.2719Y-7.775
X12.5219Y-7.675
X11.6156Y-8.525
X11.8656Y-8.425
X17.7094Y-8.525
X17.9594Y-8.425
X20.3344Y-10.025
X20.5844Y-9.925
X19.2094Y-8.525
X19.4594Y-8.425
X21.8344Y-9.275
X22.0844Y-9.175
X13.7719Y-7.775
X14.0219Y-7.675
X13.9594Y-10.025
X14.2094Y-9.925
X21.0844Y-9.275
X21.3344Y-9.175
X15.1781Y-10.025
X15.4281Y-9.925
X12.4594Y-8.525
X12.7094Y-8.425
X19.0219Y-7.775
X19.2719Y-7.675
X20.8969Y-8.525
X21.1469Y-8.425
X19.5844Y-10.025
X19.8344Y-9.925
X13.9594Y-8.525
X14.2094Y-8.425
X14.5219Y-7.775
X14.7719Y-7.675
X21.8344Y-8.525
X22.0844Y-8.425
X15.8344Y-9.275
X16.0844Y-9.175
X11.6156Y-10.025
X11.8656Y-9.925
X18.8344Y-9.275
X19.0844Y-9.175
X20.3344Y-9.275
X20.5844Y-9.175
X21.8344Y-10.025
X22.0844Y-9.925
X17.3344Y-9.275
X17.5844Y-9.175
X15.0844Y-9.275
X15.3344Y-9.175
X16.5844Y-9.275
X16.8344Y-9.175
X13.2094Y-10.025
X13.4594Y-9.925
X11.8031Y-9.275
X12.0531Y-9.175
X18.2719Y-7.775
X18.5219Y-7.675
X18.8344Y-10.025
X19.0844Y-9.925
T5
X14.9531Y-10.5938
X11.3906Y-10.5938
X11.3906Y-7.4062
X18.6562Y-7.4062
X22.2656Y-7.4062
X14.9531Y-7.4062
X22.2656Y-10.5938
X18.6562Y-10.5938
T6
X15.4094Y-8.625
X15.8094Y-8.625
X15.9719Y-7.875
X16.3719Y-7.875
X12.7844Y-9.375
X13.1844Y-9.375
X17.4719Y-7.875
X17.8719Y-7.875
X11.4719Y-7.875
X11.8719Y-7.875
X20.4719Y-7.875
X20.8719Y-7.875
X19.5344Y-9.375
X19.9344Y-9.375
X21.5031Y-7.875
X21.9031Y-7.875
X14.2844Y-9.375
X14.6844Y-9.375
X16.1594Y-8.625
X16.5594Y-8.625
X12.4094Y-10.125
X12.8094Y-10.125
X13.1594Y-8.625
X13.5594Y-8.625
X19.9094Y-8.625
X20.3094Y-8.625
X19.7219Y-7.875
X20.1219Y-7.875
X18.4094Y-8.625
X18.8094Y-8.625
X16.8156Y-10.125
X17.2156Y-10.125
X14.6594Y-8.625
X15.0594Y-8.625
X21.0344Y-10.125
X21.4344Y-10.125
X16.7219Y-7.875
X17.1219Y-7.875
X12.2219Y-7.875
X12.6219Y-7.875
X11.5656Y-8.625
X11.9656Y-8.625
X17.6594Y-8.625
X18.0594Y-8.625
X20.2844Y-10.125
X20.6844Y-10.125
X19.1594Y-8.625
X19.5594Y-8.625
X21.7844Y-9.375
X22.1844Y-9.375
X13.7219Y-7.875
X14.1219Y-7.875
X13.9094Y-10.125
X14.3094Y-10.125
X21.0344Y-9.375
X21.4344Y-9.375
X15.1281Y-10.125
X15.5281Y-10.125
X12.4094Y-8.625
X12.8094Y-8.625
X18.9719Y-7.875
X19.3719Y-7.875
X20.8469Y-8.625
X21.2469Y-8.625
X19.5344Y-10.125
X19.9344Y-10.125
X13.9094Y-8.625
X14.3094Y-8.625
X14.4719Y-7.875
X14.8719Y-7.875
X21.7844Y-8.625
X22.1844Y-8.625
X15.7844Y-9.375
X16.1844Y-9.375
X11.5656Y-10.125
X11.9656Y-10.125
X18.7844Y-9.375
X19.1844Y-9.375
X20.2844Y-9.375
X20.6844Y-9.375
X21.7844Y-10.125
X22.1844Y-10.125
X17.2844Y-9.375
X17.6844Y-9.375
X15.0344Y-9.375
X15.4344Y-9.375
X16.5344Y-9.375
X16.9344Y-9.375
X13.1594Y-10.125
X13.5594Y-10.125
X11.7531Y-9.375
X12.1531Y-9.375
X18.2219Y-7.875
X18.6219Y-7.875
X18.7844Y-10.125
X19.1844Y-10.125
X16.9094Y-8.625
X17.3094Y-8.625
X15.2219Y-7.875
X15.6219Y-7.875
X12.9719Y-7.875
X13.3719Y-7.875
X13.5344Y-9.375
X13.9344Y-9.375
X18.0344Y-10.125
X18.4344Y-10.125
X18.0344Y-9.375
X18.4344Y-9.375
T7
X11.05Y-9.35
X11.05Y-7.55
X10.35Y-9.35
X10.35Y-7.55
T8
X16.5471Y-9.8494
X17.4841Y-9.8494
X14.8596Y-9.8494
X15.7966Y-9.8494
T9
X21.9844Y-9.375
X13.9219Y-7.875
X14.1094Y-10.125
X21.2344Y-9.375
X14.8596Y-10.4494
X15.3281Y-10.125
X15.7966Y-10.4494
X12.6094Y-8.625
X19.1719Y-7.875
X21.0469Y-8.625
X19.7344Y-10.125
X14.1094Y-8.625
X14.6719Y-7.875
X21.9844Y-8.625
X15.9844Y-9.375
X11.7656Y-10.125
X18.9844Y-9.375
X20.4844Y-9.375
X21.9844Y-10.125
X17.4844Y-9.375
X15.2344Y-9.375
X16.7344Y-9.375
X13.3594Y-10.125
X11.9531Y-9.375
X18.4219Y-7.875
X18.9844Y-10.125
X17.1094Y-8.625
X15.4219Y-7.875
X13.1719Y-7.875
X13.7344Y-9.375
X18.2344Y-10.125
X18.2344Y-9.375
X15.6094Y-8.625
X16.1719Y-7.875
X12.9844Y-9.375
X17.6719Y-7.875
X11.6719Y-7.875
X20.6719Y-7.875
X19.7344Y-9.375
X21.7031Y-7.875
X14.4844Y-9.375
X16.3594Y-8.625
X12.6094Y-10.125
X13.3594Y-8.625
X20.1094Y-8.625
X19.9219Y-7.875
X18.6094Y-8.625
X16.5471Y-10.4494
X17.0156Y-10.125
X17.4841Y-10.4494
X14.8594Y-8.625
X21.2344Y-10.125
X16.9219Y-7.875
X12.4219Y-7.875
X11.7656Y-8.625
X17.8594Y-8.625
X20.4844Y-10.125
X19.3594Y-8.625
T0
M30
